STARTFONT 2.1
COMMENT
COMMENT Converted from OpenType font "UbuntuMono-BoldItalic.ttf" by "otf2bdf 3.0".
COMMENT
FONT -FreeType-Ubuntu Mono-Bold-I-Normal--50-360-100-100-P-248-ISO10646-1
SIZE 36 100 100
FONTBOUNDINGBOX 48 51 -14 -9
STARTPROPERTIES 19
FOUNDRY "FreeType"
FAMILY_NAME "Ubuntu Mono"
WEIGHT_NAME "Bold"
SLANT "I"
SETWIDTH_NAME "Normal"
ADD_STYLE_NAME ""
PIXEL_SIZE 50
POINT_SIZE 360
RESOLUTION_X 100
RESOLUTION_Y 100
SPACING "P"
AVERAGE_WIDTH 248
CHARSET_REGISTRY "ISO10646"
CHARSET_ENCODING "1"
FONT_ASCENT 41
FONT_DESCENT 8
COPYRIGHT "Copyright 2011 Canonical Ltd.  Licensed under the Ubuntu Font Licence 1.0"
_OTF_FONTFILE "UbuntuMono-BoldItalic.ttf"
_OTF_PSNAME "UbuntuMono-BoldItalic"
ENDPROPERTIES
CHARS 1224
STARTCHAR 0000
ENCODING 0
SWIDTH 500 0
DWIDTH 25 0
BBX 0 0 0 0
BITMAP
ENDCHAR
STARTCHAR 0008
ENCODING 8
SWIDTH 500 0
DWIDTH 25 0
BBX 0 0 0 0
BITMAP
ENDCHAR
STARTCHAR 0009
ENCODING 9
SWIDTH 500 0
DWIDTH 25 0
BBX 0 0 0 0
BITMAP
ENDCHAR
STARTCHAR 000D
ENCODING 13
SWIDTH 500 0
DWIDTH 25 0
BBX 0 0 0 0
BITMAP
ENDCHAR
STARTCHAR 001D
ENCODING 29
SWIDTH 500 0
DWIDTH 25 0
BBX 0 0 0 0
BITMAP
ENDCHAR
STARTCHAR 0020
ENCODING 32
SWIDTH 500 0
DWIDTH 25 0
BBX 0 0 0 0
BITMAP
ENDCHAR
STARTCHAR 0021
ENCODING 33
SWIDTH 500 0
DWIDTH 25 0
BBX 14 32 8 -1
BITMAP
01FC
01FC
01FC
03F8
03F8
03F8
03F8
07F0
07F0
07F0
07F0
0FE0
0FE0
0FE0
0FE0
0FC0
0FC0
0F80
1F80
1F80
0000
0000
0000
1C00
3F00
7F00
FF00
FF00
FF00
7F00
7E00
1000
ENDCHAR
STARTCHAR 0022
ENCODING 34
SWIDTH 500 0
DWIDTH 25 0
BBX 18 14 10 20
BITMAP
7F1FC0
7F1F80
7E1F80
7E3F80
FE3F80
FE3F00
FC3F00
FC3F00
F83E00
F83E00
F83E00
F03C00
F03C00
E07800
ENDCHAR
STARTCHAR 0023
ENCODING 35
SWIDTH 500 0
DWIDTH 25 0
BBX 26 31 2 0
BITMAP
000F87C0
001F07C0
001F0F80
001F0F80
003E1F00
003E1F00
007C1F00
007C3E00
1FFFFFC0
1FFFFFC0
1FFFFFC0
1FFFFF80
3FFFFF80
01F0F800
03E1F000
03E1F000
07C1F000
07C3E000
7FFFFF00
7FFFFE00
FFFFFE00
FFFFFE00
FFFFFE00
1F0F8000
3E1F0000
3E1F0000
7C1F0000
7C3E0000
7C3E0000
F87C0000
F87C0000
ENDCHAR
STARTCHAR 0024
ENCODING 36
SWIDTH 500 0
DWIDTH 25 0
BBX 24 40 3 -5
BITMAP
0003E0
0003E0
0003E0
0007E0
0007C0
003FF0
00FFFE
01FFFF
03FFFE
07FFFE
0FF01C
0FE000
0FC000
0FC000
0FC000
0FE000
0FF800
07FE00
03FF00
01FFC0
00FFE0
003FF0
000FF0
0007F0
0003F8
0003F8
0003F8
0003F8
7007F0
7F3FF0
FFFFE0
FFFFE0
FFFF80
3FFF00
03E000
03E000
03E000
07E000
07C000
07C000
ENDCHAR
STARTCHAR 0025
ENCODING 37
SWIDTH 500 0
DWIDTH 25 0
BBX 29 33 1 -1
BITMAP
00300000
01FC0078
03FE00F0
03FE01F0
07DE03E0
078E07C0
0F0E0780
0F1E0F00
0F1E1E00
0E1E3E00
0E3C7C00
0F3CF800
0FFCF000
0FF9E000
07F3C000
03C78000
000F8000
001F1C00
003E7F00
003CFF80
0079FF80
00F1E780
01F3C780
03E3C780
07C3C780
07838780
0F078780
1E078F00
3E07DF00
7C03FE00
F803FC00
F001F800
00006000
ENDCHAR
STARTCHAR 0026
ENCODING 38
SWIDTH 500 0
DWIDTH 25 0
BBX 24 32 2 0
BITMAP
000380
001FF0
007FF8
00FFFC
00FFFC
01F87C
01F07C
03E07C
03E07C
03E0F8
03E0F8
03E1F0
03F7E0
01FFC0
01FF80
01FF08
03FC1F
0FFE1F
1FFE1F
3F3F3E
3E1FBE
7C1FFC
7C0FFC
FC07F8
FC07F0
FC03F0
FC07F0
FE1FF8
7FFFF8
7FFEFC
3FFCFC
1FF07C
ENDCHAR
STARTCHAR 0027
ENCODING 39
SWIDTH 500 0
DWIDTH 25 0
BBX 9 15 14 19
BITMAP
3F80
3F00
7F00
7F00
7F00
7E00
7E00
7E00
FC00
FC00
F800
F800
F800
F000
F000
ENDCHAR
STARTCHAR 0028
ENCODING 40
SWIDTH 500 0
DWIDTH 25 0
BBX 20 43 7 -8
BITMAP
0000C0
0003E0
0007E0
000FF0
003FE0
007F80
00FF00
01FE00
01FC00
03F800
07F000
0FE000
0FE000
1FC000
1F8000
3F8000
3F0000
7F0000
7E0000
7E0000
7E0000
FC0000
FC0000
FC0000
FC0000
FC0000
FC0000
FC0000
FC0000
FC0000
FC0000
FC0000
FC0000
7E0000
7E0000
7F0000
3F0000
3F8000
1FC000
0FE000
0FC000
078000
030000
ENDCHAR
STARTCHAR 0029
ENCODING 41
SWIDTH 500 0
DWIDTH 25 0
BBX 20 43 2 -8
BITMAP
000C00
001E00
003F00
007F00
003F80
001FC0
000FC0
000FC0
0007E0
0007E0
0003E0
0003F0
0003F0
0003F0
0003F0
0003F0
0003F0
0003F0
0003F0
0003F0
0003F0
0003F0
0007E0
0007E0
0007E0
000FC0
000FC0
001FC0
001F80
003F80
007F00
007E00
00FE00
01FC00
03F800
07F000
0FF000
1FE000
7FC000
FF0000
7E0000
7C0000
300000
ENDCHAR
STARTCHAR 002A
ENCODING 42
SWIDTH 500 0
DWIDTH 25 0
BBX 21 19 6 11
BITMAP
00F800
00F800
00F800
00F800
20F820
78F8E0
7EF3F0
7F7FF0
FFFFF0
FFFFF8
0FFF80
01FC00
03FE00
07DF00
0FDF80
1F8FC0
1F8FC0
0F0F80
030600
ENDCHAR
STARTCHAR 002B
ENCODING 43
SWIDTH 500 0
DWIDTH 25 0
BBX 22 22 4 2
BITMAP
003F00
003E00
003E00
003E00
007E00
007C00
007C00
007C00
7FFFFC
FFFFF8
FFFFF8
FFFFF8
FFFFF8
01F000
01F000
01F000
03F000
03F000
03E000
03E000
03E000
07E000
ENDCHAR
STARTCHAR 002C
ENCODING 44
SWIDTH 500 0
DWIDTH 25 0
BBX 12 16 5 -8
BITMAP
07E0
0FE0
0FF0
1FF0
1FF0
1FF0
0FF0
0FE0
03E0
03E0
0FC0
7F80
FF00
FE00
F800
8000
ENDCHAR
STARTCHAR 002D
ENCODING 45
SWIDTH 500 0
DWIDTH 25 0
BBX 15 6 7 10
BITMAP
7FFE
7FFE
7FFE
7FFC
FFFC
FFFC
ENDCHAR
STARTCHAR 002E
ENCODING 46
SWIDTH 500 0
DWIDTH 25 0
BBX 9 9 8 -1
BITMAP
3F00
7F00
7F80
FF80
FF80
FF80
7F00
7E00
0800
ENDCHAR
STARTCHAR 002F
ENCODING 47
SWIDTH 500 0
DWIDTH 25 0
BBX 29 43 0 -8
BITMAP
000003F8
000003F0
000007F0
000007E0
00000FE0
00000FC0
00001FC0
00001F80
00003F00
00007F00
00007E00
0000FE00
0000FC00
0001FC00
0001F800
0003F800
0003F000
0007F000
0007E000
000FE000
000FC000
001FC000
001F8000
003F0000
007F0000
007E0000
00FE0000
00FC0000
01FC0000
01F80000
03F80000
03F00000
07F00000
07E00000
0FE00000
0FC00000
1FC00000
1F800000
3F000000
7F000000
7E000000
FE000000
FC000000
ENDCHAR
STARTCHAR 0030
ENCODING 48
SWIDTH 500 0
DWIDTH 25 0
BBX 23 33 4 -1
BITMAP
000700
007FE0
00FFF0
03FFF8
07FFFC
07FFFC
0FE0FC
1FC07E
1F807E
3F007E
3F007E
3E007E
7E007E
7E3C7E
7C7C7C
FC7C7C
FCFCFC
FCF8FC
FC78FC
F800F8
F801F8
F801F8
F803F0
F803F0
F807F0
FC07E0
FC1FC0
FFFFC0
7FFF80
7FFF00
3FFE00
0FF800
03C000
ENDCHAR
STARTCHAR 0031
ENCODING 49
SWIDTH 500 0
DWIDTH 25 0
BBX 20 31 3 0
BITMAP
0001F0
0003F0
000FF0
003FE0
00FFE0
03FFE0
0FFFE0
0FFFC0
0FEFC0
07CFC0
070FC0
001FC0
001F80
001F80
001F80
003F80
003F00
003F00
003F00
007F00
007E00
007E00
007E00
00FE00
00FC00
00FC00
7FFFF0
7FFFF0
7FFFF0
7FFFE0
FFFFE0
ENDCHAR
STARTCHAR 0032
ENCODING 50
SWIDTH 500 0
DWIDTH 25 0
BBX 25 32 2 0
BITMAP
0003C000
003FF800
00FFFC00
03FFFE00
07FFFF00
03FFFF00
03E03F00
01803F80
01003F80
00003F00
00003F00
00007F00
00007E00
0001FE00
0003FC00
0007F800
000FF000
003FE000
007F8000
00FF0000
03FE0000
07F80000
0FF00000
1FE00000
1F800000
3F800000
3F000000
7FFFF800
7FFFF800
FFFFF800
FFFFF000
FFFFF000
ENDCHAR
STARTCHAR 0033
ENCODING 51
SWIDTH 500 0
DWIDTH 25 0
BBX 25 33 1 -1
BITMAP
00038000
003FF800
00FFFE00
00FFFF00
00FFFF80
00FCFF80
00403F80
00001F80
00001F80
00001F80
00001F00
00003F00
0000FE00
003FFC00
003FF800
007FE000
007FF000
007FF800
0007FC00
0000FC00
0000FE00
00007E00
00007E00
00007E00
0000FE00
0000FC00
3001FC00
3F1FFC00
7FFFF800
7FFFF000
FFFFC000
1FFF0000
01F00000
ENDCHAR
STARTCHAR 0034
ENCODING 52
SWIDTH 500 0
DWIDTH 25 0
BBX 25 31 2 0
BITMAP
00001F80
00003F80
0000FF80
0001FF00
0003FF00
0007FF00
000FFF00
001FBE00
003F7E00
007E7E00
00FC7E00
01F87C00
01F0FC00
03E0FC00
07C0FC00
0F80FC00
1F81F800
3F01F800
3E01F800
7FFFFF00
7FFFFF00
7FFFFE00
FFFFFE00
FFFFFE00
0007E000
0007E000
0007E000
0007E000
0007C000
000FC000
000FC000
ENDCHAR
STARTCHAR 0035
ENCODING 53
SWIDTH 500 0
DWIDTH 25 0
BBX 26 32 2 -1
BITMAP
007FFFC0
007FFF80
007FFF80
007FFF80
00FFFF80
00F80000
00F80000
01F80000
01F00000
01F00000
03F00000
03E00000
03FE0000
07FFC000
07FFE000
07FFF000
007FF800
0007F800
0003FC00
0001FC00
0000FC00
0000FC00
0000FC00
0001FC00
0001F800
7003F800
7F7FF000
7FFFF000
FFFFE000
FFFF8000
3FFF0000
03E00000
ENDCHAR
STARTCHAR 0036
ENCODING 54
SWIDTH 500 0
DWIDTH 25 0
BBX 24 32 4 -1
BITMAP
0000FF
0007FF
003FFE
007FFE
01FFFE
03FF00
07F800
0FF000
1FC000
1F8000
3F0000
3F0400
7EFF80
7FFFE0
7FFFF0
FFFFF0
FF07F8
FC01F8
FC01F8
FC01F8
FC01F8
FC01F8
FC01F8
FC01F8
FC03F0
7E07F0
7FDFE0
7FFFE0
3FFFC0
1FFF80
07FE00
00E000
ENDCHAR
STARTCHAR 0037
ENCODING 55
SWIDTH 500 0
DWIDTH 25 0
BBX 24 31 6 0
BITMAP
3FFFFF
3FFFFE
3FFFFE
7FFFFE
7FFFFE
0001FC
0003F8
0007F0
000FE0
001FC0
001F80
003F00
007F00
00FE00
00FC00
01FC00
01F800
03F000
07F000
07E000
0FE000
0FC000
1FC000
1F8000
3F8000
3F0000
7F0000
7E0000
7E0000
FE0000
FC0000
ENDCHAR
STARTCHAR 0038
ENCODING 56
SWIDTH 500 0
DWIDTH 25 0
BBX 24 33 3 -1
BITMAP
000780
003FF0
00FFFC
01FFFE
03FFFE
07F8FF
07E03F
07E03F
07C03F
0FC03F
0FC03E
07E07E
07E0FC
07FBF8
03FFF0
01FFE0
03FFC0
0FFFE0
1FCFF0
3F07F0
7E03F8
7E01F8
FC01F8
FC01F8
FC01F8
FC01F8
FE03F8
FF0FF0
7FFFF0
3FFFE0
3FFF80
0FFF00
00F000
ENDCHAR
STARTCHAR 0039
ENCODING 57
SWIDTH 500 0
DWIDTH 25 0
BBX 24 32 3 0
BITMAP
000F00
00FFE0
01FFF0
03FFF8
07FFFC
0FFFFE
1FC0FE
1F807E
1F807F
3F003F
3F003F
3F003F
3F003F
3F003F
3F807F
1FE1FE
1FFFFE
0FFFFE
07FFFE
03FEFC
0000FC
0001F8
0003F8
0007F0
000FE0
003FC0
01FF80
FFFF00
FFFE00
FFF800
FFE000
FF0000
ENDCHAR
STARTCHAR 003A
ENCODING 58
SWIDTH 500 0
DWIDTH 25 0
BBX 13 24 8 0
BITMAP
03E0
07F0
0FF0
0FF8
0FF0
0FF0
0FF0
07E0
0000
0000
0000
0000
0000
0000
0000
3F00
7F00
7F80
FF80
FF80
FF80
7F00
7E00
0800
ENDCHAR
STARTCHAR 003B
ENCODING 59
SWIDTH 500 0
DWIDTH 25 0
BBX 16 31 5 -7
BITMAP
007C
00FE
01FE
01FF
01FE
01FE
01FE
00FC
0000
0000
0000
0000
0000
0000
0000
07E0
0FE0
0FF0
1FF0
1FF0
1FF0
0FF0
0FE0
03E0
03E0
0FC0
7F80
FF00
FE00
F800
8000
ENDCHAR
STARTCHAR 003C
ENCODING 60
SWIDTH 500 0
DWIDTH 25 0
BBX 23 21 4 3
BITMAP
00001C
0000FC
0003FE
001FFE
007FFE
03FFF8
1FFFC0
7FFE00
7FF000
7F8000
FF0000
FFC000
FFF000
3FFC00
0FFF80
03FFE0
00FFF0
001FE0
0007E0
0001C0
000040
ENDCHAR
STARTCHAR 003D
ENCODING 61
SWIDTH 500 0
DWIDTH 25 0
BBX 25 15 2 6
BITMAP
0FFFFF80
0FFFFF80
1FFFFF00
1FFFFF00
1FFFFF00
1FFFFF00
00000000
00000000
00000000
00000000
7FFFFC00
7FFFFC00
7FFFFC00
7FFFFC00
FFFFF800
ENDCHAR
STARTCHAR 003E
ENCODING 62
SWIDTH 500 0
DWIDTH 25 0
BBX 22 21 3 3
BITMAP
0E0000
0FC000
1FF000
1FFC00
1FFF00
03FFC0
00FFF0
003FFC
000FFC
0003FC
0007FC
001FFC
00FFF8
07FFE0
3FFF80
FFFC00
FFE000
FF8000
FC0000
F00000
800000
ENDCHAR
STARTCHAR 003F
ENCODING 63
SWIDTH 500 0
DWIDTH 25 0
BBX 19 33 8 -1
BITMAP
00F800
0FFF00
3FFF80
3FFFC0
3FFFC0
3FFFC0
380FE0
000FE0
000FC0
001FC0
001FC0
003F80
00FF00
01FE00
03FC00
07F000
0FE000
1FC000
1F8000
3F0000
3F0000
000000
000000
000000
1C0000
7E0000
FF0000
FF0000
FF0000
FF0000
FE0000
7C0000
100000
ENDCHAR
STARTCHAR 0040
ENCODING 64
SWIDTH 500 0
DWIDTH 25 0
BBX 25 39 3 -7
BITMAP
0001C000
001FFC00
007FFE00
00FFFF00
01FFFF00
03F81F80
07E00F80
0FC00F80
0F800F80
1F000F80
1E03FF80
3E0FFF80
3C1FFF00
7C3FFF00
7C7FFF00
787E3F00
78FC3E00
F8F83E00
F8F83E00
F8F87E00
F8F87C00
F1F07C00
F1F07C00
F1F8FC00
F0F8FC00
F0FFF800
F8FFF800
F87FF800
F87FF800
F81FE000
FC000000
7C000000
7E000000
3F800000
3FFFC000
1FFFC000
0FFFC000
03FF8000
007E0000
ENDCHAR
STARTCHAR 0041
ENCODING 65
SWIDTH 500 0
DWIDTH 25 0
BBX 24 31 0 0
BITMAP
0001FC
0001FC
0003FC
0003FE
0007FE
000FFE
000FBE
001FBE
001F3E
003F3E
003E3E
007E3E
007C3E
00FC3E
00F83E
01F83E
01F03E
03F03F
03E03F
07FFFF
07FFFF
0FFFFF
0FFFFF
1FFFFF
1F803F
3F003F
3F003F
7E003F
7E003F
FE003F
FC003F
ENDCHAR
STARTCHAR 0042
ENCODING 66
SWIDTH 500 0
DWIDTH 25 0
BBX 25 31 2 0
BITMAP
00FFF000
01FFFC00
01FFFE00
03FFFF00
03FFFF00
03F03F80
03F01F80
07E01F80
07E01F80
07E01F00
07E03F00
0FE07E00
0FFFFE00
0FFFF800
0FFFF000
0FFFF800
1FFFFC00
1F87FC00
1F80FE00
1F807E00
3F007E00
3F007E00
3F007E00
3F00FE00
7E01FC00
7E03FC00
7FFFF800
7FFFF000
FFFFE000
FFFFC000
7FFE0000
ENDCHAR
STARTCHAR 0043
ENCODING 67
SWIDTH 500 0
DWIDTH 25 0
BBX 24 33 4 -1
BITMAP
0000C0
001FFC
007FFF
00FFFF
01FFFF
03FFFE
07F80E
0FF000
0FE000
1FC000
1F8000
3F8000
3F0000
3F0000
7F0000
7E0000
7E0000
7E0000
7E0000
FE0000
FE0000
FE0000
FE0000
FE0000
7E0000
7F0000
7F80C0
7FFFE0
3FFFE0
1FFFE0
0FFFE0
07FF80
00F800
ENDCHAR
STARTCHAR 0044
ENCODING 68
SWIDTH 500 0
DWIDTH 25 0
BBX 24 31 2 0
BITMAP
01FFC0
01FFF0
03FFFC
03FFFC
03FFFE
03F0FF
07F07F
07E03F
07E03F
07E03F
0FE03F
0FC03F
0FC03F
0FC03F
1FC03F
1F803F
1F803F
1F807F
3F807E
3F007E
3F00FE
3F00FC
7F01FC
7E03F8
7E07F8
7E1FF0
7FFFE0
FFFFC0
FFFF80
FFFE00
FFF800
ENDCHAR
STARTCHAR 0045
ENCODING 69
SWIDTH 500 0
DWIDTH 25 0
BBX 25 31 3 0
BITMAP
01FFFF80
01FFFF80
03FFFF80
03FFFF80
03FFFF00
03F00000
07F00000
07E00000
07E00000
07E00000
07E00000
0FC00000
0FFFF800
0FFFF800
0FFFF000
1FFFF000
1FFFF000
1F800000
1F800000
3F800000
3F000000
3F000000
3F000000
7F000000
7E000000
7E000000
7FFFF000
FFFFF000
FFFFF000
FFFFE000
FFFFE000
ENDCHAR
STARTCHAR 0046
ENCODING 70
SWIDTH 500 0
DWIDTH 25 0
BBX 26 31 3 0
BITMAP
01FFFFC0
01FFFFC0
01FFFFC0
03FFFF80
03FFFF80
03F00000
03F00000
07F00000
07E00000
07E00000
07E00000
0FE00000
0FC00000
0FFFF800
0FFFF800
0FFFF800
1FFFF800
1FFFF000
1F800000
1F800000
3F800000
3F000000
3F000000
3F000000
7F000000
7E000000
7E000000
7E000000
FE000000
FC000000
FC000000
ENDCHAR
STARTCHAR 0047
ENCODING 71
SWIDTH 500 0
DWIDTH 25 0
BBX 24 33 4 -1
BITMAP
0000C0
001FFC
007FFF
00FFFF
01FFFF
03FFFE
07F80E
0FE000
1FC000
1FC000
3F8000
3F0000
7F0000
7E0000
7E0000
7E0000
FE01FC
FC01F8
FC01F8
FC01F8
FC03F8
FC03F0
FC03F0
FC03F0
FE03F0
FE07E0
FF07E0
7FFFE0
7FFFE0
3FFFC0
1FFFC0
0FFF80
01F000
ENDCHAR
STARTCHAR 0048
ENCODING 72
SWIDTH 500 0
DWIDTH 25 0
BBX 28 31 1 0
BITMAP
00FC03F0
01FC03F0
01F803F0
01F807E0
01F807E0
03F807E0
03F007E0
03F00FE0
03F00FC0
07F00FC0
07E00FC0
07E01FC0
07FFFF80
0FFFFF80
0FFFFF80
0FFFFF80
0FFFFF00
0FC03F00
1F803F00
1F807F00
1F807E00
1F807E00
3F807E00
3F00FE00
3F00FC00
3F00FC00
7F00FC00
7E00FC00
7E01F800
7E01F800
FE01F800
ENDCHAR
STARTCHAR 0049
ENCODING 73
SWIDTH 500 0
DWIDTH 25 0
BBX 27 31 2 0
BITMAP
01FFFFE0
01FFFFC0
01FFFFC0
03FFFFC0
03FFFFC0
0007E000
000FE000
000FC000
000FC000
000FC000
001FC000
001F8000
001F8000
001F8000
003F8000
003F0000
003F0000
003F0000
003F0000
007E0000
007E0000
007E0000
007E0000
00FE0000
00FC0000
00FC0000
7FFFF000
7FFFF000
FFFFF000
FFFFF000
FFFFF000
ENDCHAR
STARTCHAR 004A
ENCODING 74
SWIDTH 500 0
DWIDTH 25 0
BBX 26 32 2 -1
BITMAP
003FFFC0
007FFFC0
007FFF80
007FFF80
007FFF80
00003F80
00003F00
00003F00
00003F00
00007F00
00007E00
00007E00
00007E00
00007E00
0000FC00
0000FC00
0000FC00
0000FC00
0001F800
0001F800
0001F800
0001F800
0003F000
0003F000
3007F000
380FE000
7FFFE000
FFFFC000
FFFF8000
7FFF0000
1FFE0000
01E00000
ENDCHAR
STARTCHAR 004B
ENCODING 75
SWIDTH 500 0
DWIDTH 25 0
BBX 28 31 2 0
BITMAP
01F807F0
01F80FE0
03F81FC0
03F01FC0
03F03F80
03F07F00
07F0FE00
07E1FC00
07E3F800
07E7F000
0FE7E000
0FCFE000
0FFF8000
0FFF0000
1FFE0000
1FFE0000
1FFF0000
1FBF8000
1FBF8000
3F1FC000
3F0FC000
3F0FE000
3F07E000
7F07F000
7E03F000
7E03F000
7E03F800
FE01F800
FC01F800
FC01FC00
FC01FC00
ENDCHAR
STARTCHAR 004C
ENCODING 76
SWIDTH 500 0
DWIDTH 25 0
BBX 21 31 2 0
BITMAP
00FC00
01F800
01F800
01F800
01F800
03F800
03F000
03F000
03F000
07F000
07E000
07E000
07E000
0FE000
0FC000
0FC000
0FC000
1FC000
1F8000
1F8000
1F8000
1F8000
3F0000
3F0000
3F0000
3F0000
7FFFF8
7FFFF0
7FFFF0
7FFFF0
FFFFF0
ENDCHAR
STARTCHAR 004D
ENCODING 77
SWIDTH 500 0
DWIDTH 25 0
BBX 29 31 0 0
BITMAP
007E01F8
007E03F8
00FE03F0
00FE07F0
00FE07F0
01FE0FF0
01FE0FF0
01EE1FF0
01EE1FF0
03EE3DE0
03EE3DE0
03CE7BE0
07CF7BE0
07CFF3E0
07CFF3C0
07CFE7C0
0F8FE7C0
0F8FC7C0
0F8F87C0
1F8F8F80
1F000F80
1F000F80
1F001F80
3F001F80
3E001F00
3E001F00
3E003F00
7E003F00
7E003F00
7C003E00
FC007E00
ENDCHAR
STARTCHAR 004E
ENCODING 78
SWIDTH 500 0
DWIDTH 25 0
BBX 28 31 1 0
BITMAP
00F801F0
01F803F0
01FC03F0
01FC03E0
01FC03E0
03FE07E0
03FE07E0
03FE07C0
03FE07C0
07FF07C0
07FF0FC0
07CF0FC0
07CF0F80
0FCF8F80
0FCF9F80
0F879F80
0F879F00
0F87DF00
1F87FF00
1F83FF00
1F03FE00
1F03FE00
3F03FE00
3F03FE00
3E01FC00
3E01FC00
7E01FC00
7E01FC00
7C01F800
7C00F800
FC00F800
ENDCHAR
STARTCHAR 004F
ENCODING 79
SWIDTH 500 0
DWIDTH 25 0
BBX 24 33 3 -1
BITMAP
000380
003FF0
00FFF8
01FFFC
03FFFE
07FFFE
07F07F
0FE07F
0FC03F
1FC03F
1F803F
3F803F
3F003F
3F003F
7F003F
7E007F
7E007E
7E007E
7E007E
7E00FE
FE00FC
FE00FC
FE01FC
FE01F8
FE03F8
7E07F0
7F0FF0
7FFFE0
3FFFC0
3FFF80
1FFF00
0FFC00
01E000
ENDCHAR
STARTCHAR 0050
ENCODING 80
SWIDTH 500 0
DWIDTH 25 0
BBX 26 31 2 0
BITMAP
01FFF800
01FFFE00
01FFFF00
01FFFF80
03FFFF80
03F07F80
03F01FC0
03F01FC0
07E01FC0
07E00FC0
07E01FC0
07E01F80
0FE01F80
0FC03F80
0FC0FF00
0FFFFE00
1FFFFE00
1FFFF800
1FFFF000
1FFF8000
3FE00000
3F000000
3F000000
3F000000
7F000000
7E000000
7E000000
7E000000
FE000000
FC000000
FC000000
ENDCHAR
STARTCHAR 0051
ENCODING 81
SWIDTH 500 0
DWIDTH 25 0
BBX 24 40 3 -9
BITMAP
000380
003FF0
007FF8
01FFFC
03FFFE
07FFFE
07F07F
0FE07F
0FC03F
1FC03F
1F803F
3F803F
3F003F
3F003F
7F003F
7E007E
7E007E
7E007E
7E007E
7E00FE
FE00FC
FE00FC
FE01FC
FE01F8
FE03F8
7E07F0
7F0FF0
7FFFE0
3FFFC0
3FFF80
1FFF00
0FFC00
03E000
03E000
03F000
03FC00
01FFC0
00FF80
007F80
001F00
ENDCHAR
STARTCHAR 0052
ENCODING 82
SWIDTH 500 0
DWIDTH 25 0
BBX 25 31 2 0
BITMAP
01FFF000
01FFFC00
03FFFE00
03FFFF00
03FFFF00
03F07F00
03F03F80
07E03F80
07E03F80
07E03F80
07E03F00
0FC03F00
0FC07F00
0FC0FE00
0FFFFE00
1FFFFC00
1FFFF800
1FFFE000
1FFF8000
3FFFC000
3F0FC000
3F07E000
3F07E000
7F07E000
7E03F000
7E03F000
7E03F000
7E01F800
FC01F800
FC01F800
FC01F800
ENDCHAR
STARTCHAR 0053
ENCODING 83
SWIDTH 500 0
DWIDTH 25 0
BBX 25 33 2 -1
BITMAP
0003C000
003FFE00
007FFF80
01FFFF80
01FFFF00
03FFFF00
07F00600
07E00000
07E00000
07E00000
07E00000
07F00000
07F80000
07FE0000
03FF8000
01FFC000
00FFF000
007FF000
001FF800
0007F800
0003FC00
0001FC00
0001FC00
0000FC00
0001FC00
2001F800
7803F800
7FFFF800
FFFFF000
FFFFE000
FFFFC000
3FFF0000
01F00000
ENDCHAR
STARTCHAR 0054
ENCODING 84
SWIDTH 500 0
DWIDTH 25 0
BBX 23 31 7 0
BITMAP
7FFFFE
FFFFFE
FFFFFE
FFFFFC
FFFFFC
00FC00
01F800
01F800
01F800
01F800
03F000
03F000
03F000
03F000
07F000
07E000
07E000
07E000
0FE000
0FC000
0FC000
0FC000
1FC000
1F8000
1F8000
1F8000
3F8000
3F0000
3F0000
3F0000
3F0000
ENDCHAR
STARTCHAR 0055
ENCODING 85
SWIDTH 500 0
DWIDTH 25 0
BBX 26 32 3 -1
BITMAP
07F00FC0
07E01FC0
07E01F80
07E01F80
0FE01F80
0FC03F80
0FC03F00
0FC03F00
1FC03F00
1F807F00
1F807E00
1F807E00
1F807E00
3F00FE00
3F00FC00
3F00FC00
3F00FC00
7F00FC00
7E01F800
7E01F800
7E01F800
FE01F800
FE03F000
FE03F000
FE07F000
FE0FE000
7FFFE000
7FFFC000
3FFF8000
3FFF0000
0FFE0000
03E00000
ENDCHAR
STARTCHAR 0056
ENCODING 86
SWIDTH 500 0
DWIDTH 25 0
BBX 24 31 7 0
BITMAP
FC007F
FC007E
FC00FE
FC00FC
FC00FC
FC01F8
FC01F8
FC03F0
FC03F0
FC07F0
FC07E0
FC07E0
FC0FC0
FC0FC0
FC1F80
FC1F80
FC3F00
FC3F00
FC7E00
FC7E00
FCFC00
7CF800
7DF800
7DF000
7FF000
7FE000
7FE000
7FC000
7FC000
7F8000
7F0000
ENDCHAR
STARTCHAR 0057
ENCODING 87
SWIDTH 500 0
DWIDTH 25 0
BBX 28 31 2 0
BITMAP
03E001F0
07E003F0
07E003F0
07E003F0
07C003E0
07C003E0
0FC007E0
0FC007C0
0F8007C0
0F8007C0
0F800FC0
1F8F0F80
1F1F0F80
1F1F8F80
1F3F9F80
1F3F9F00
3E7F9F00
3E7F9F00
3EF79E00
3CF7BE00
3DE7BE00
7DE7BC00
7FC7BC00
7BC3FC00
7F83FC00
7F83F800
7F03F800
FE03F800
FE03F000
FC03F000
FC03F000
ENDCHAR
STARTCHAR 0058
ENCODING 88
SWIDTH 500 0
DWIDTH 25 0
BBX 30 31 0 0
BITMAP
00FC00FC
00FC01FC
00FE03F8
007E03F0
007E07E0
003F0FE0
003F1FC0
003F1F80
001FBF00
001FFE00
000FFE00
000FFC00
000FF800
0007F000
0007E000
000FF000
001FF000
003FF000
003FF800
007FF800
00FFF800
01FCFC00
01F8FC00
03F0FC00
07F0FC00
0FE07E00
0FC07E00
1FC07E00
3F807E00
7F007F00
FF003F00
ENDCHAR
STARTCHAR 0059
ENCODING 89
SWIDTH 500 0
DWIDTH 25 0
BBX 24 31 7 0
BITMAP
FC007F
FC00FE
FC00FC
7E01FC
7E01F8
7E03F8
7E07F0
7E07E0
3E0FE0
3F0FC0
3F1F80
3F3F00
3F3F00
1F7E00
1FFC00
1FFC00
1FF800
0FF000
0FE000
0FC000
0FC000
0FC000
0FC000
1FC000
1F8000
1F8000
1F8000
3F8000
3F0000
3F0000
3F0000
ENDCHAR
STARTCHAR 005A
ENCODING 90
SWIDTH 500 0
DWIDTH 25 0
BBX 26 31 2 0
BITMAP
01FFFFC0
01FFFFC0
01FFFFC0
03FFFFC0
03FFFF80
00003F80
00007F00
0000FE00
0001FC00
0001F800
0003F800
0007F000
000FE000
001FC000
003F8000
007F0000
007E0000
00FC0000
01FC0000
03F80000
07F00000
07E00000
0FC00000
1FC00000
3F800000
7F000000
7FFFF800
FFFFF800
FFFFF000
FFFFF000
FFFFF000
ENDCHAR
STARTCHAR 005B
ENCODING 91
SWIDTH 500 0
DWIDTH 25 0
BBX 24 43 5 -8
BITMAP
003FFF
007FFE
007FFE
007FFE
007FFE
007C00
00FC00
00FC00
00FC00
00F800
01F800
01F800
01F800
01F800
03F000
03F000
03F000
03F000
07E000
07E000
07E000
07E000
0FC000
0FC000
0FC000
0FC000
1F8000
1F8000
1F8000
1F8000
1F0000
3F0000
3F0000
3F0000
3E0000
7E0000
7E0000
7E0000
7FFC00
FFFC00
FFFC00
FFFC00
FFFC00
ENDCHAR
STARTCHAR 005C
ENCODING 92
SWIDTH 500 0
DWIDTH 25 0
BBX 10 43 10 -8
BITMAP
FC00
FC00
7C00
7C00
7E00
7E00
7E00
7E00
7E00
7E00
7E00
7E00
7E00
3E00
3F00
3F00
3F00
3F00
3F00
3F00
3F00
3F00
3F00
3F00
1F00
1F80
1F80
1F80
1F80
1F80
1F80
1F80
1F80
1F80
1F80
0F80
0FC0
0FC0
0FC0
0FC0
0FC0
0FC0
0FC0
ENDCHAR
STARTCHAR 005D
ENCODING 93
SWIDTH 500 0
DWIDTH 25 0
BBX 24 43 1 -8
BITMAP
003FFF
003FFF
003FFE
007FFE
007FFE
00007E
00007E
0000FC
0000FC
0000FC
0000FC
0001F8
0001F8
0001F8
0001F8
0003F0
0003F0
0003F0
0003F0
0007E0
0007E0
0007E0
0007E0
000FC0
000FC0
000FC0
000FC0
000F80
001F80
001F80
001F80
001F00
003F00
003F00
003F00
003F00
007E00
007E00
7FFE00
7FFE00
FFFC00
FFFC00
FFFC00
ENDCHAR
STARTCHAR 005E
ENCODING 94
SWIDTH 500 0
DWIDTH 25 0
BBX 23 18 4 13
BITMAP
000FC0
001FC0
003FC0
003FE0
007FE0
00FFE0
01FFF0
03FBF0
07F3F0
07E3F8
0FE1F8
1FC1F8
3F81FC
7F00FC
FE00FC
FC00FE
3C0078
080060
ENDCHAR
STARTCHAR 005F
ENCODING 95
SWIDTH 500 0
DWIDTH 25 0
BBX 24 5 -2 -8
BITMAP
7FFFFF
7FFFFF
7FFFFE
7FFFFE
FFFFFE
ENDCHAR
STARTCHAR 0060
ENCODING 96
SWIDTH 500 0
DWIDTH 25 0
BBX 11 9 12 26
BITMAP
3000
3C00
7E00
FF00
7FC0
3FE0
0FC0
0380
0080
ENDCHAR
STARTCHAR 0061
ENCODING 97
SWIDTH 500 0
DWIDTH 25 0
BBX 23 25 3 -1
BITMAP
001FE0
00FFFE
01FFFE
07FFFE
0FFFFE
1FF0FC
1FC0FC
3F80FC
3F01FC
7F01F8
7E01F8
7E01F8
FE03F8
FC03F0
FC03F0
FC03F0
FC03F0
FE07F0
FE0FF0
7FFFF0
7FFFF0
3FFFF0
3FFDF0
0FF1F8
018000
ENDCHAR
STARTCHAR 0062
ENCODING 98
SWIDTH 500 0
DWIDTH 25 0
BBX 23 36 2 -1
BITMAP
000400
00FC00
00FC00
01FC00
01F800
01F800
01F800
03F800
03F000
03F000
03F000
07F7E0
07FFF0
07FFF8
07FFFC
0FFFFC
0FF1FE
0FC0FE
0FC07E
0FC07E
1F807E
1F807E
1F807E
1F807E
3F80FE
3F00FC
3F00FC
3F01FC
7F03F8
7E07F8
7FFFF0
7FFFE0
FFFFC0
FFFF80
7FFE00
01C000
ENDCHAR
STARTCHAR 0063
ENCODING 99
SWIDTH 500 0
DWIDTH 25 0
BBX 22 25 4 -1
BITMAP
001FF0
00FFFC
03FFFC
07FFFC
0FFFF8
1FF838
3FC000
3F8000
7F0000
7E0000
FE0000
FC0000
FC0000
FC0000
FC0000
FC0000
FC0000
FE0000
FF0040
7FFFC0
7FFFE0
3FFFE0
1FFFE0
07FFC0
003800
ENDCHAR
STARTCHAR 0064
ENCODING 100
SWIDTH 500 0
DWIDTH 25 0
BBX 26 36 3 -1
BITMAP
00000040
00000FC0
00000FC0
00001F80
00001F80
00001F80
00001F80
00003F00
00003F00
00003F00
00003F00
000FFF00
007FFE00
01FFFE00
07FFFE00
0FFFFE00
1FF0FC00
1FC0FC00
3F80FC00
3F01FC00
7F01F800
7E01F800
7E01F800
FE03F800
FC03F000
FC03F000
FC03F000
FC03F000
FE07F000
FE0FF000
7FFFF000
7FFFF000
3FFFF000
3FFDF000
0FF1F800
01800000
ENDCHAR
STARTCHAR 0065
ENCODING 101
SWIDTH 500 0
DWIDTH 25 0
BBX 22 25 4 -1
BITMAP
003FC0
01FFF0
03FFF8
07FFF8
0FFFFC
1FC1FC
3F80FC
7F00FC
7E00FC
7C01F8
FC07F8
FFFFF0
FFFFE0
FFFFC0
FFFE00
FFC000
FC0000
FC0000
FE0000
7FEFC0
7FFFC0
3FFFC0
1FFFE0
07FF80
007000
ENDCHAR
STARTCHAR 0066
ENCODING 102
SWIDTH 500 0
DWIDTH 25 0
BBX 32 43 -2 -8
BITMAP
000000F0
00000FFF
00001FFE
00007FFE
00007FFC
0000FFFC
0000FC00
0001F800
0001F800
0001F800
0003F000
007FFFF8
007FFFF8
007FFFF0
007FFFF0
00FFFFF0
00FFFFF0
0007E000
0007E000
000FE000
000FE000
000FC000
000FC000
000FC000
001FC000
001FC000
001F8000
001F8000
001F8000
003F8000
003F8000
003F0000
003F0000
003F0000
007F0000
007E0000
00FE0000
21FE0000
3FFC0000
7FFC0000
7FF80000
7FF00000
FFC00000
ENDCHAR
STARTCHAR 0067
ENCODING 103
SWIDTH 500 0
DWIDTH 25 0
BBX 27 32 0 -8
BITMAP
0003FF00
000FFFE0
003FFFC0
007FFFC0
01FFFFC0
01FE0FC0
03F81F80
07F01F80
07E01F80
0FE01F80
0FC03F00
0FC03F00
0FC03F00
0FC03F00
0FC07F00
0FC07E00
0FE07E00
0FFFFE00
07FFFE00
07FFFC00
03FFFC00
01FEFC00
0001FC00
0001F800
0001F800
0003F800
380FF000
7FFFE000
7FFFE000
FFFFC000
FFFF0000
3FFC0000
ENDCHAR
STARTCHAR 0068
ENCODING 104
SWIDTH 500 0
DWIDTH 25 0
BBX 23 35 2 0
BITMAP
000600
00FC00
00FC00
00FC00
01FC00
01F800
01F800
01F800
01F800
03F000
03F000
03FFE0
03FFF8
07FFFC
07FFFC
07FFFE
07F1FE
0FE0FE
0FC0FE
0FC07E
0FC0FE
1FC0FC
1F80FC
1F80FC
1F80FC
3F81F8
3F01F8
3F01F8
3F01F8
3F03F0
7E03F0
7E03F0
7E03F0
7E07F0
FC07E0
ENDCHAR
STARTCHAR 0069
ENCODING 105
SWIDTH 500 0
DWIDTH 25 0
BBX 17 35 6 -1
BITMAP
007C00
00FC00
01FE00
01FE00
01FE00
01FC00
00F800
006000
000000
000000
7FF800
7FF800
FFF800
FFF800
FFF800
FFF000
03F000
03F000
07F000
07E000
07E000
07E000
0FE000
0FC000
0FC000
0FC000
0FC000
1FC000
0FC080
0FFF80
0FFF80
0FFF80
07FF80
03FF80
002000
ENDCHAR
STARTCHAR 006A
ENCODING 106
SWIDTH 500 0
DWIDTH 25 0
BBX 24 43 0 -9
BITMAP
00003E
00007F
0000FF
0000FF
0000FF
0000FE
00007E
000038
000000
000000
00FFFF
00FFFE
00FFFE
01FFFE
01FFFE
01FFFE
0000FC
0000FC
0000FC
0001FC
0001F8
0001F8
0001F8
0003F8
0003F0
0003F0
0003F0
0007F0
0007E0
0007E0
0007E0
000FE0
000FC0
000FC0
000FC0
001FC0
703F80
7FFF80
7FFF00
FFFE00
FFFC00
3FF800
018000
ENDCHAR
STARTCHAR 006B
ENCODING 107
SWIDTH 500 0
DWIDTH 25 0
BBX 25 35 3 0
BITMAP
00040000
00FC0000
00FC0000
01F80000
01F80000
01F80000
01F80000
03F00000
03F00000
03F00000
03F00000
07F03F80
07E07F00
07E07F00
07E0FE00
0FE1FC00
0FC3F800
0FC7F000
0FCFE000
1FFFC000
1FFF0000
1FFE0000
1FFC0000
3FFE0000
3F7F0000
3F3F0000
3F3F8000
7F1F8000
7E1FC000
7E0FC000
7E0FE000
7E07E000
FE07F000
FC03F000
FC03F800
ENDCHAR
STARTCHAR 006C
ENCODING 108
SWIDTH 500 0
DWIDTH 25 0
BBX 16 35 7 -1
BITMAP
7FFC
7FFC
7FF8
7FF8
FFF8
01F8
03F0
03F0
03F0
03F0
07F0
07E0
07E0
07E0
0FE0
0FC0
0FC0
0FC0
1FC0
1F80
1F80
1F80
3F80
3F00
3F00
3F00
3F00
3F00
3F02
3FFE
3FFF
3FFF
1FFF
0FFE
0080
ENDCHAR
STARTCHAR 006D
ENCODING 109
SWIDTH 500 0
DWIDTH 25 0
BBX 25 24 1 0
BITMAP
00381C00
03FF7F00
07FFFF80
07FFFF80
07FFFF80
0F8F8F80
0F8F8F80
0F8F8F80
0F8F8F80
0F8F8F80
1F1F1F80
1F1F1F00
1F1F1F00
1F1F1F00
3E1E1F00
3E003E00
3E003E00
3E003E00
7C003E00
7C007C00
7C007C00
7C007C00
F8007C00
F800F800
ENDCHAR
STARTCHAR 006E
ENCODING 110
SWIDTH 500 0
DWIDTH 25 0
BBX 23 24 2 0
BITMAP
003FE0
03FFF8
07FFFC
07FFFC
07FFFE
07F1FE
0FE0FE
0FC0FE
0FC07E
0FC0FE
1FC0FC
1F80FC
1F80FC
1F80FC
3F81F8
3F01F8
3F01F8
3F01F8
3F03F0
7E03F0
7E03F0
7E03F0
7E07E0
FC07E0
ENDCHAR
STARTCHAR 006F
ENCODING 111
SWIDTH 500 0
DWIDTH 25 0
BBX 22 25 3 -1
BITMAP
003FC0
00FFE0
03FFF0
07FFF8
0FFFFC
1FE3FC
1FC1FC
3F80FC
3F00FC
7E00FC
7E00FC
7E00FC
7E00FC
FC00FC
FC01F8
FC01F8
FE03F8
FE07F0
7E0FF0
7FFFE0
7FFFC0
3FFF80
3FFF00
0FFC00
03C000
ENDCHAR
STARTCHAR 0070
ENCODING 112
SWIDTH 500 0
DWIDTH 25 0
BBX 25 32 0 -8
BITMAP
001FF000
00FFFC00
01FFFE00
01FFFF00
01FFFF80
03F83F80
03F01F80
03F01F80
03F01F80
07F01F80
07E01F80
07E01F80
07E01F80
0FE03F80
0FC03F00
0FC07F00
0FC07F00
1FC0FE00
1F83FE00
1FFFFC00
1FFFF800
3FFFF000
3FFFC000
3FFF0000
3F600000
3F000000
7E000000
7E000000
7E000000
7E000000
FC000000
FC000000
ENDCHAR
STARTCHAR 0071
ENCODING 113
SWIDTH 500 0
DWIDTH 25 0
BBX 22 32 4 -8
BITMAP
003FE0
00FFFC
03FFFC
07FFFC
0FFFFC
1FE0FC
3F81FC
3F01F8
7F01F8
7E01F8
FC03F8
FC03F0
FC03F0
FC03F0
FC07F0
FC07E0
FC07E0
FC07E0
FE0FE0
FFFFC0
FFFFC0
7FFFC0
3FFFC0
1FFF80
001F80
001F80
003F80
003F00
003F00
003F00
003F00
007E00
ENDCHAR
STARTCHAR 0072
ENCODING 114
SWIDTH 500 0
DWIDTH 25 0
BBX 23 24 4 0
BITMAP
003FF8
03FFFE
07FFFC
0FFFFC
0FFFF8
0FFFF8
0FC000
1FC000
1F8000
1F8000
1F8000
3F8000
3F0000
3F0000
3F0000
7F0000
7E0000
7E0000
7E0000
7E0000
FC0000
FC0000
FC0000
FC0000
ENDCHAR
STARTCHAR 0073
ENCODING 115
SWIDTH 500 0
DWIDTH 25 0
BBX 22 25 3 -1
BITMAP
003FF0
01FFFC
03FFFC
07FFF8
07FFF8
0FE030
0FC000
0FC000
0FE000
0FF000
0FFE00
07FF80
03FFC0
00FFE0
003FE0
000FF0
0007F0
0007F0
7007E0
7FFFE0
FFFFE0
FFFFC0
FFFF80
3FFE00
01E000
ENDCHAR
STARTCHAR 0074
ENCODING 116
SWIDTH 500 0
DWIDTH 25 0
BBX 21 31 6 -1
BITMAP
01F800
01F800
03F800
03F000
03F000
03F000
7FFFF8
FFFFF0
FFFFF0
FFFFF0
FFFFF0
FFFFE0
0FC000
0FC000
1FC000
1F8000
1F8000
1F8000
1F8000
3F0000
3F0000
3F0000
3F0000
3F0000
3F8180
3FFF80
3FFF80
1FFF80
1FFF80
07FF00
004000
ENDCHAR
STARTCHAR 0075
ENCODING 117
SWIDTH 500 0
DWIDTH 25 0
BBX 22 24 4 -1
BITMAP
1F80FC
1F80FC
1F80FC
1F81FC
3F81F8
3F01F8
3F01F8
3F03F8
7F03F0
7E03F0
7E03F0
7E07F0
FE07E0
FC07E0
FC07E0
FC0FE0
FC0FE0
FC0FC0
FE1FC0
FFFFE0
FFFFE0
7FFFE0
7FFFE0
3FE3F0
ENDCHAR
STARTCHAR 0076
ENCODING 118
SWIDTH 500 0
DWIDTH 25 0
BBX 23 24 5 0
BITMAP
FE00FE
FE00FC
FE01FC
FE01FC
7E01F8
7E03F8
7E03F0
7E07F0
7E07E0
7E0FE0
7E0FC0
7E1FC0
7E1F80
3F3F00
3F3F00
3F7E00
3FFE00
3FFC00
3FF800
1FF800
1FF000
1FE000
1FC000
0FC000
ENDCHAR
STARTCHAR 0077
ENCODING 119
SWIDTH 500 0
DWIDTH 25 0
BBX 26 24 3 0
BITMAP
3E000FC0
3E000FC0
3E000F80
3E000F80
7E001F80
7C1E1F00
7C3E1F00
7C3E1F00
7C7E3E00
7C7E3E00
7CFE3E00
78FE3C00
79FE7C00
79EE7800
7BEE7800
FBCEF800
FFCEF000
FF8FF000
FF0FF000
FF0FE000
FE0FE000
FE0FC000
FC0FC000
F80F8000
ENDCHAR
STARTCHAR 0078
ENCODING 120
SWIDTH 500 0
DWIDTH 25 0
BBX 27 24 1 0
BITMAP
0FE00FE0
07E01FC0
07F01F80
03F03F00
03F87F00
01F8FE00
01FCFC00
00FDF800
00FFF000
007FE000
007FE000
003FC000
003F8000
007FC000
00FFC000
01FFE000
03FFE000
07F7F000
0FE3F000
0FC3F800
1F81F800
3F01FC00
7F00FC00
FE00FC00
ENDCHAR
STARTCHAR 0079
ENCODING 121
SWIDTH 500 0
DWIDTH 25 0
BBX 29 32 -2 -8
BITMAP
00FC01F8
00FC01F8
00FC03F8
00FC03F0
00FC03F0
00FC07F0
00FC07E0
00FC0FE0
00FE0FC0
00FE0FC0
007E1F80
007E1F80
007E3F00
007E3F00
007E7E00
007E7E00
003FFC00
003FFC00
003FF800
003FF000
003FF000
001FE000
001FC000
001FC000
003F8000
007F0000
00FE0000
7FFC0000
7FF80000
7FF00000
FFE00000
FF800000
ENDCHAR
STARTCHAR 007A
ENCODING 122
SWIDTH 500 0
DWIDTH 25 0
BBX 24 24 3 0
BITMAP
07FFFF
07FFFE
07FFFE
07FFFE
0FFFFE
0FFFFC
0007F8
000FF0
001FE0
003FC0
007F80
00FE00
01FE00
03F800
07F000
0FE000
0FC000
1F8000
3F8000
7FFFE0
FFFFE0
FFFFE0
FFFFE0
FFFFC0
ENDCHAR
STARTCHAR 007B
ENCODING 123
SWIDTH 500 0
DWIDTH 25 0
BBX 24 43 5 -8
BITMAP
0001FF
0007FF
000FFE
001FFE
001FFE
003F00
003F00
003E00
007E00
007E00
007C00
007C00
00FC00
00FC00
00FC00
00F800
01F800
01F800
03F000
7FE000
7FC000
7F0000
FF8000
FFC000
0FC000
07C000
07C000
07C000
0FC000
0FC000
0FC000
0F8000
0F8000
1F8000
1F8000
1F8000
1F0000
1F8000
1FFE00
1FFE00
1FFE00
0FFE00
07FC00
ENDCHAR
STARTCHAR 007C
ENCODING 124
SWIDTH 500 0
DWIDTH 25 0
BBX 17 43 6 -8
BITMAP
001F80
003F00
003F00
003F00
003F00
007F00
007E00
007E00
007E00
00FE00
00FC00
00FC00
00FC00
01FC00
01F800
01F800
01F800
03F800
03F000
03F000
03F000
07F000
07E000
07E000
07E000
07E000
0FC000
0FC000
0FC000
0FC000
1FC000
1F8000
1F8000
1F8000
3F8000
3F0000
3F0000
3F0000
7F0000
7E0000
7E0000
7E0000
FE0000
ENDCHAR
STARTCHAR 007D
ENCODING 125
SWIDTH 500 0
DWIDTH 25 0
BBX 24 43 0 -8
BITMAP
003FC0
003FF0
007FF8
007FF8
007FF8
0001F8
0000F8
0000F8
0001F8
0001F8
0001F8
0001F0
0001F0
0003F0
0003F0
0003E0
0003E0
0003E0
0003F0
0003FF
0001FF
0000FF
0003FE
0007FE
000FE0
000FC0
001F80
001F80
001F00
003F00
003F00
003F00
003E00
007E00
007E00
007E00
007C00
00FC00
7FFC00
7FF800
7FF800
7FF000
FFC000
ENDCHAR
STARTCHAR 007E
ENCODING 126
SWIDTH 500 0
DWIDTH 25 0
BBX 23 9 3 9
BITMAP
03C010
0FF01E
1FF83E
3FFF7E
7FFFFC
7FFFFC
F87FF8
F83FF0
700FE0
ENDCHAR
STARTCHAR 00A0
ENCODING 160
SWIDTH 500 0
DWIDTH 25 0
BBX 0 0 0 0
BITMAP
ENDCHAR
STARTCHAR 00A1
ENCODING 161
SWIDTH 500 0
DWIDTH 25 0
BBX 14 31 6 -7
BITMAP
00F8
01FC
03FC
03FC
03FC
03FC
01F8
00F0
0000
0000
0000
03E0
03E0
07E0
07E0
0FE0
0FE0
0FC0
1FC0
1FC0
1FC0
1FC0
3F80
3F80
3F80
3F80
7F80
7F00
7F00
7F00
FF00
ENDCHAR
STARTCHAR 00A2
ENCODING 162
SWIDTH 500 0
DWIDTH 25 0
BBX 23 36 4 -5
BITMAP
0003F0
0003F0
0007F0
0007E0
0007E0
0007E0
000FE0
007FFC
01FFFE
07FFFC
0FFFFC
1FFFF8
1FE008
3F8000
7F0000
7F0000
7E0000
7E0000
FE0000
FE0000
FE0000
FE0000
7F0000
7F8060
7FFFE0
3FFFE0
3FFFE0
1FFFE0
07FFC0
01FC00
01F800
03F800
03F000
03F000
03F000
03F000
ENDCHAR
STARTCHAR 00A3
ENCODING 163
SWIDTH 500 0
DWIDTH 25 0
BBX 25 32 4 0
BITMAP
00006000
0007FF00
001FFF80
003FFF00
007FFF00
00FFFE00
00FE0200
01FC0000
01F80000
01F80000
03F80000
03F00000
03F00000
03F00000
7FF00000
7FFFE000
7FFFE000
7FFFE000
FFFFC000
FFFFC000
0FC00000
0FC00000
1F800000
1F800000
1F800000
3F000000
3F000000
3FFFF000
7FFFF000
7FFFF000
FFFFE000
FFFFE000
ENDCHAR
STARTCHAR 00A4
ENCODING 164
SWIDTH 500 0
DWIDTH 25 0
BBX 23 22 4 4
BITMAP
100020
380070
7C00F8
FFFFFC
FFFFFE
7FFFFC
3FFFF8
1FEFF0
3F83F0
3F01F0
3F01F0
3E01F8
3F01F0
3F01F0
3F83F0
1FFFF0
3FFFF8
7FFFFC
FFFFFE
7FFFFC
3C0078
180030
ENDCHAR
STARTCHAR 00A5
ENCODING 165
SWIDTH 500 0
DWIDTH 25 0
BBX 28 31 3 0
BITMAP
0FC007F0
0FC007E0
0FC00FC0
0FE01FC0
07E01F80
07E03F00
07E07F00
03F07E00
03F0FC00
03F1F800
01FBF800
01FBF000
01FFE000
00FFC000
00FFC000
1FFFFC00
3FFFFC00
3FFFFC00
3FFFF800
00FE0000
00FC0000
00FC0000
7FFFF000
7FFFF000
FFFFF000
FFFFF000
03F80000
03F80000
03F00000
03F00000
07F00000
ENDCHAR
STARTCHAR 00A6
ENCODING 166
SWIDTH 500 0
DWIDTH 25 0
BBX 16 43 7 -8
BITMAP
003F
003F
007E
007E
007E
007E
00FE
00FC
00FC
00FC
01FC
01F8
01F8
01F8
03F8
03F0
03F0
03F0
0000
0000
0000
0000
0000
0000
0000
0000
0FC0
1F80
1F80
1F80
1F80
3F80
3F00
3F00
3F00
7F00
7E00
7E00
7E00
FE00
FC00
FC00
FC00
ENDCHAR
STARTCHAR 00A7
ENCODING 167
SWIDTH 500 0
DWIDTH 25 0
BBX 25 37 2 -5
BITMAP
0001E000
000FFF00
003FFF80
007FFF00
00FFFF00
00FE0E00
01F80000
01F80000
01F80000
01FC0000
00FF0000
00FFC000
01FFF000
03FFF800
07E3FC00
0FC1FC00
0F80FC00
1F807C00
1F807C00
1F807C00
1FC0FC00
1FE1F800
0FFBF000
07FFE000
03FFC000
00FF8000
003FC000
000FC000
000FC000
000FC000
000FC000
701FC000
7FFF8000
FFFF8000
FFFF0000
FFFC0000
0FE00000
ENDCHAR
STARTCHAR 00A8
ENCODING 168
SWIDTH 500 0
DWIDTH 25 0
BBX 17 7 10 27
BITMAP
180600
7C1F00
7E1F80
FE3F80
FE3F80
7C1F00
781E00
ENDCHAR
STARTCHAR 00A9
ENCODING 169
SWIDTH 500 0
DWIDTH 25 0
BBX 23 25 3 -1
BITMAP
007C00
03FF80
0FFFC0
1FCFE0
1F01F0
3C0078
783C78
78FE3C
71FC1C
F1C01C
F3C01E
E3801E
E3801E
E3801E
F3C01E
F1E01C
71FE1C
78FE3C
783C78
3C00F8
1F01F0
0FFFE0
07FFC0
03FF80
003800
ENDCHAR
STARTCHAR 00AA
ENCODING 170
SWIDTH 500 0
DWIDTH 25 0
BBX 18 18 8 14
BITMAP
001800
03FFC0
07FF80
1FFF80
3FFF80
3F0F80
7C1F00
7C1F00
F81F00
F81F00
F83E00
F83E00
F83E00
FC7E00
7FFE00
7FFE00
3FFF00
1FDF00
ENDCHAR
STARTCHAR 00AB
ENCODING 171
SWIDTH 500 0
DWIDTH 25 0
BBX 21 21 5 2
BITMAP
008020
01C070
03E0F8
07C1F0
0F83E0
1F87E0
3F0FC0
3E0F80
7C1F00
FC3F00
F83E00
F83E00
7C1F00
7C1F00
7C1F00
3E0F80
3E0F80
1E0780
1F07C0
0E0380
080200
ENDCHAR
STARTCHAR 00AC
ENCODING 172
SWIDTH 500 0
DWIDTH 25 0
BBX 21 16 5 2
BITMAP
FFFFF8
FFFFF0
FFFFF0
FFFFF0
FFFFF0
0003E0
0003E0
0003E0
0007E0
0007E0
0007C0
0007C0
0007C0
000FC0
000F80
000F80
ENDCHAR
STARTCHAR 00AD
ENCODING 173
SWIDTH 500 0
DWIDTH 25 0
BBX 15 6 7 10
BITMAP
7FFE
7FFE
7FFE
7FFC
FFFC
FFFC
ENDCHAR
STARTCHAR 00AE
ENCODING 174
SWIDTH 500 0
DWIDTH 25 0
BBX 23 25 3 -1
BITMAP
007C00
03FF80
0FFFC0
1FCFE0
1F01F0
3C0078
78F878
79FE3C
71FF1C
F1C71C
F1C71E
E1C71E
E1FF1E
E1FE1E
F1FC1E
F1CE1C
71C71C
79C73C
79C3F8
3C00F8
1F01F0
0FFFE0
07FFC0
03FF80
003800
ENDCHAR
STARTCHAR 00AF
ENCODING 175
SWIDTH 500 0
DWIDTH 25 0
BBX 15 4 11 28
BITMAP
7FFE
FFFE
FFFC
FFFC
ENDCHAR
STARTCHAR 00B0
ENCODING 176
SWIDTH 500 0
DWIDTH 25 0
BBX 15 14 10 21
BITMAP
07C0
1FF0
3FF8
7FFC
7C7C
F83C
F83E
F83E
F83C
7C7C
7FFC
3FF8
1FF0
0FC0
ENDCHAR
STARTCHAR 00B1
ENCODING 177
SWIDTH 500 0
DWIDTH 25 0
BBX 26 28 1 0
BITMAP
0003F000
0003F000
0003E000
0003E000
0003E000
0007E000
0007C000
0007C000
07FFFFC0
07FFFFC0
0FFFFF80
0FFFFF80
0FFFFF80
001F8000
001F0000
001F0000
001F0000
003F0000
003F0000
003E0000
003E0000
00000000
00000000
7FFFFC00
7FFFFC00
7FFFFC00
FFFFF800
FFFFF800
ENDCHAR
STARTCHAR 00B2
ENCODING 178
SWIDTH 500 0
DWIDTH 25 0
BBX 15 19 9 13
BITMAP
01C0
0FF8
1FFC
3FFC
1FFE
183E
003C
007C
00FC
03F8
0FF0
1FC0
3F80
7E00
7FFC
FFF8
FFF8
FFF8
FFF8
ENDCHAR
STARTCHAR 00B3
ENCODING 179
SWIDTH 500 0
DWIDTH 25 0
BBX 16 19 8 13
BITMAP
00F0
07FC
0FFE
0FFF
073F
001F
001E
003E
03FC
03F8
03FC
007E
003E
003E
307E
7FFC
7FF8
FFF0
1FC0
ENDCHAR
STARTCHAR 00B4
ENCODING 180
SWIDTH 500 0
DWIDTH 25 0
BBX 10 8 14 26
BITMAP
0300
0780
0FC0
3FC0
7FC0
FF00
7C00
7000
ENDCHAR
STARTCHAR 00B5
ENCODING 181
SWIDTH 500 0
DWIDTH 25 0
BBX 26 32 0 -8
BITMAP
00FC0FC0
01FC0FC0
01F80FC0
01F80FC0
01F81F80
03F81F80
03F01F80
03F01F80
03F03F00
07F03F00
07E03F00
07E03F00
07E07E00
07E07E00
0FC07E00
0FC07E00
0FC07E00
0FC07E00
1FE1FE00
1FFFFF00
1FFFFF00
1FFFFF00
3FFFBE00
3FFF1E00
3F100200
3F000000
7E000000
7E000000
7E000000
7E000000
FC000000
FC000000
ENDCHAR
STARTCHAR 00B6
ENCODING 182
SWIDTH 500 0
DWIDTH 25 0
BBX 24 39 5 -8
BITMAP
007FFE
01FFFF
07FFFF
0FFFFE
1FFFFE
3FFC3E
7FFC3E
7FF87C
FFF87C
FFF87C
FFF87C
FFF0FC
FFF0F8
FFF0F8
FFF0F8
FFE1F8
7FE1F0
3FE1F0
1FE1F0
07E1F0
07C3E0
07C3E0
07C3E0
07C3E0
0F87C0
0F87C0
0F87C0
0F87C0
1F0F80
1F0F80
1F0F80
1F0F80
3E1F00
3E1F00
3E1F00
3E1F00
7C3F00
7C3E00
7C3E00
ENDCHAR
STARTCHAR 00B7
ENCODING 183
SWIDTH 500 0
DWIDTH 25 0
BBX 9 9 10 9
BITMAP
0C00
3F00
7F80
FF80
FF80
FF80
FF00
7F00
7E00
ENDCHAR
STARTCHAR 00B8
ENCODING 184
SWIDTH 500 0
DWIDTH 25 0
BBX 11 10 6 -9
BITMAP
03C0
0780
0F80
07C0
03E0
03E0
7FE0
7FC0
FF80
0800
ENDCHAR
STARTCHAR 00B9
ENCODING 185
SWIDTH 500 0
DWIDTH 25 0
BBX 15 18 8 13
BITMAP
007C
01F8
07F8
3FF8
1FF8
1FF8
19F0
01F0
01F0
03F0
03E0
03E0
03E0
7FFE
7FFC
FFFC
FFFC
FFFC
ENDCHAR
STARTCHAR 00BA
ENCODING 186
SWIDTH 500 0
DWIDTH 25 0
BBX 17 18 9 14
BITMAP
00E000
07FC00
0FFE00
1FFF00
3F3F00
7E0F80
7C0F80
F80F80
F80F00
F80F00
F01F00
F01F00
F03E00
F87E00
FFFC00
FFF800
7FF000
3FE000
ENDCHAR
STARTCHAR 00BB
ENCODING 187
SWIDTH 500 0
DWIDTH 25 0
BBX 22 21 3 2
BITMAP
020080
0F03C0
0F03C0
0F83E0
0781E0
07C1F0
07C1F0
03E0F8
03E0F8
03F0FC
03F0FC
07E1F8
07C1F0
0F83E0
1F87E0
3F0FC0
3E0F80
7C1F00
F83E00
300C00
100400
ENDCHAR
STARTCHAR 00BC
ENCODING 188
SWIDTH 500 0
DWIDTH 25 0
BBX 27 31 1 0
BITMAP
003C03E0
00FC03E0
03F807C0
07F80F80
07F81F00
06F81F00
00F03E00
00F07C00
00F0F800
01F0F800
01E1F000
01E3E000
0007C000
0007C000
000F8000
001F0000
001E0000
003E0000
007C1F00
00F83F00
00F07E00
01F0FE00
03E1FE00
07C3DE00
07839E00
0F871C00
1F0FFF00
3E0FFF00
3C0FFE00
7C003800
F8007800
ENDCHAR
STARTCHAR 00BD
ENCODING 189
SWIDTH 500 0
DWIDTH 25 0
BBX 27 31 1 0
BITMAP
003C03E0
00FC03E0
03F807C0
07F80F80
07F81F00
06F81F00
00F03E00
00F07C00
00F0F800
01F0F800
01E1F000
01E3E000
0007C000
0007C000
000F8000
001F0000
003E0000
003C0000
007C7C00
00F9FE00
01F3FF00
01E1FF00
03E10F00
07C00F00
0F803E00
0F00FC00
1F01F000
3E03C000
7C07FE00
7807FE00
F80FFE00
ENDCHAR
STARTCHAR 00BE
ENCODING 190
SWIDTH 500 0
DWIDTH 25 0
BBX 27 32 2 0
BITMAP
00600000
07FC03E0
07FC03E0
077C07C0
003C0F80
03F81F00
03F01F00
03F83E00
007C7C00
007CF800
1FF8F800
1FF9F000
3FF3E000
0387C000
0007C000
000F8000
001F0000
003E0000
003E0000
007C3E00
00F87E00
01F0FC00
01F1FC00
03E3FC00
07C7BC00
0F873C00
0F8E3800
1F1FFE00
3E1FFE00
7C1FFC00
7C007000
F800F000
ENDCHAR
STARTCHAR 00BF
ENCODING 191
SWIDTH 500 0
DWIDTH 25 0
BBX 19 32 3 -8
BITMAP
000FC0
001FC0
001FC0
003FE0
003FC0
001FC0
001F80
000F00
000000
000000
000000
003F00
003F00
007E00
00FE00
01FC00
03F800
0FF000
1FE000
3FC000
7F0000
FE0000
FE0000
FC0000
FC0000
FE0700
FFFF00
FFFF00
FFFF00
7FFF00
1FFC00
010000
ENDCHAR
STARTCHAR 00C0
ENCODING 192
SWIDTH 500 0
DWIDTH 25 0
BBX 24 41 0 1
BITMAP
0000C0
0001E0
0001F8
0003FC
0003FE
0000FF
00003F
00000E
000000
000000
0001FC
0001FC
0003FC
0003FE
0007FE
000FFE
000FBE
001FBE
001F3E
003F3E
003E3E
007E3E
007C3E
00FC3E
00F83E
01F83E
01F03E
03F03F
03E03F
07FFFF
07FFFF
0FFFFF
0FFFFF
1FFFFF
1F803F
3F003F
3F003F
7E003F
7E003F
FE003F
FC003F
ENDCHAR
STARTCHAR 00C1
ENCODING 193
SWIDTH 500 0
DWIDTH 25 0
BBX 26 41 0 1
BITMAP
00000300
00000780
00001F80
00003FC0
00007FC0
0000FF00
0000FC00
00007000
00000000
00000000
0001FC00
0001FC00
0003FC00
0003FE00
0007FE00
000FFE00
000FBE00
001FBE00
001F3E00
003F3E00
003E3E00
007E3E00
007C3E00
00FC3E00
00F83E00
01F83E00
01F03E00
03F03F00
03E03F00
07FFFF00
07FFFF00
0FFFFF00
0FFFFF00
1FFFFF00
1F803F00
3F003F00
3F003F00
7E003F00
7E003F00
FE003F00
FC003F00
ENDCHAR
STARTCHAR 00C2
ENCODING 194
SWIDTH 500 0
DWIDTH 25 0
BBX 26 41 0 1
BITMAP
00000C00
00001E00
00007F00
0000FF80
0001FF80
0003F7C0
0003C3C0
00018180
00000000
00000000
0001FC00
0001FC00
0003FC00
0003FE00
0007FE00
000FFE00
000FBE00
001FBE00
001F3E00
003F3E00
003E3E00
007E3E00
007C3E00
00FC3E00
00F83E00
01F83E00
01F03E00
03F03F00
03E03F00
07FFFF00
07FFFF00
0FFFFF00
0FFFFF00
1FFFFF00
1F803F00
3F003F00
3F003F00
7E003F00
7E003F00
FE003F00
FC003F00
ENDCHAR
STARTCHAR 00C3
ENCODING 195
SWIDTH 500 0
DWIDTH 25 0
BBX 28 40 0 1
BITMAP
0001F8E0
0007FFF0
0007FFE0
000FFFE0
000FBFC0
00020F00
00000000
00000000
00000000
0001FC00
0001FC00
0003FC00
0003FE00
0007FE00
000FFE00
000FBE00
001FBE00
001F3E00
003F3E00
003E3E00
007E3E00
007C3E00
00FC3E00
00F83E00
01F83E00
01F03E00
03F03F00
03E03F00
07FFFF00
07FFFF00
0FFFFF00
0FFFFF00
1FFFFF00
1F803F00
3F003F00
3F003F00
7E003F00
7E003F00
FE003F00
FC003F00
ENDCHAR
STARTCHAR 00C4
ENCODING 196
SWIDTH 500 0
DWIDTH 25 0
BBX 29 41 0 0
BITMAP
00010060
0007C1F0
000FE3F8
000FE3F8
000FE3F0
000FC3F0
000781E0
00000000
00000000
00000000
0001FC00
0001FC00
0003FC00
0003FE00
0007FE00
000FFE00
000FBE00
001FBE00
001F3E00
003F3E00
003E3E00
007E3E00
007C3E00
00FC3E00
00F83E00
01F83E00
01F03E00
03F03F00
03E03F00
07FFFF00
07FFFF00
0FFFFF00
0FFFFF00
1FFFFF00
1F803F00
3F003F00
3F003F00
7E003F00
7E003F00
FE003F00
FC003F00
ENDCHAR
STARTCHAR 00C5
ENCODING 197
SWIDTH 500 0
DWIDTH 25 0
BBX 24 39 0 0
BITMAP
0000FC
0001FE
0003FF
0003C7
000387
000387
0003CF
0001FF
0001FE
0001FC
0003FC
0003FC
0007FE
000FFE
000FBE
001FBE
001F3E
003F3E
003E3E
007E3E
007C3E
00FC3E
00F83E
01F83E
01F03E
03F03F
03E03F
07FFFF
07FFFF
0FFFFF
0FFFFF
1FFFFF
1F803F
3F003F
3F003F
7E003F
7E003F
FE003F
FC003F
ENDCHAR
STARTCHAR 00C6
ENCODING 198
SWIDTH 500 0
DWIDTH 25 0
BBX 30 31 0 0
BITMAP
0000FFFC
0001FFFC
0003FFFC
0003FFF8
0007FFF8
0007FE00
000FBE00
001F7E00
001F7E00
003E7C00
003E7C00
007CFC00
007CFFC0
00F8FFC0
00F8FFC0
01F0FF80
03F1FF80
03E1F000
07E1F000
07FFF000
0FFFF000
0FFFF000
1FFFE000
1FFFE000
3F07E000
3F07E000
3E07FF80
7E07FF00
7E0FFF00
FC0FFF00
FC0FFF00
ENDCHAR
STARTCHAR 00C7
ENCODING 199
SWIDTH 500 0
DWIDTH 25 0
BBX 24 41 4 -9
BITMAP
0000C0
001FFC
007FFF
00FFFF
01FFFF
03FFFE
07F80E
0FF000
0FE000
1FC000
1F8000
3F8000
3F0000
3F0000
7F0000
7E0000
7E0000
7E0000
7E0000
FE0000
FE0000
FE0000
FE0000
FE0000
7E0000
7F0000
7F80C0
7FFFE0
3FFFE0
1FFFE0
0FFFE0
07FF80
01F000
01E000
01F800
00F800
00F800
1FF800
1FF000
1FE000
020000
ENDCHAR
STARTCHAR 00C8
ENCODING 200
SWIDTH 500 0
DWIDTH 25 0
BBX 25 41 3 1
BITMAP
00030000
00078000
000FC000
000FF000
000FF800
0003FC00
0000F800
00003800
00001000
00000000
01FFFF80
01FFFF80
03FFFF80
03FFFF80
03FFFF00
03F00000
07F00000
07E00000
07E00000
07E00000
07E00000
0FC00000
0FFFF800
0FFFF800
0FFFF000
1FFFF000
1FFFF000
1F800000
1F800000
3F800000
3F000000
3F000000
3F000000
7F000000
7E000000
7E000000
7FFFF000
FFFFF000
FFFFF000
FFFFE000
FFFFE000
ENDCHAR
STARTCHAR 00C9
ENCODING 201
SWIDTH 500 0
DWIDTH 25 0
BBX 25 41 3 1
BITMAP
00001800
00003C00
0000FC00
0001FE00
0003FE00
0007F800
0007E000
00038000
00000000
00000000
01FFFF80
01FFFF80
03FFFF80
03FFFF80
03FFFF00
03F00000
07F00000
07E00000
07E00000
07E00000
07E00000
0FC00000
0FFFF800
0FFFF800
0FFFF000
1FFFF000
1FFFF000
1F800000
1F800000
3F800000
3F000000
3F000000
3F000000
7F000000
7E000000
7E000000
7FFFF000
FFFFF000
FFFFF000
FFFFE000
FFFFE000
ENDCHAR
STARTCHAR 00CA
ENCODING 202
SWIDTH 500 0
DWIDTH 25 0
BBX 25 41 3 1
BITMAP
00006000
0000F000
0001F800
0007FC00
000FFE00
001FBE00
001F1F00
000C0E00
00000000
00000000
01FFFF80
01FFFF80
03FFFF80
03FFFF80
03FFFF00
03F00000
07F00000
07E00000
07E00000
07E00000
07E00000
0FC00000
0FFFF800
0FFFF800
0FFFF000
1FFFF000
1FFFF000
1F800000
1F800000
3F800000
3F000000
3F000000
3F000000
7F000000
7E000000
7E000000
7FFFF000
FFFFF000
FFFFF000
FFFFE000
FFFFE000
ENDCHAR
STARTCHAR 00CB
ENCODING 203
SWIDTH 500 0
DWIDTH 25 0
BBX 26 41 3 0
BITMAP
00080200
003E0F80
003F1FC0
007F1FC0
007F1FC0
007E1F80
003C0F00
00000000
00000000
00000000
01FFFF80
01FFFF80
03FFFF80
03FFFF80
03FFFF00
03F00000
07F00000
07E00000
07E00000
07E00000
07E00000
0FC00000
0FFFF800
0FFFF800
0FFFF000
1FFFF000
1FFFF000
1F800000
1F800000
3F800000
3F000000
3F000000
3F000000
7F000000
7E000000
7E000000
7FFFF000
FFFFF000
FFFFF000
FFFFE000
FFFFE000
ENDCHAR
STARTCHAR 00CC
ENCODING 204
SWIDTH 500 0
DWIDTH 25 0
BBX 27 41 2 1
BITMAP
00030000
00078000
0007E000
000FF000
000FF800
0003FE00
0000FC00
00003800
00000800
00000000
01FFFFE0
01FFFFC0
01FFFFC0
03FFFFC0
03FFFFC0
0007E000
000FE000
000FC000
000FC000
000FC000
001FC000
001F8000
001F8000
001F8000
003F8000
003F0000
003F0000
003F0000
003F0000
007E0000
007E0000
007E0000
007E0000
00FE0000
00FC0000
00FC0000
7FFFF000
7FFFF000
FFFFF000
FFFFF000
FFFFF000
ENDCHAR
STARTCHAR 00CD
ENCODING 205
SWIDTH 500 0
DWIDTH 25 0
BBX 27 42 2 0
BITMAP
00000400
00000C00
00001E00
00007E00
0000FF00
0001FF00
0003FC00
0003F000
0001C000
00000000
00000000
01FFFFE0
01FFFFC0
01FFFFC0
03FFFFC0
03FFFFC0
0007E000
000FE000
000FC000
000FC000
000FC000
001FC000
001F8000
001F8000
001F8000
003F8000
003F0000
003F0000
003F0000
003F0000
007E0000
007E0000
007E0000
007E0000
00FE0000
00FC0000
00FC0000
7FFFF000
7FFFF000
FFFFF000
FFFFF000
FFFFF000
ENDCHAR
STARTCHAR 00CE
ENCODING 206
SWIDTH 500 0
DWIDTH 25 0
BBX 27 41 2 1
BITMAP
00003000
00007800
0000FC00
0003FE00
0007FE00
000FDF00
000F0F80
00060600
00000000
00000000
01FFFFE0
01FFFFC0
01FFFFC0
03FFFFC0
03FFFFC0
0007E000
000FE000
000FC000
000FC000
000FC000
001FC000
001F8000
001F8000
001F8000
003F8000
003F0000
003F0000
003F0000
003F0000
007E0000
007E0000
007E0000
007E0000
00FE0000
00FC0000
00FC0000
7FFFF000
7FFFF000
FFFFF000
FFFFF000
FFFFF000
ENDCHAR
STARTCHAR 00CF
ENCODING 207
SWIDTH 500 0
DWIDTH 25 0
BBX 27 41 2 0
BITMAP
00040100
001F07C0
001F8FE0
003F8FE0
003F8FE0
003F0FC0
001E0780
00000000
00000000
00000000
01FFFFE0
01FFFFC0
01FFFFC0
03FFFFC0
03FFFFC0
0007E000
000FE000
000FC000
000FC000
000FC000
001FC000
001F8000
001F8000
001F8000
003F8000
003F0000
003F0000
003F0000
003F0000
007E0000
007E0000
007E0000
007E0000
00FE0000
00FC0000
00FC0000
7FFFF000
7FFFF000
FFFFF000
FFFFF000
FFFFF000
ENDCHAR
STARTCHAR 00D0
ENCODING 208
SWIDTH 500 0
DWIDTH 25 0
BBX 23 31 3 0
BITMAP
01FFC0
03FFE0
03FFF8
03FFF8
03FFFC
03F1FE
07E0FE
07E07E
07E07E
07E07E
0FC07E
0FC07E
7FF87E
7FF87E
FFF87E
FFF07E
FFF07E
FFF0FE
3F00FC
3F00FC
3F01FC
3F01F8
7F03F8
7E07F0
7E0FF0
7E1FE0
FFFFC0
FFFF80
FFFF00
FFFE00
FFF000
ENDCHAR
STARTCHAR 00D1
ENCODING 209
SWIDTH 500 0
DWIDTH 25 0
BBX 28 41 1 0
BITMAP
00000080
0003F1C0
0007FFE0
000FFFE0
001FFFC0
001F7F80
00041F00
00000000
00000000
00000000
00F801F0
01F803F0
01FC03F0
01FC03E0
01FC03E0
03FE07E0
03FE07E0
03FE07C0
03FE07C0
07FF07C0
07FF0FC0
07CF0FC0
07CF0F80
0FCF8F80
0FCF9F80
0F879F80
0F879F00
0F87DF00
1F87FF00
1F83FF00
1F03FE00
1F03FE00
3F03FE00
3F03FE00
3E01FC00
3E01FC00
7E01FC00
7E01FC00
7C01F800
7C00F800
FC00F800
ENDCHAR
STARTCHAR 00D2
ENCODING 210
SWIDTH 500 0
DWIDTH 25 0
BBX 24 43 3 -1
BITMAP
000200
000300
000780
0007E0
000FF0
000FF8
0003FC
0000FC
000038
000000
000380
003FF0
00FFF8
01FFFC
03FFFE
07FFFE
07F07F
0FE07F
0FC03F
1FC03F
1F803F
3F803F
3F003F
3F003F
7F003F
7E007F
7E007E
7E007E
7E007E
7E00FE
FE00FC
FE00FC
FE01FC
FE01F8
FE03F8
7E07F0
7F0FF0
7FFFE0
3FFFC0
3FFF80
1FFF00
0FFC00
01E000
ENDCHAR
STARTCHAR 00D3
ENCODING 211
SWIDTH 500 0
DWIDTH 25 0
BBX 24 42 3 0
BITMAP
000030
000078
0001F8
0003FC
0007FC
001FF0
000FC0
000700
000400
000380
003FF0
00FFF8
01FFFC
03FFFE
07FFFE
07F07F
0FE07F
0FC03F
1FC03F
1F803F
3F803F
3F003F
3F003F
7F003F
7E007F
7E007E
7E007E
7E007E
7E00FE
FE00FC
FE00FC
FE01FC
FE01F8
FE03F8
7E07F0
7F0FF0
7FFFE0
3FFFC0
3FFF80
1FFF00
0FFC00
01E000
ENDCHAR
STARTCHAR 00D4
ENCODING 212
SWIDTH 500 0
DWIDTH 25 0
BBX 24 42 3 0
BITMAP
0000C0
0001E0
0003F0
000FF8
001FFC
003F7C
003E3E
00181C
000000
000380
003FF0
00FFF8
01FFFC
03FFFE
07FFFE
07F07F
0FE07F
0FC03F
1FC03F
1F803F
3F803F
3F003F
3F003F
7F003F
7E007F
7E007E
7E007E
7E007E
7E00FE
FE00FC
FE00FC
FE01FC
FE01F8
FE03F8
7E07F0
7F0FF0
7FFFE0
3FFFC0
3FFF80
1FFF00
0FFC00
01E000
ENDCHAR
STARTCHAR 00D5
ENCODING 213
SWIDTH 500 0
DWIDTH 25 0
BBX 25 42 3 -1
BITMAP
00000200
000FC700
001FFF80
003FFF80
007FFF00
007DFE00
00187C00
00000000
00000000
00038000
003FF000
00FFF800
01FFFC00
03FFFE00
07FFFE00
07F07F00
0FE07F00
0FC03F00
1FC03F00
1F803F00
3F803F00
3F003F00
3F003F00
7F003F00
7E007F00
7E007E00
7E007E00
7E007E00
7E00FE00
FE00FC00
FE00FC00
FE01FC00
FE01F800
FE03F800
7E07F000
7F0FF000
7FFFE000
3FFFC000
3FFF8000
1FFF0000
0FFC0000
01E00000
ENDCHAR
STARTCHAR 00D6
ENCODING 214
SWIDTH 500 0
DWIDTH 25 0
BBX 25 42 3 -1
BITMAP
00080200
003E0F80
007E1F80
007F1F80
007E1F80
007E1F80
003C0F00
00000000
00000000
00038000
003FF000
00FFF800
01FFFC00
03FFFE00
07FFFE00
07F07F00
0FE07F00
0FC03F00
1FC03F00
1F803F00
3F803F00
3F003F00
3F003F00
7F003F00
7E007F00
7E007E00
7E007E00
7E007E00
7E00FE00
FE00FC00
FE00FC00
FE01FC00
FE01F800
FE03F800
7E07F000
7F0FF000
7FFFE000
3FFFC000
3FFF8000
1FFF0000
0FFC0000
01E00000
ENDCHAR
STARTCHAR 00D7
ENCODING 215
SWIDTH 500 0
DWIDTH 25 0
BBX 22 19 4 3
BITMAP
020010
070078
1F80FC
1FC1FC
1FC3FC
0FE7F0
07FFE0
03FFC0
01FF80
01FE00
03FE00
07FF00
0FFF80
1FFF80
7F9FC0
FF0FE0
FE07E0
7807C0
300380
ENDCHAR
STARTCHAR 00D8
ENCODING 216
SWIDTH 500 0
DWIDTH 25 0
BBX 24 35 3 -2
BITMAP
000004
00038F
003FFF
00FFFF
01FFFE
03FFFE
07FFFE
07F0FF
0FE0FF
0FC1FF
1F83FF
1F83FF
3F07FF
3F0FBF
3F0FBF
7E1F3F
7E3E3F
7E3E3E
7E7C7E
7CF87E
7CF87E
FDF0FC
FFE0FC
FFE0FC
FFC1F8
FF83F8
7F83F0
7F07F0
7FBFE0
3FFFC0
7FFF80
FFFF00
FFFC00
F0E000
200000
ENDCHAR
STARTCHAR 00D9
ENCODING 217
SWIDTH 500 0
DWIDTH 25 0
BBX 26 42 3 0
BITMAP
000C0000
001E0000
003F0000
003FC000
003FE000
000FF000
0003F000
0000E000
00000000
00000000
07F00FC0
07E01FC0
07E01F80
07E01F80
0FE01F80
0FC03F80
0FC03F00
0FC03F00
1FC03F00
1F807F00
1F807E00
1F807E00
1F807E00
3F00FE00
3F00FC00
3F00FC00
3F00FC00
7F00FC00
7E01F800
7E01F800
7E01F800
FE01F800
FE03F000
FE03F000
FE07F000
FE0FE000
7FFFE000
7FFFC000
3FFF8000
3FFF0000
0FFE0000
03E00000
ENDCHAR
STARTCHAR 00DA
ENCODING 218
SWIDTH 500 0
DWIDTH 25 0
BBX 26 42 3 0
BITMAP
00003000
00007800
0000FC00
0003FC00
0007FC00
000FF000
0007C000
00070000
00020000
00000000
07F00FC0
07E01FC0
07E01F80
07E01F80
0FE01F80
0FC03F80
0FC03F00
0FC03F00
1FC03F00
1F807F00
1F807E00
1F807E00
1F807E00
3F00FE00
3F00FC00
3F00FC00
3F00FC00
7F00FC00
7E01F800
7E01F800
7E01F800
FE01F800
FE03F000
FE03F000
FE07F000
FE0FE000
7FFFE000
7FFFC000
3FFF8000
3FFF0000
0FFE0000
03E00000
ENDCHAR
STARTCHAR 00DB
ENCODING 219
SWIDTH 500 0
DWIDTH 25 0
BBX 26 42 3 0
BITMAP
00006000
0000F000
0001F800
0007FC00
000FFC00
001FBE00
001E1F00
000C0C00
00000000
00000000
07F00FC0
07E01FC0
07E01F80
07E01F80
0FE01F80
0FC03F80
0FC03F00
0FC03F00
1FC03F00
1F807F00
1F807E00
1F807E00
1F807E00
3F00FE00
3F00FC00
3F00FC00
3F00FC00
7F00FC00
7E01F800
7E01F800
7E01F800
FE01F800
FE03F000
FE03F000
FE07F000
FE0FE000
7FFFE000
7FFFC000
3FFF8000
3FFF0000
0FFE0000
03E00000
ENDCHAR
STARTCHAR 00DC
ENCODING 220
SWIDTH 500 0
DWIDTH 25 0
BBX 26 42 3 -1
BITMAP
00080200
003E0F80
003F1FC0
007F1FC0
007F1FC0
007E1F80
003C0F00
00000000
00000000
00000000
07F00FC0
07E01FC0
07E01F80
07E01F80
0FE01F80
0FC03F80
0FC03F00
0FC03F00
1FC03F00
1F807F00
1F807E00
1F807E00
1F807E00
3F00FE00
3F00FC00
3F00FC00
3F00FC00
7F00FC00
7E01F800
7E01F800
7E01F800
FE01F800
FE03F000
FE03F000
FE07F000
FE0FE000
7FFFE000
7FFFC000
3FFF8000
3FFF0000
0FFE0000
03E00000
ENDCHAR
STARTCHAR 00DD
ENCODING 221
SWIDTH 500 0
DWIDTH 25 0
BBX 24 41 7 1
BITMAP
0000C0
0003C0
0007E0
000FF0
003FE0
007FC0
003F00
003C00
001000
000000
FC007F
FC00FE
FC00FC
7E01FC
7E01F8
7E03F8
7E07F0
7E07E0
3E0FE0
3F0FC0
3F1F80
3F3F00
3F3F00
1F7E00
1FFC00
1FFC00
1FF800
0FF000
0FE000
0FC000
0FC000
0FC000
0FC000
1FC000
1F8000
1F8000
1F8000
3F8000
3F0000
3F0000
3F0000
ENDCHAR
STARTCHAR 00DE
ENCODING 222
SWIDTH 500 0
DWIDTH 25 0
BBX 25 31 2 0
BITMAP
01F80000
01F80000
01F80000
01F80000
03F60000
03FFF000
03FFFC00
03FFFE00
07FFFF00
07FFFF00
07E07F00
07E03F00
0FE03F80
0FC03F80
0FC03F00
0FC03F00
1FC03F00
1F807F00
1F80FE00
1F83FE00
3FFFFC00
3FFFF800
3FFFF000
3FFFC000
7FFE0000
7E000000
7E000000
7E000000
FE000000
FC000000
FC000000
ENDCHAR
STARTCHAR 00DF
ENCODING 223
SWIDTH 500 0
DWIDTH 25 0
BBX 33 43 -6 -8
BITMAP
000001F000
00001FFC00
00003FFF00
00007FFF00
0000FFFF80
0001FFFF80
0001FC1F80
0003F81F80
0003F01F80
0007F01F00
0007E03F00
0007E07E00
0007E0FC00
0007E1FC00
000FC1F800
000FC3F000
000FC7E000
000FC7C000
001FC7C000
001F87E000
001F87F000
001F87F000
001F83F800
003F81FC00
003F00FE00
003F007E00
003F007E00
003F007E00
007F007E00
007E007E00
007E3FFE00
007E3FFC00
007E7FFC00
00FE7FF800
00FC7FE000
00FC0B0000
01FC000000
63F8000000
7FF8000000
7FF0000000
7FE0000000
FFC0000000
FF80000000
ENDCHAR
STARTCHAR 00E0
ENCODING 224
SWIDTH 500 0
DWIDTH 25 0
BBX 23 35 3 0
BITMAP
000600
000F00
001FC0
001FE0
001FF0
0007F8
0001F8
000070
000000
000000
001FE0
00FFFE
01FFFE
07FFFE
0FFFFE
1FF0FC
1FC0FC
3F80FC
3F01FC
7F01F8
7E01F8
7E01F8
FE03F8
FC03F0
FC03F0
FC03F0
FC03F0
FE07F0
FE0FF0
7FFFF0
7FFFF0
3FFFF0
3FFDF0
0FF1F8
018000
ENDCHAR
STARTCHAR 00E1
ENCODING 225
SWIDTH 500 0
DWIDTH 25 0
BBX 23 35 3 0
BITMAP
000018
000078
0000FC
0001FE
0007FE
000FF8
0007E0
000380
000200
000000
001FE0
00FFFE
01FFFE
07FFFE
0FFFFE
1FF0FC
1FC0FC
3F80FC
3F01FC
7F01F8
7E01F8
7E01F8
FE03F8
FC03F0
FC03F0
FC03F0
FC03F0
FE07F0
FE0FF0
7FFFF0
7FFFF0
3FFFF0
3FFDF0
0FF1F8
018000
ENDCHAR
STARTCHAR 00E2
ENCODING 226
SWIDTH 500 0
DWIDTH 25 0
BBX 23 36 3 -1
BITMAP
000040
0000C0
0001E0
0003F0
000FF8
001FFC
003F7C
003C3E
001818
000000
000000
001FE0
00FFFE
01FFFE
07FFFE
0FFFFE
1FF0FC
1FC0FC
3F80FC
3F01FC
7F01F8
7E01F8
7E01F8
FE03F8
FC03F0
FC03F0
FC03F0
FC03F0
FE07F0
FE0FF0
7FFFF0
7FFFF0
3FFFF0
3FFDF0
0FF1F8
018000
ENDCHAR
STARTCHAR 00E3
ENCODING 227
SWIDTH 500 0
DWIDTH 25 0
BBX 25 34 3 0
BITMAP
001FC700
003FFF80
007FFF00
007FFE00
0079FE00
00307800
00000000
00000000
00000000
001FE000
00FFFE00
01FFFE00
07FFFE00
0FFFFE00
1FF0FC00
1FC0FC00
3F80FC00
3F01FC00
7F01F800
7E01F800
7E01F800
FE03F800
FC03F000
FC03F000
FC03F000
FC03F000
FE07F000
FE0FF000
7FFFF000
7FFFF000
3FFFF000
3FFDF000
0FF1F800
01800000
ENDCHAR
STARTCHAR 00E4
ENCODING 228
SWIDTH 500 0
DWIDTH 25 0
BBX 25 35 3 -1
BITMAP
00080200
003E0F80
007E1F80
007F1F80
007E1F80
007E1F80
003C0F00
00000000
00000000
00000000
001FE000
00FFFE00
01FFFE00
07FFFE00
0FFFFE00
1FF0FC00
1FC0FC00
3F80FC00
3F01FC00
7F01F800
7E01F800
7E01F800
FE03F800
FC03F000
FC03F000
FC03F000
FC03F000
FE07F000
FE0FF000
7FFFF000
7FFFF000
3FFFF000
3FFDF000
0FF1F800
01800000
ENDCHAR
STARTCHAR 00E5
ENCODING 229
SWIDTH 500 0
DWIDTH 25 0
BBX 23 37 3 -1
BITMAP
0003F0
0007F8
000FFC
000F1C
000E1C
000E1C
000F3C
0007FC
0007F8
0001E0
000000
000000
001FE0
00FFFE
01FFFE
07FFFE
0FFFFE
1FF0FC
1FC0FC
3F80FC
3F01FC
7F01F8
7E01F8
7E01F8
FE03F8
FC03F0
FC03F0
FC03F0
FC03F0
FE07F0
FE0FF0
7FFFF0
7FFFF0
3FFFF0
3FFDF0
0FF1F8
018000
ENDCHAR
STARTCHAR 00E6
ENCODING 230
SWIDTH 500 0
DWIDTH 25 0
BBX 26 25 1 -1
BITMAP
07F01F00
0FF87F80
0FFCFFC0
0FFEFFC0
0FFFF7C0
081FC3C0
001FC3C0
001F83C0
001F87C0
00FF0780
03FF1F80
0FFFFF00
1FFFFE00
3F1FFC00
3E1FF000
7C3F0000
783E0000
787F0000
F87F0000
F8FF8600
7FEFFE00
7FEFFE00
7FC7FE00
3F83FC00
0C006000
ENDCHAR
STARTCHAR 00E7
ENCODING 231
SWIDTH 500 0
DWIDTH 25 0
BBX 22 33 4 -9
BITMAP
001FF0
00FFFC
03FFFC
07FFFC
0FFFF8
1FF838
3FC000
3F8000
7F0000
7E0000
FE0000
FC0000
FC0000
FC0000
FC0000
FC0000
FC0000
FE0000
FF0040
7FFFC0
7FFFE0
3FFFE0
1FFFE0
07FFC0
00F000
01F000
00F800
007800
007C00
0FF800
0FF800
1FF000
010000
ENDCHAR
STARTCHAR 00E8
ENCODING 232
SWIDTH 500 0
DWIDTH 25 0
BBX 22 35 4 0
BITMAP
001800
001E00
003F00
007F80
007FE0
001FF0
0007E0
0001C0
000040
000000
003FC0
01FFF0
03FFF8
07FFF8
0FFFFC
1FC1FC
3F80FC
7F00FC
7E00FC
7C01F8
FC07F8
FFFFF0
FFFFE0
FFFFC0
FFFE00
FFC000
FC0000
FC0000
FE0000
7FEFC0
7FFFC0
3FFFC0
1FFFE0
07FF80
007000
ENDCHAR
STARTCHAR 00E9
ENCODING 233
SWIDTH 500 0
DWIDTH 25 0
BBX 22 35 4 0
BITMAP
000060
0001F0
0003F0
0007F8
001FF8
003FE0
001F80
000E00
000800
000000
003FC0
01FFF0
03FFF8
07FFF8
0FFFFC
1FC1FC
3F80FC
7F00FC
7E00FC
7C01F8
FC07F8
FFFFF0
FFFFE0
FFFFC0
FFFE00
FFC000
FC0000
FC0000
FE0000
7FEFC0
7FFFC0
3FFFC0
1FFFE0
07FF80
007000
ENDCHAR
STARTCHAR 00EA
ENCODING 234
SWIDTH 500 0
DWIDTH 25 0
BBX 22 35 4 0
BITMAP
000180
0007C0
000FE0
001FE0
003FF0
00FEF8
007878
007030
000000
000000
003FC0
01FFF0
03FFF8
07FFF8
0FFFFC
1FC1FC
3F80FC
7F00FC
7E00FC
7C01F8
FC07F8
FFFFF0
FFFFE0
FFFFC0
FFFE00
FFC000
FC0000
FC0000
FE0000
7FEFC0
7FFFC0
3FFFC0
1FFFE0
07FF80
007000
ENDCHAR
STARTCHAR 00EB
ENCODING 235
SWIDTH 500 0
DWIDTH 25 0
BBX 23 35 4 -1
BITMAP
006018
01F07C
01F87E
03F8FE
03F8FE
01F07C
00E078
000000
000000
000000
003FC0
01FFF0
03FFF8
07FFF8
0FFFFC
1FC1FC
3F80FC
7F00FC
7E00FC
7C01F8
FC07F8
FFFFF0
FFFFE0
FFFFC0
FFFE00
FFC000
FC0000
FC0000
FE0000
7FEFC0
7FFFC0
3FFFC0
1FFFE0
07FF80
007000
ENDCHAR
STARTCHAR 00EC
ENCODING 236
SWIDTH 500 0
DWIDTH 25 0
BBX 17 35 6 0
BITMAP
018000
03C000
07E000
07F800
07FC00
01FE00
007C00
001C00
000800
000000
7FF800
7FF800
FFF800
FFF800
FFF800
FFF000
03F000
03F000
07F000
07E000
07E000
07E000
0FE000
0FC000
0FC000
0FC000
0FC000
1FC000
0FC080
0FFF80
0FFF80
0FFF80
07FF80
03FF80
002000
ENDCHAR
STARTCHAR 00ED
ENCODING 237
SWIDTH 500 0
DWIDTH 25 0
BBX 17 35 6 0
BITMAP
000600
001E00
003F00
007F80
01FF00
03FC00
01F800
00E000
008000
000000
7FF800
7FF800
FFF800
FFF800
FFF800
FFF000
03F000
03F000
07F000
07E000
07E000
07E000
0FE000
0FC000
0FC000
0FC000
0FC000
1FC000
0FC080
0FFF80
0FFF80
0FFF80
07FF80
03FF80
002000
ENDCHAR
STARTCHAR 00EE
ENCODING 238
SWIDTH 500 0
DWIDTH 25 0
BBX 17 35 6 0
BITMAP
003800
007C00
00FC00
01FE00
07FF00
0FDF80
0F8780
060300
000000
000000
7FF800
7FF800
FFF800
FFF800
FFF800
FFF000
03F000
03F000
07F000
07E000
07E000
07E000
0FE000
0FC000
0FC000
0FC000
0FC000
1FC000
0FC080
0FFF80
0FFF80
0FFF80
07FF80
03FF80
002000
ENDCHAR
STARTCHAR 00EF
ENCODING 239
SWIDTH 500 0
DWIDTH 25 0
BBX 19 35 6 -1
BITMAP
020180
0F83E0
1F87E0
1F87E0
1F87E0
1F87E0
0F0380
000000
000000
000000
7FF800
7FF800
FFF800
FFF800
FFF800
FFF000
03F000
03F000
07F000
07E000
07E000
07E000
0FE000
0FC000
0FC000
0FC000
0FC000
1FC000
0FC080
0FFF80
0FFF80
0FFF80
07FF80
03FF80
002000
ENDCHAR
STARTCHAR 00F0
ENCODING 240
SWIDTH 500 0
DWIDTH 25 0
BBX 26 36 3 -1
BITMAP
00010000
00038000
0007C000
000FE0C0
0007F7C0
0003FFC0
0003FFC0
001FFF00
001FF800
001FFC00
001CFC00
0000FC00
00007C00
00007C00
00FE7C00
03FFFC00
07FFFC00
0FFFFC00
1FFFFC00
3FC1FC00
3F00FC00
7F01FC00
7E01F800
7E01F800
FC01F800
FC03F800
FC03F000
FC07F000
FC0FE000
FE1FE000
7FFFC000
7FFF8000
3FFF0000
3FFE0000
0FFC0000
03C00000
ENDCHAR
STARTCHAR 00F1
ENCODING 241
SWIDTH 500 0
DWIDTH 25 0
BBX 24 34 2 0
BITMAP
000004
001F8E
003FFF
007FFF
00FFFE
00FBFC
0030F8
000000
000000
000000
003FE0
03FFF8
07FFFC
07FFFC
07FFFE
07F1FE
0FE0FE
0FC0FE
0FC07E
0FC0FE
1FC0FC
1F80FC
1F80FC
1F80FC
3F81F8
3F01F8
3F01F8
3F01F8
3F03F0
7E03F0
7E03F0
7E03F0
7E07E0
FC07E0
ENDCHAR
STARTCHAR 00F2
ENCODING 242
SWIDTH 500 0
DWIDTH 25 0
BBX 22 35 3 0
BITMAP
001800
001E00
003F00
007F80
003FE0
001FF0
0007E0
0001C0
000040
000000
003FC0
00FFE0
03FFF0
07FFF8
0FFFFC
1FE3FC
1FC1FC
3F80FC
3F00FC
7E00FC
7E00FC
7E00FC
7E00FC
FC00FC
FC01F8
FC01F8
FE03F8
FE07F0
7E0FF0
7FFFE0
7FFFC0
3FFF80
3FFF00
0FFC00
03C000
ENDCHAR
STARTCHAR 00F3
ENCODING 243
SWIDTH 500 0
DWIDTH 25 0
BBX 22 35 3 0
BITMAP
000060
0001F0
0003F0
0007F8
001FF8
003FE0
001F80
000E00
000800
000000
003FC0
00FFE0
03FFF0
07FFF8
0FFFFC
1FE3FC
1FC1FC
3F80FC
3F00FC
7E00FC
7E00FC
7E00FC
7E00FC
FC00FC
FC01F8
FC01F8
FE03F8
FE07F0
7E0FF0
7FFFE0
7FFFC0
3FFF80
3FFF00
0FFC00
03C000
ENDCHAR
STARTCHAR 00F4
ENCODING 244
SWIDTH 500 0
DWIDTH 25 0
BBX 22 36 3 -1
BITMAP
000080
000180
0003C0
0007E0
001FF0
003FF8
007EF8
007C7C
003038
000000
000000
003FC0
00FFE0
03FFF0
07FFF8
0FFFFC
1FE3FC
1FC1FC
3F80FC
3F00FC
7E00FC
7E00FC
7E00FC
7E00FC
FC00FC
FC01F8
FC01F8
FE03F8
FE07F0
7E0FF0
7FFFE0
7FFFC0
3FFF80
3FFF00
0FFC00
03C000
ENDCHAR
STARTCHAR 00F5
ENCODING 245
SWIDTH 500 0
DWIDTH 25 0
BBX 23 35 3 -1
BITMAP
000008
003F1C
007FFE
00FFFE
01FFFC
01F7F8
0061F0
000000
000000
000000
003FC0
00FFE0
03FFF0
07FFF8
0FFFFC
1FE3FC
1FC1FC
3F80FC
3F00FC
7E00FC
7E00FC
7E00FC
7E00FC
FC00FC
FC01F8
FC01F8
FE03F8
FE07F0
7E0FF0
7FFFE0
7FFFC0
3FFF80
3FFF00
0FFC00
03C000
ENDCHAR
STARTCHAR 00F6
ENCODING 246
SWIDTH 500 0
DWIDTH 25 0
BBX 24 35 3 -1
BITMAP
00300C
00F83E
00FC3F
01FC7F
01FC7F
00F83E
00F03C
000000
000000
000000
003FC0
00FFE0
03FFF0
07FFF8
0FFFFC
1FE3FC
1FC1FC
3F80FC
3F00FC
7E00FC
7E00FC
7E00FC
7E00FC
FC00FC
FC01F8
FC01F8
FE03F8
FE07F0
7E0FF0
7FFFE0
7FFFC0
3FFF80
3FFF00
0FFC00
03C000
ENDCHAR
STARTCHAR 00F7
ENCODING 247
SWIDTH 500 0
DWIDTH 25 0
BBX 22 26 4 0
BITMAP
000E00
001F80
003F80
003F80
003F80
003F00
003F00
000000
000000
000000
7FFFFC
7FFFFC
7FFFFC
FFFFFC
FFFFF8
000000
000000
000000
00C000
03F000
07F000
07F000
07F000
07F000
03E000
018000
ENDCHAR
STARTCHAR 00F8
ENCODING 248
SWIDTH 500 0
DWIDTH 25 0
BBX 23 28 4 -2
BITMAP
000008
00000C
003FDE
00FFFE
03FFFC
07FFF8
0FFFFC
0FE1FC
1F83FC
3F07FC
3F0FFC
7E1F7C
7E3FFC
7E3EFC
7C7CFC
7CF8FC
FDF0FC
FFE1F8
FFC1F8
7F83F0
7F07F0
7FFFE0
7FFFC0
3FFF80
7FFF00
FFFC00
F1E000
600000
ENDCHAR
STARTCHAR 00F9
ENCODING 249
SWIDTH 500 0
DWIDTH 25 0
BBX 22 34 4 0
BITMAP
007000
007800
00FC00
00FF00
00FF80
003FC0
000F80
000780
000100
000000
1F80FC
1F80FC
1F80FC
1F81FC
3F81F8
3F01F8
3F01F8
3F03F8
7F03F0
7E03F0
7E03F0
7E07F0
FE07E0
FC07E0
FC07E0
FC0FE0
FC0FE0
FC0FC0
FE1FC0
FFFFE0
FFFFE0
7FFFE0
7FFFE0
3FE3F0
ENDCHAR
STARTCHAR 00FA
ENCODING 250
SWIDTH 500 0
DWIDTH 25 0
BBX 22 34 4 0
BITMAP
0001C0
0003C0
0007E0
001FF0
003FE0
007F80
003E00
003C00
001000
000000
1F80FC
1F80FC
1F80FC
1F81FC
3F81F8
3F01F8
3F01F8
3F03F8
7F03F0
7E03F0
7E03F0
7E07F0
FE07E0
FC07E0
FC07E0
FC0FE0
FC0FE0
FC0FC0
FE1FC0
FFFFE0
FFFFE0
7FFFE0
7FFFE0
3FE3F0
ENDCHAR
STARTCHAR 00FB
ENCODING 251
SWIDTH 500 0
DWIDTH 25 0
BBX 22 34 4 0
BITMAP
000300
000780
001FC0
003FC0
007FE0
00FDF0
00F0F0
00E060
000000
000000
1F80FC
1F80FC
1F80FC
1F81FC
3F81F8
3F01F8
3F01F8
3F03F8
7F03F0
7E03F0
7E03F0
7E07F0
FE07E0
FC07E0
FC07E0
FC0FE0
FC0FE0
FC0FC0
FE1FC0
FFFFE0
FFFFE0
7FFFE0
7FFFE0
3FE3F0
ENDCHAR
STARTCHAR 00FC
ENCODING 252
SWIDTH 500 0
DWIDTH 25 0
BBX 22 34 4 -1
BITMAP
00C030
01F07C
03F0FC
03F0FC
03F1FC
03F0F8
01C070
000000
000000
000000
1F80FC
1F80FC
1F80FC
1F81FC
3F81F8
3F01F8
3F01F8
3F03F8
7F03F0
7E03F0
7E03F0
7E07F0
FE07E0
FC07E0
FC07E0
FC0FE0
FC0FE0
FC0FC0
FE1FC0
FFFFE0
FFFFE0
7FFFE0
7FFFE0
3FE3F0
ENDCHAR
STARTCHAR 00FD
ENCODING 253
SWIDTH 500 0
DWIDTH 25 0
BBX 29 42 -2 -7
BITMAP
00000700
00000F00
00001F80
00007F80
0000FF80
0001FE00
0000F800
0000F000
00004000
00000000
00FC01F8
00FC01F8
00FC03F8
00FC03F0
00FC03F0
00FC07F0
00FC07E0
00FC0FE0
00FE0FC0
00FE0FC0
007E1F80
007E1F80
007E3F00
007E3F00
007E7E00
007E7E00
003FFC00
003FFC00
003FF800
003FF000
003FF000
001FE000
001FC000
001FC000
003F8000
007F0000
00FE0000
7FFC0000
7FF80000
7FF00000
FFE00000
FF800000
ENDCHAR
STARTCHAR 00FE
ENCODING 254
SWIDTH 500 0
DWIDTH 25 0
BBX 25 43 0 -8
BITMAP
00010000
003F0000
003F0000
007F0000
007E0000
007E0000
007E0000
007E0000
00FC0000
00FC0000
00FC0000
00FFF000
01FFFC00
01FFFE00
01FFFF00
01FFFF80
03F87F80
03F01F80
03F01F80
03F01F80
07F01F80
07E01F80
07E01F80
07E01F80
0FE03F80
0FC03F00
0FC07F00
0FC07F00
1FC0FE00
1F83FE00
1FFFFC00
1FFFF800
3FFFF000
3FFFC000
3FFF0000
3F600000
3F000000
7E000000
7E000000
7E000000
7E000000
FC000000
FC000000
ENDCHAR
STARTCHAR 00FF
ENCODING 255
SWIDTH 500 0
DWIDTH 25 0
BBX 29 42 -2 -8
BITMAP
000300C0
0007C3F0
000FC3F0
000FC7F0
000FC7F0
000F83E0
000701C0
00000000
00000000
00000000
00FC01F8
00FC01F8
00FC03F8
00FC03F0
00FC03F0
00FC07F0
00FC07E0
00FC0FE0
00FE0FC0
00FE0FC0
007E1F80
007E1F80
007E3F00
007E3F00
007E7E00
007E7E00
003FFC00
003FFC00
003FF800
003FF000
003FF000
001FE000
001FC000
001FC000
003F8000
007F0000
00FE0000
7FFC0000
7FF80000
7FF00000
FFE00000
FF800000
ENDCHAR
STARTCHAR 0100
ENCODING 256
SWIDTH 500 0
DWIDTH 25 0
BBX 28 39 0 0
BITMAP
0007FFF0
0007FFF0
0007FFE0
0007FFE0
00000000
00000000
00000000
00000000
0001FC00
0001FC00
0003FC00
0003FE00
0007FE00
000FFE00
000FBE00
001FBE00
001F3E00
003F3E00
003E3E00
007E3E00
007C3E00
00FC3E00
00F83E00
01F83E00
01F03E00
03F03F00
03E03F00
07FFFF00
07FFFF00
0FFFFF00
0FFFFF00
1FFFFF00
1F803F00
3F003F00
3F003F00
7E003F00
7E003F00
FE003F00
FC003F00
ENDCHAR
STARTCHAR 0101
ENCODING 257
SWIDTH 500 0
DWIDTH 25 0
BBX 25 33 3 -1
BITMAP
003FFF80
003FFF80
003FFF00
003FFF00
00000000
00000000
00000000
00000000
001FE000
00FFFE00
01FFFE00
07FFFE00
0FFFFE00
1FF0FC00
1FC0FC00
3F80FC00
3F01FC00
7F01F800
7E01F800
7E01F800
FE03F800
FC03F000
FC03F000
FC03F000
FC03F000
FE07F000
FE0FF000
7FFFF000
7FFFF000
3FFFF000
3FFDF000
0FF1F800
01800000
ENDCHAR
STARTCHAR 0102
ENCODING 258
SWIDTH 500 0
DWIDTH 25 0
BBX 28 41 0 0
BITMAP
0003E1F0
0003E1F0
0003E3F0
0003FFE0
0001FFC0
0001FF80
00007F00
00000000
00000000
00000000
0001FC00
0001FC00
0003FC00
0003FE00
0007FE00
000FFE00
000FBE00
001FBE00
001F3E00
003F3E00
003E3E00
007E3E00
007C3E00
00FC3E00
00F83E00
01F83E00
01F03E00
03F03F00
03E03F00
07FFFF00
07FFFF00
0FFFFF00
0FFFFF00
1FFFFF00
1F803F00
3F003F00
3F003F00
7E003F00
7E003F00
FE003F00
FC003F00
ENDCHAR
STARTCHAR 0103
ENCODING 259
SWIDTH 500 0
DWIDTH 25 0
BBX 24 35 3 -1
BITMAP
003E0F
003E1F
003E3F
003FFE
001FFE
000FFC
0007F0
000000
000000
000000
001FE0
00FFFE
01FFFE
07FFFE
0FFFFE
1FF0FC
1FC0FC
3F80FC
3F01FC
7F01F8
7E01F8
7E01F8
FE03F8
FC03F0
FC03F0
FC03F0
FC03F0
FE07F0
FE0FF0
7FFFF0
7FFFF0
3FFFF0
3FFDF0
0FF1F8
018000
ENDCHAR
STARTCHAR 0104
ENCODING 260
SWIDTH 500 0
DWIDTH 25 0
BBX 23 40 1 -9
BITMAP
0001FC
0003FC
0003FC
0007FC
0007FC
000FFC
001FFC
001F7C
003F7E
003E7E
007E7E
007C7E
00FC7E
00F83E
01F83E
01F03E
03F03E
03F07E
07E07E
07FFFE
0FFFFE
0FFFFE
1FFFFE
1FFFFE
3F007E
3F007E
7E007E
7E007E
FE007E
FC007E
FC007E
00007E
0000F8
0001F0
0003E0
0007E0
0007FE
0007FC
0003FC
000060
ENDCHAR
STARTCHAR 0105
ENCODING 261
SWIDTH 500 0
DWIDTH 25 0
BBX 23 33 3 -9
BITMAP
001FE0
00FFFE
01FFFE
07FFFE
0FFFFE
1FF0FC
1FC0FC
3F80FC
3F01FC
7F01F8
7E01F8
7E01F8
FE03F8
FC03F0
FC03F0
FC03F0
FC03F0
FE07F0
FE0FF0
7FFFF0
7FFFF0
3FFFF0
3FFFF0
0FF1F8
0183E0
000FC0
001F80
003F00
003F00
003FE0
003FE0
003FE0
000200
ENDCHAR
STARTCHAR 0106
ENCODING 262
SWIDTH 500 0
DWIDTH 25 0
BBX 24 42 4 0
BITMAP
000018
000078
0000FC
0001FE
0007FC
000FF8
0007E0
000780
000200
0000C0
001FFC
007FFF
00FFFF
01FFFF
03FFFE
07F80E
0FF000
0FE000
1FC000
1F8000
3F8000
3F0000
3F0000
7F0000
7E0000
7E0000
7E0000
7E0000
FE0000
FE0000
FE0000
FE0000
FE0000
7E0000
7F0000
7F80C0
7FFFE0
3FFFE0
1FFFE0
0FFFE0
07FF80
00F800
ENDCHAR
STARTCHAR 0107
ENCODING 263
SWIDTH 500 0
DWIDTH 25 0
BBX 22 36 4 -1
BITMAP
000010
000030
000078
0001F8
0003FC
0007FC
000FF0
000FC0
000700
000000
000000
001FF0
00FFFC
03FFFC
07FFFC
0FFFF8
1FF838
3FC000
3F8000
7F0000
7E0000
FE0000
FC0000
FC0000
FC0000
FC0000
FC0000
FC0000
FE0000
FF0040
7FFFC0
7FFFE0
3FFFE0
1FFFE0
07FFC0
003800
ENDCHAR
STARTCHAR 0108
ENCODING 264
SWIDTH 500 0
DWIDTH 25 0
BBX 24 42 4 0
BITMAP
000030
000078
0001FC
0003FC
0007FE
001FDF
000F0F
000E06
000000
0000C0
001FFC
007FFF
00FFFF
01FFFF
03FFFE
07F80E
0FF000
0FE000
1FC000
1F8000
3F8000
3F0000
3F0000
7F0000
7E0000
7E0000
7E0000
7E0000
FE0000
FE0000
FE0000
FE0000
FE0000
7E0000
7F0000
7F80C0
7FFFE0
3FFFE0
1FFFE0
0FFFE0
07FF80
00F800
ENDCHAR
STARTCHAR 0109
ENCODING 265
SWIDTH 500 0
DWIDTH 25 0
BBX 23 35 4 0
BITMAP
0000C0
0001E0
0007F0
000FF8
001FF8
003F7C
003C3E
001818
000000
000000
001FF0
00FFFC
03FFFC
07FFFC
0FFFF8
1FF838
3FC000
3F8000
7F0000
7E0000
FE0000
FC0000
FC0000
FC0000
FC0000
FC0000
FC0000
FE0000
FF0040
7FFFC0
7FFFE0
3FFFE0
1FFFE0
07FFC0
003800
ENDCHAR
STARTCHAR 010A
ENCODING 266
SWIDTH 500 0
DWIDTH 25 0
BBX 24 42 4 -1
BITMAP
000060
0001F0
0003F8
0003F8
0003F8
0003F0
0001E0
000000
000000
0000C0
001FFC
007FFF
00FFFF
01FFFF
03FFFE
07F80E
0FF000
0FE000
1FC000
1F8000
3F8000
3F0000
3F0000
7F0000
7E0000
7E0000
7E0000
7E0000
FE0000
FE0000
FE0000
FE0000
FE0000
7E0000
7F0000
7F80C0
7FFFE0
3FFFE0
1FFFE0
0FFFE0
07FF80
00F800
ENDCHAR
STARTCHAR 010B
ENCODING 267
SWIDTH 500 0
DWIDTH 25 0
BBX 22 35 4 -1
BITMAP
0001C0
0007E0
0007F0
0007F0
0007E0
0007E0
0003C0
000000
000000
000000
001FF0
00FFFC
03FFFC
07FFFC
0FFFF8
1FF838
3FC000
3F8000
7F0000
7E0000
FE0000
FC0000
FC0000
FC0000
FC0000
FC0000
FC0000
FE0000
FF0040
7FFFC0
7FFFE0
3FFFE0
1FFFE0
07FFC0
003800
ENDCHAR
STARTCHAR 010C
ENCODING 268
SWIDTH 500 0
DWIDTH 25 0
BBX 25 42 4 0
BITMAP
00060700
000F0F00
000F9F80
0007FE00
0003FC00
0001F800
0001F000
0000C000
00000000
0000C000
001FFC00
007FFF00
00FFFF00
01FFFF00
03FFFE00
07F80E00
0FF00000
0FE00000
1FC00000
1F800000
3F800000
3F000000
3F000000
7F000000
7E000000
7E000000
7E000000
7E000000
FE000000
FE000000
FE000000
FE000000
FE000000
7E000000
7F000000
7F80C000
7FFFE000
3FFFE000
1FFFE000
0FFFE000
07FF8000
00F80000
ENDCHAR
STARTCHAR 010D
ENCODING 269
SWIDTH 500 0
DWIDTH 25 0
BBX 23 35 4 0
BITMAP
000C0C
003E1E
001F7E
000FFC
000FF8
0007E0
0003C0
000180
000000
000000
001FF0
00FFFC
03FFFC
07FFFC
0FFFF8
1FF838
3FC000
3F8000
7F0000
7E0000
FE0000
FC0000
FC0000
FC0000
FC0000
FC0000
FC0000
FE0000
FF0040
7FFFC0
7FFFE0
3FFFE0
1FFFE0
07FFC0
003800
ENDCHAR
STARTCHAR 010E
ENCODING 270
SWIDTH 500 0
DWIDTH 25 0
BBX 24 41 2 1
BITMAP
000C0E
001E1E
001F7F
000FFC
0007F8
0007F0
0003C0
000180
000000
000000
01FFC0
01FFF0
03FFFC
03FFFC
03FFFE
03F0FF
07F07F
07E03F
07E03F
07E03F
0FE03F
0FC03F
0FC03F
0FC03F
1FC03F
1F803F
1F803F
1F807F
3F807E
3F007E
3F00FE
3F00FC
7F01FC
7E03F8
7E07F8
7E1FF0
7FFFE0
FFFFC0
FFFF80
FFFE00
FFF800
ENDCHAR
STARTCHAR 010F
ENCODING 271
SWIDTH 500 0
DWIDTH 25 0
BBX 31 36 2 -1
BITMAP
0000033E
00007E7E
00007E7C
00007E7C
00007E7C
0000FCF8
0000FCF8
0000FCF8
0000FCF0
0001FCF0
0001F9E0
003FF800
01FFF800
03FFF800
0FFFF000
1FFFF000
1FC3F000
3F87F000
3F07E000
7E07E000
7E07E000
FE0FE000
FC0FC000
FC0FC000
FC0FC000
FC1FC000
FC1F8000
FC1F8000
FC1F8000
FC3F8000
FFFF8000
FFFF8000
7FFFC000
7FFFC000
3FCFC000
04000000
ENDCHAR
STARTCHAR 0110
ENCODING 272
SWIDTH 500 0
DWIDTH 25 0
BBX 23 31 3 0
BITMAP
01FFC0
03FFE0
03FFF8
03FFF8
03FFFC
03F1FE
07E0FE
07E07E
07E07E
07E07E
0FC07E
0FC07E
7FF87E
7FF87E
FFF87E
FFF07E
FFF07E
FFF0FE
3F00FC
3F00FC
3F01FC
3F01F8
7F03F8
7E07F0
7E0FF0
7E1FE0
FFFFC0
FFFF80
FFFF00
FFFE00
FFF000
ENDCHAR
STARTCHAR 0111
ENCODING 273
SWIDTH 500 0
DWIDTH 25 0
BBX 28 36 3 -1
BITMAP
00000080
00001F80
00001F80
00003F80
001FFFF0
001FFFE0
003FFFE0
003FFFE0
00007E00
00007E00
00007E00
001FFE00
00FFFC00
03FFFC00
07FFFC00
0FFFFC00
1FF1F800
1FC1F800
3F81F800
3F01F800
7E03F000
7E03F000
7E03F000
FE03F000
FC07F000
FC07E000
FC07E000
FC07E000
FE0FE000
FE1FE000
7FFFE000
7FFFE000
7FFFE000
3FFBF000
1FE3F000
02000000
ENDCHAR
STARTCHAR 0112
ENCODING 274
SWIDTH 500 0
DWIDTH 25 0
BBX 26 39 3 0
BITMAP
001FFFC0
001FFF80
001FFF80
001FFF80
00000000
00000000
00000000
00000000
01FFFF80
01FFFF80
03FFFF80
03FFFF80
03FFFF00
03F00000
07F00000
07E00000
07E00000
07E00000
07E00000
0FC00000
0FFFF800
0FFFF800
0FFFF000
1FFFF000
1FFFF000
1F800000
1F800000
3F800000
3F000000
3F000000
3F000000
7F000000
7E000000
7E000000
7FFFF000
FFFFF000
FFFFF000
FFFFE000
FFFFE000
ENDCHAR
STARTCHAR 0113
ENCODING 275
SWIDTH 500 0
DWIDTH 25 0
BBX 23 33 4 -1
BITMAP
007FFE
007FFE
007FFE
00FFFE
000000
000000
000000
000000
003FC0
01FFF0
03FFF8
07FFF8
0FFFFC
1FC1FC
3F80FC
7F00FC
7E00FC
7C01F8
FC07F8
FFFFF0
FFFFE0
FFFFC0
FFFE00
FFC000
FC0000
FC0000
FE0000
7FEFC0
7FFFC0
3FFFC0
1FFFE0
07FF80
007000
ENDCHAR
STARTCHAR 0114
ENCODING 276
SWIDTH 500 0
DWIDTH 25 0
BBX 26 41 3 0
BITMAP
000F07C0
000F07C0
000F8F80
000FFF80
0007FF00
0007FE00
0001FC00
00000000
00000000
00000000
01FFFF80
01FFFF80
03FFFF80
03FFFF80
03FFFF00
03F00000
07F00000
07E00000
07E00000
07E00000
07E00000
0FC00000
0FFFF800
0FFFF800
0FFFF000
1FFFF000
1FFFF000
1F800000
1F800000
3F800000
3F000000
3F000000
3F000000
7F000000
7E000000
7E000000
7FFFF000
FFFFF000
FFFFF000
FFFFE000
FFFFE000
ENDCHAR
STARTCHAR 0115
ENCODING 277
SWIDTH 500 0
DWIDTH 25 0
BBX 24 35 4 -1
BITMAP
003C1F
003C1F
003E3E
003FFE
003FFC
001FF8
000FE0
000000
000000
000000
003FC0
01FFF0
03FFF8
07FFF8
0FFFFC
1FC1FC
3F80FC
7F00FC
7E00FC
7C01F8
FC07F8
FFFFF0
FFFFE0
FFFFC0
FFFE00
FFC000
FC0000
FC0000
FE0000
7FEFC0
7FFFC0
3FFFC0
1FFFE0
07FF80
007000
ENDCHAR
STARTCHAR 0116
ENCODING 278
SWIDTH 500 0
DWIDTH 25 0
BBX 25 41 3 0
BITMAP
00007000
0001F800
0001F800
0001FC00
0003F800
0001F800
0001F000
00000000
00000000
00000000
01FFFF80
01FFFF80
03FFFF80
03FFFF80
03FFFF00
03F00000
07F00000
07E00000
07E00000
07E00000
07E00000
0FC00000
0FFFF800
0FFFF800
0FFFF000
1FFFF000
1FFFF000
1F800000
1F800000
3F800000
3F000000
3F000000
3F000000
7F000000
7E000000
7E000000
7FFFF000
FFFFF000
FFFFF000
FFFFE000
FFFFE000
ENDCHAR
STARTCHAR 0117
ENCODING 279
SWIDTH 500 0
DWIDTH 25 0
BBX 22 35 4 -1
BITMAP
000180
0007E0
0007E0
000FE0
000FE0
0007E0
0007C0
000000
000000
000000
003FC0
01FFF0
03FFF8
07FFF8
0FFFFC
1FC1FC
3F80FC
7F00FC
7E00FC
7C01F8
FC07F8
FFFFF0
FFFFE0
FFFFC0
FFFE00
FFC000
FC0000
FC0000
FE0000
7FEFC0
7FFFC0
3FFFC0
1FFFE0
07FF80
007000
ENDCHAR
STARTCHAR 0118
ENCODING 280
SWIDTH 500 0
DWIDTH 25 0
BBX 25 40 3 -9
BITMAP
01FFFF80
01FFFF80
03FFFF80
03FFFF80
03FFFF00
03F00000
07F00000
07E00000
07E00000
07E00000
07E00000
0FC00000
0FFFF800
0FFFF800
0FFFF000
1FFFF000
1FFFF000
1F800000
1F800000
3F800000
3F000000
3F000000
3F000000
7F000000
7E000000
7E000000
7FFFF000
FFFFF000
FFFFF000
FFFFE000
FFFFE000
0007C000
001F8000
003F0000
007E0000
007E0000
007FC000
007FC000
003FC000
00040000
ENDCHAR
STARTCHAR 0119
ENCODING 281
SWIDTH 500 0
DWIDTH 25 0
BBX 22 33 4 -9
BITMAP
003FC0
01FFF0
03FFF8
07FFF8
0FFFFC
1FC1FC
3F80FC
7F00FC
7E00FC
7C01F8
FC07F8
FFFFF0
FFFFE0
FFFFC0
FFFE00
FFC000
FC0000
FC0000
FE0000
7FEFC0
7FFFC0
3FFFC0
1FFFE0
07FFC0
007F00
007E00
00FC00
01F800
01F800
01FF00
01FF00
01FF00
001000
ENDCHAR
STARTCHAR 011A
ENCODING 282
SWIDTH 500 0
DWIDTH 25 0
BBX 25 42 3 0
BITMAP
00000100
00030300
000F8780
0007DF80
0007FF00
0003FE00
0001F800
0000F000
00006000
00000000
00000000
01FFFF80
01FFFF80
03FFFF80
03FFFF80
03FFFF00
03F00000
07F00000
07E00000
07E00000
07E00000
07E00000
0FC00000
0FFFF800
0FFFF800
0FFFF000
1FFFF000
1FFFF000
1F800000
1F800000
3F800000
3F000000
3F000000
3F000000
7F000000
7E000000
7E000000
7FFFF000
FFFFF000
FFFFF000
FFFFE000
FFFFE000
ENDCHAR
STARTCHAR 011B
ENCODING 283
SWIDTH 500 0
DWIDTH 25 0
BBX 22 36 4 -1
BITMAP
001000
003818
007C7C
007EFC
003FF8
001FE0
000FC0
000780
000300
000000
000000
003FC0
01FFF0
03FFF8
07FFF8
0FFFFC
1FC1FC
3F80FC
7F00FC
7E00FC
7C01F8
FC07F8
FFFFF0
FFFFE0
FFFFC0
FFFE00
FFC000
FC0000
FC0000
FE0000
7FEFC0
7FFFC0
3FFFC0
1FFFE0
07FF80
007000
ENDCHAR
STARTCHAR 011C
ENCODING 284
SWIDTH 500 0
DWIDTH 25 0
BBX 24 42 4 0
BITMAP
000060
0000F0
0003F8
0007FC
000FFC
001FBE
001E1E
000C0C
000000
0000C0
001FFC
007FFF
00FFFF
01FFFF
03FFFE
07F80E
0FE000
1FC000
1FC000
3F8000
3F0000
7F0000
7E0000
7E0000
7E0000
FE01FC
FC01F8
FC01F8
FC01F8
FC03F8
FC03F0
FC03F0
FC03F0
FE03F0
FE07E0
FF07E0
7FFFE0
7FFFE0
3FFFC0
1FFFC0
0FFF80
01F000
ENDCHAR
STARTCHAR 011D
ENCODING 285
SWIDTH 500 0
DWIDTH 25 0
BBX 27 42 0 -7
BITMAP
00000C00
00001E00
00007F00
0000FF80
0001FF80
0003F7C0
0003C3E0
00018180
00000000
00000000
0003FF00
000FFFE0
003FFFC0
007FFFC0
01FFFFC0
01FE0FC0
03F81F80
07F01F80
07E01F80
0FE01F80
0FC03F00
0FC03F00
0FC03F00
0FC03F00
0FC07F00
0FC07E00
0FE07E00
0FFFFE00
07FFFE00
07FFFC00
03FFFC00
01FEFC00
0001FC00
0001F800
0001F800
0003F800
380FF000
7FFFE000
7FFFE000
FFFFC000
FFFF0000
3FFC0000
ENDCHAR
STARTCHAR 011E
ENCODING 286
SWIDTH 500 0
DWIDTH 25 0
BBX 25 42 4 -1
BITMAP
001E0F80
001E0F80
001F1F00
001FFF00
000FFE00
000FFC00
0003F800
00000000
00000000
0000C000
001FFC00
007FFF00
00FFFF00
01FFFF00
03FFFE00
07F80E00
0FE00000
1FC00000
1FC00000
3F800000
3F000000
7F000000
7E000000
7E000000
7E000000
FE01FC00
FC01F800
FC01F800
FC01F800
FC03F800
FC03F000
FC03F000
FC03F000
FE03F000
FE07E000
FF07E000
7FFFE000
7FFFE000
3FFFC000
1FFFC000
0FFF8000
01F00000
ENDCHAR
STARTCHAR 011F
ENCODING 287
SWIDTH 500 0
DWIDTH 25 0
BBX 28 42 0 -8
BITMAP
0003E1F0
0003E1F0
0003E3F0
0003FFE0
0001FFC0
0001FF80
00007F00
00000000
00000000
00000000
0003FF00
000FFFE0
003FFFC0
007FFFC0
01FFFFC0
01FE0FC0
03F81F80
07F01F80
07E01F80
0FE01F80
0FC03F00
0FC03F00
0FC03F00
0FC03F00
0FC07F00
0FC07E00
0FE07E00
0FFFFE00
07FFFE00
07FFFC00
03FFFC00
01FEFC00
0001FC00
0001F800
0001F800
0003F800
380FF000
7FFFE000
7FFFE000
FFFFC000
FFFF0000
3FFC0000
ENDCHAR
STARTCHAR 0120
ENCODING 288
SWIDTH 500 0
DWIDTH 25 0
BBX 24 42 4 -1
BITMAP
000060
0001F0
0003F8
0003F8
0003F8
0003F0
0001E0
000000
000000
0000C0
001FFC
007FFF
00FFFF
01FFFF
03FFFE
07F80E
0FE000
1FC000
1FC000
3F8000
3F0000
7F0000
7E0000
7E0000
7E0000
FE01FC
FC01F8
FC01F8
FC01F8
FC03F8
FC03F0
FC03F0
FC03F0
FE03F0
FE07E0
FF07E0
7FFFE0
7FFFE0
3FFFC0
1FFFC0
0FFF80
01F000
ENDCHAR
STARTCHAR 0121
ENCODING 289
SWIDTH 500 0
DWIDTH 25 0
BBX 27 42 0 -8
BITMAP
00001C00
00007E00
00007F00
00007F00
00007E00
00007E00
00003C00
00000000
00000000
00000000
0003FF00
000FFFE0
003FFFC0
007FFFC0
01FFFFC0
01FE0FC0
03F81F80
07F01F80
07E01F80
0FE01F80
0FC03F00
0FC03F00
0FC03F00
0FC03F00
0FC07F00
0FC07E00
0FE07E00
0FFFFE00
07FFFE00
07FFFC00
03FFFC00
01FEFC00
0001FC00
0001F800
0001F800
0003F800
380FF000
7FFFE000
7FFFE000
FFFFC000
FFFF0000
3FFC0000
ENDCHAR
STARTCHAR 0122
ENCODING 290
SWIDTH 500 0
DWIDTH 25 0
BBX 24 40 4 -9
BITMAP
0000C0
001FFC
007FFF
00FFFF
01FFFF
03FFFE
07F80E
0FE000
1FC000
1FC000
3F8000
3F0000
7F0000
7E0000
7E0000
7E0000
FE01FC
FC01F8
FC01F8
FC01F8
FC03F8
FC03F0
FC03F0
FC03F0
FE03F0
FE07E0
FF07E0
7FFFE0
7FFFE0
3FFFC0
1FFFC0
0FFF80
01F000
000000
03E000
03E000
07E000
3FC000
3FC000
3F0000
ENDCHAR
STARTCHAR 0123
ENCODING 291
SWIDTH 500 0
DWIDTH 25 0
BBX 27 43 0 -8
BITMAP
00000700
00000F80
00001F80
00003F00
00007E00
00007C00
00007C00
0000FC00
00000000
00000000
00000000
0003FF00
000FFFE0
003FFFC0
007FFFC0
01FFFFC0
01FE0FC0
03F81F80
07F01F80
07E01F80
0FE01F80
0FC03F00
0FC03F00
0FC03F00
0FC03F00
0FC07F00
0FC07E00
0FE07E00
0FFFFE00
07FFFE00
07FFFC00
03FFFC00
01FEFC00
0001FC00
0001F800
0001F800
0003F800
380FF000
7FFFE000
7FFFE000
FFFFC000
FFFF0000
3FFC0000
ENDCHAR
STARTCHAR 0124
ENCODING 292
SWIDTH 500 0
DWIDTH 25 0
BBX 28 41 1 1
BITMAP
00001800
00003C00
00007E00
0001FF00
0003FF00
0007EF80
000787C0
00030300
00000000
00000000
00FC03F0
01FC03F0
01F803F0
01F807E0
01F807E0
03F807E0
03F007E0
03F00FE0
03F00FC0
07F00FC0
07E00FC0
07E01FC0
07FFFF80
0FFFFF80
0FFFFF80
0FFFFF80
0FFFFF00
0FC03F00
1F803F00
1F807F00
1F807E00
1F807E00
3F807E00
3F00FE00
3F00FC00
3F00FC00
7F00FC00
7E00FC00
7E01F800
7E01F800
FE01F800
ENDCHAR
STARTCHAR 0125
ENCODING 293
SWIDTH 500 0
DWIDTH 25 0
BBX 23 41 2 0
BITMAP
000180
0007C0
000FE0
003FF0
007EFC
003C78
003030
000000
000400
00FC00
00FC00
01F800
01F800
01F800
01F800
03F000
03F000
03FFE0
03FFF8
07FFFC
07FFFC
07FFFE
07F1FE
0FE0FE
0FC0FE
0FC07E
0FC0FE
1FC0FC
1F80FC
1F80FC
1F80FC
3F81F8
3F01F8
3F01F8
3F01F8
3F03F0
7E03F0
7E03F0
7E03F0
7E07F0
FC07E0
ENDCHAR
STARTCHAR 0126
ENCODING 294
SWIDTH 500 0
DWIDTH 25 0
BBX 27 31 3 0
BITMAP
01F81F80
01F83F80
03F83F00
03F03F00
1FFFFFE0
1FFFFFC0
1FFFFFC0
1FFFFFC0
3FFFFFC0
07E07E00
07E0FC00
0FE0FC00
0FFFFC00
0FFFFC00
0FFFF800
1FFFF800
1FFFF800
1F81F800
1F83F800
3F83F000
3F03F000
3F03F000
3F07F000
7F07E000
7E07E000
7E07E000
7E0FE000
FE0FC000
FC0FC000
FC0FC000
FC1FC000
ENDCHAR
STARTCHAR 0127
ENCODING 295
SWIDTH 500 0
DWIDTH 25 0
BBX 22 35 3 0
BITMAP
000400
00FC00
00FC00
01FC00
0FFFF0
0FFFE0
0FFFE0
0FFFE0
03F000
03F000
03F000
07FFC0
07FFF0
07FFF8
07FFF8
07FFF8
0FE3FC
0FC1FC
0FC1FC
0FC1FC
1FC1FC
1F81F8
1F81F8
1F81F8
3F81F8
3F03F0
3F03F0
3F03F0
7F03F0
7E07E0
7E07E0
7E07E0
FE07E0
FC0FE0
FC0FC0
ENDCHAR
STARTCHAR 0128
ENCODING 296
SWIDTH 500 0
DWIDTH 25 0
BBX 27 40 2 1
BITMAP
0007E380
000FFFC0
001FFF80
003FFF80
003EFF00
00083C00
00000000
00000000
00000000
01FFFFE0
01FFFFC0
01FFFFC0
03FFFFC0
03FFFFC0
0007E000
000FE000
000FC000
000FC000
000FC000
001FC000
001F8000
001F8000
001F8000
003F8000
003F0000
003F0000
003F0000
003F0000
007E0000
007E0000
007E0000
007E0000
00FE0000
00FC0000
00FC0000
7FFFF000
7FFFF000
FFFFF000
FFFFF000
FFFFF000
ENDCHAR
STARTCHAR 0129
ENCODING 297
SWIDTH 500 0
DWIDTH 25 0
BBX 19 35 6 -1
BITMAP
000080
03F0E0
07FFE0
0FFFE0
0FFFC0
1F7F80
060F00
000000
000000
000000
7FF800
7FF800
FFF800
FFF800
FFF800
FFF000
03F000
03F000
07F000
07E000
07E000
07E000
0FE000
0FC000
0FC000
0FC000
0FC000
1FC000
0FC080
0FFF80
0FFF80
0FFF80
07FF80
03FF80
002000
ENDCHAR
STARTCHAR 012A
ENCODING 298
SWIDTH 500 0
DWIDTH 25 0
BBX 27 39 2 0
BITMAP
000FFFC0
000FFFC0
001FFFC0
001FFFC0
00000000
00000000
00000000
00000000
01FFFFE0
01FFFFC0
01FFFFC0
03FFFFC0
03FFFFC0
0007E000
000FE000
000FC000
000FC000
000FC000
001FC000
001F8000
001F8000
001F8000
003F8000
003F0000
003F0000
003F0000
003F0000
007E0000
007E0000
007E0000
007E0000
00FE0000
00FC0000
00FC0000
7FFFF000
7FFFF000
FFFFF000
FFFFF000
FFFFF000
ENDCHAR
STARTCHAR 012B
ENCODING 299
SWIDTH 500 0
DWIDTH 25 0
BBX 19 33 6 -1
BITMAP
07FFE0
0FFFE0
0FFFE0
0FFFC0
000000
000000
000000
000000
7FF800
7FF800
FFF800
FFF800
FFF800
FFF000
03F000
03F000
07F000
07E000
07E000
07E000
0FE000
0FC000
0FC000
0FC000
0FC000
1FC000
0FC080
0FFF80
0FFF80
0FFF80
07FF80
03FF80
002000
ENDCHAR
STARTCHAR 012C
ENCODING 300
SWIDTH 500 0
DWIDTH 25 0
BBX 27 41 2 0
BITMAP
000F87C0
000F87C0
000F8FC0
000FFF80
0007FF00
0007FE00
0001FC00
00000000
00000000
00000000
01FFFFE0
01FFFFC0
01FFFFC0
03FFFFC0
03FFFFC0
0007E000
000FE000
000FC000
000FC000
000FC000
001FC000
001F8000
001F8000
001F8000
003F8000
003F0000
003F0000
003F0000
003F0000
007E0000
007E0000
007E0000
007E0000
00FE0000
00FC0000
00FC0000
7FFFF000
7FFFF000
FFFFF000
FFFFF000
FFFFF000
ENDCHAR
STARTCHAR 012D
ENCODING 301
SWIDTH 500 0
DWIDTH 25 0
BBX 19 35 6 -1
BITMAP
07C1E0
07C3E0
07C3E0
03FFC0
03FFC0
01FF80
00FE00
000000
000000
000000
7FF800
7FF800
FFF800
FFF800
FFF800
FFF000
03F000
03F000
07F000
07E000
07E000
07E000
0FE000
0FC000
0FC000
0FC000
0FC000
1FC000
0FC080
0FFF80
0FFF80
0FFF80
07FF80
03FF80
002000
ENDCHAR
STARTCHAR 012E
ENCODING 302
SWIDTH 500 0
DWIDTH 25 0
BBX 27 40 2 -9
BITMAP
01FFFFE0
01FFFFC0
01FFFFC0
03FFFFC0
03FFFFC0
0007E000
000FE000
000FC000
000FC000
000FC000
001FC000
001F8000
001F8000
001F8000
003F8000
003F0000
003F0000
003F0000
003F0000
007E0000
007E0000
007E0000
007E0000
00FE0000
00FC0000
00FC0000
7FFFF000
7FFFF000
FFFFF000
FFFFF000
FFFFF000
03F00000
07E00000
0FC00000
1F800000
1F800000
3FF00000
1FF00000
1FF00000
03000000
ENDCHAR
STARTCHAR 012F
ENCODING 303
SWIDTH 500 0
DWIDTH 25 0
BBX 17 43 6 -9
BITMAP
007C00
00FC00
01FE00
01FE00
01FE00
01FC00
00F800
006000
000000
000000
7FF800
7FF800
FFF800
FFF800
FFF800
FFF000
03F000
03F000
07F000
07E000
07E000
07E000
0FE000
0FC000
0FC000
0FC000
0FC000
1FC000
0FC080
0FFF80
0FFF80
0FFF80
07FF80
03FF80
007E00
00FC00
01F800
03F000
03F000
03FE00
03FE00
03FE00
002000
ENDCHAR
STARTCHAR 0130
ENCODING 304
SWIDTH 500 0
DWIDTH 25 0
BBX 27 41 2 0
BITMAP
00007000
0000F800
0001FC00
0001FC00
0001F800
0001F800
0000F000
00000000
00000000
00000000
01FFFFE0
01FFFFC0
01FFFFC0
03FFFFC0
03FFFFC0
0007E000
000FE000
000FC000
000FC000
000FC000
001FC000
001F8000
001F8000
001F8000
003F8000
003F0000
003F0000
003F0000
003F0000
007E0000
007E0000
007E0000
007E0000
00FE0000
00FC0000
00FC0000
7FFFF000
7FFFF000
FFFFF000
FFFFF000
FFFFF000
ENDCHAR
STARTCHAR 0131
ENCODING 305
SWIDTH 500 0
DWIDTH 25 0
BBX 17 25 6 -1
BITMAP
7FF800
7FF800
FFF800
FFF800
FFF800
FFF000
03F000
03F000
07F000
07E000
07E000
07E000
0FE000
0FC000
0FC000
0FC000
0FC000
1FC000
0FC080
0FFF80
0FFF80
0FFF80
07FF80
03FF80
002000
ENDCHAR
STARTCHAR 0132
ENCODING 306
SWIDTH 500 0
DWIDTH 25 0
BBX 29 32 1 -1
BITMAP
01F801F8
01F801F8
01F001F8
03F001F0
03F003F0
03F003F0
03E003F0
07E003E0
07E007E0
07E007E0
07C007E0
0FC007C0
0FC00FC0
0FC00FC0
0F800FC0
1F800F80
1F801F80
1F801F80
1F001F80
3F001F00
3F003F00
3F003F00
3E003F00
7E003F00
7E007E00
7E207E00
7E79FC00
FCFFFC00
FDFFF800
FCFFF000
FC7FE000
00070000
ENDCHAR
STARTCHAR 0133
ENCODING 307
SWIDTH 500 0
DWIDTH 25 0
BBX 26 42 3 -8
BITMAP
00780F00
01FC1F80
01FC3F80
01FC3FC0
01FC3F80
01FC3F80
01F83F00
00600C00
00000000
00000000
03F07E00
03F07E00
03F07E00
07E0FE00
07E0FC00
07E0FC00
07E0FC00
0FE1FC00
0FC1F800
0FC1F800
0FC1F800
1FC3F800
1F83F000
1F83F000
1F83F000
3F83F000
3F07F000
3F07E000
3F07E000
7F07E000
7E0FE000
7E0FC000
7E0FC000
FE0FC000
001FC000
001F8000
067F8000
07FF0000
07FF0000
0FFE0000
0FFC0000
0FF00000
ENDCHAR
STARTCHAR 0134
ENCODING 308
SWIDTH 500 0
DWIDTH 25 0
BBX 26 42 2 0
BITMAP
00001800
00003C00
00007E00
0001FF00
0003FF80
0007EF80
0007C7C0
00030380
00000000
00000000
003FFFC0
007FFFC0
007FFF80
007FFF80
007FFF80
00003F80
00003F00
00003F00
00003F00
00007F00
00007E00
00007E00
00007E00
00007E00
0000FC00
0000FC00
0000FC00
0000FC00
0001F800
0001F800
0001F800
0001F800
0003F000
0003F000
3007F000
380FE000
7FFFE000
FFFFC000
FFFF8000
7FFF0000
1FFE0000
01E00000
ENDCHAR
STARTCHAR 0135
ENCODING 309
SWIDTH 500 0
DWIDTH 25 0
BBX 25 44 0 -9
BITMAP
00001000
00003000
00007800
0000FC00
0003FE00
0007FF00
000FDF00
000F8F80
00060700
00000000
00000000
00FFFF00
00FFFE00
00FFFE00
01FFFE00
01FFFE00
01FFFE00
0000FC00
0000FC00
0000FC00
0001FC00
0001F800
0001F800
0001F800
0003F800
0003F000
0003F000
0003F000
0007F000
0007E000
0007E000
0007E000
000FE000
000FC000
000FC000
000FC000
001FC000
703F8000
7FFF8000
7FFF0000
FFFE0000
FFFC0000
3FF80000
01800000
ENDCHAR
STARTCHAR 0136
ENCODING 310
SWIDTH 500 0
DWIDTH 25 0
BBX 28 40 2 -9
BITMAP
01F807F0
01F80FE0
03F81FC0
03F01FC0
03F03F80
03F07F00
07F0FE00
07E1FC00
07E3F800
07E7F000
0FE7E000
0FCFE000
0FFF8000
0FFF0000
1FFE0000
1FFE0000
1FFF0000
1FBF8000
1FBF8000
3F1FC000
3F0FC000
3F0FE000
3F07E000
7F07F000
7E03F000
7E03F000
7E03F800
FE01F800
FC01F800
FC01FC00
FC01FC00
00000000
00000000
01F00000
01F00000
03E00000
1FE00000
3FC00000
3F800000
08000000
ENDCHAR
STARTCHAR 0137
ENCODING 311
SWIDTH 500 0
DWIDTH 25 0
BBX 25 44 3 -9
BITMAP
00040000
00FC0000
00FC0000
01F80000
01F80000
01F80000
01F80000
03F00000
03F00000
03F00000
03F00000
07F03F80
07E07F00
07E07F00
07E0FE00
0FE1FC00
0FC3F800
0FC7F000
0FCFE000
1FFFC000
1FFF0000
1FFE0000
1FFC0000
3FFE0000
3F7F0000
3F3F0000
3F3F8000
7F1F8000
7E1FC000
7E0FC000
7E0FE000
7E07E000
FE07F000
FC03F000
FC03F800
00000000
00000000
01F00000
01F00000
03E00000
1FE00000
3FC00000
3F800000
08000000
ENDCHAR
STARTCHAR 0138
ENCODING 312
SWIDTH 500 0
DWIDTH 25 0
BBX 25 24 3 0
BITMAP
07F03F80
07E07F00
07E07F00
07E0FE00
0FE1FC00
0FC3F800
0FC7F000
0FCFE000
1FFFC000
1FFF0000
1FFE0000
1FFC0000
3FFE0000
3F7F0000
3F3F0000
3F3F8000
7F1F8000
7E1FC000
7E0FC000
7E0FE000
7E07E000
FE07F000
FC03F000
FC03F800
ENDCHAR
STARTCHAR 0139
ENCODING 313
SWIDTH 500 0
DWIDTH 25 0
BBX 21 41 2 1
BITMAP
000180
000380
000FC0
001FE0
007FE0
00FF80
007E00
003800
002000
000000
00FC00
01F800
01F800
01F800
01F800
03F800
03F000
03F000
03F000
07F000
07E000
07E000
07E000
0FE000
0FC000
0FC000
0FC000
1FC000
1F8000
1F8000
1F8000
1F8000
3F0000
3F0000
3F0000
3F0000
7FFFF8
7FFFF0
7FFFF0
7FFFF0
FFFFF0
ENDCHAR
STARTCHAR 013A
ENCODING 314
SWIDTH 500 0
DWIDTH 25 0
BBX 17 42 7 0
BITMAP
000300
000F80
003F80
00FF80
01FF00
01F800
018000
000000
000000
7FF800
FFF800
FFF800
FFF800
FFF000
03F000
03F000
03F000
07F000
07E000
07E000
07E000
0FE000
0FC000
0FC000
0FC000
1FC000
1F8000
1F8000
1F8000
3F8000
3F0000
3F0000
3F0000
3F0000
3F0000
3F0200
3FFE00
3FFF00
3FFF00
1FFF00
0FFE00
008000
ENDCHAR
STARTCHAR 013B
ENCODING 315
SWIDTH 500 0
DWIDTH 25 0
BBX 21 40 2 -9
BITMAP
00FC00
01F800
01F800
01F800
01F800
03F800
03F000
03F000
03F000
07F000
07E000
07E000
07E000
0FE000
0FC000
0FC000
0FC000
1FC000
1F8000
1F8000
1F8000
1F8000
3F0000
3F0000
3F0000
3F0000
7FFFF8
7FFFF0
7FFFF0
7FFFF0
FFFFF0
000000
000000
00F800
00F800
01F000
0FF000
1FE000
1FC000
040000
ENDCHAR
STARTCHAR 013C
ENCODING 316
SWIDTH 500 0
DWIDTH 25 0
BBX 16 43 7 -9
BITMAP
7FFC
7FFC
7FF8
7FF8
FFF8
01F8
03F0
03F0
03F0
03F0
07F0
07E0
07E0
07E0
0FE0
0FC0
0FC0
0FC0
1FC0
1F80
1F80
1F80
3F80
3F00
3F00
3F00
3F00
3F00
3F02
3FFE
3FFF
3FFF
1FFF
0FFE
0080
0000
03C0
07C0
07C0
7FC0
7F80
7F00
1000
ENDCHAR
STARTCHAR 013D
ENCODING 317
SWIDTH 500 0
DWIDTH 25 0
BBX 23 31 2 0
BITMAP
00FC3E
01F83E
01F87E
01F87C
01F87C
03F87C
03F078
03F0F8
03F0F0
07F0F0
07E0F0
07E000
07E000
0FE000
0FC000
0FC000
0FC000
1FC000
1F8000
1F8000
1F8000
1F8000
3F0000
3F0000
3F0000
3F0000
7FFFF8
7FFFF0
7FFFF0
7FFFF0
FFFFF0
ENDCHAR
STARTCHAR 013E
ENCODING 318
SWIDTH 500 0
DWIDTH 25 0
BBX 24 36 7 -1
BITMAP
00003F
7FFC3E
7FFC3E
7FF87E
7FF87C
FFF87C
01F878
03F078
03F0F8
03F0F0
03F0F0
07F000
07E000
07E000
07E000
0FE000
0FC000
0FC000
0FC000
1FC000
1F8000
1F8000
1F8000
3F8000
3F0000
3F0000
3F0000
3F0000
3F0000
3F0200
3FFE00
3FFF00
3FFF00
1FFF00
0FFE00
008000
ENDCHAR
STARTCHAR 013F
ENCODING 319
SWIDTH 500 0
DWIDTH 25 0
BBX 23 31 2 0
BITMAP
00FC00
01F800
01F800
01F800
01F800
03F800
03F000
03F000
03F000
07F000
07E000
07E038
07E0FC
0FE0FE
0FC0FE
0FC0FC
0FC0FC
1FC078
1F8000
1F8000
1F8000
1F8000
3F0000
3F0000
3F0000
3F0000
7FFFF8
7FFFF0
7FFFF0
7FFFF0
FFFFF0
ENDCHAR
STARTCHAR 0140
ENCODING 320
SWIDTH 500 0
DWIDTH 25 0
BBX 23 35 7 -1
BITMAP
7FFC00
7FFC00
7FF800
7FF800
FFF800
01F800
03F000
03F000
03F000
03F000
07F000
07E000
07E000
07E000
0FE038
0FC07C
0FC0FE
0FC0FE
1FC0FE
1F80FC
1F8078
1F8000
3F8000
3F0000
3F0000
3F0000
3F0000
3F0000
3F0200
3FFE00
3FFF00
3FFF00
1FFF00
0FFE00
008000
ENDCHAR
STARTCHAR 0141
ENCODING 321
SWIDTH 500 0
DWIDTH 25 0
BBX 21 31 2 0
BITMAP
007E00
007E00
007E00
007E00
00FE00
00FC00
00FC00
00FC00
01FC40
01FBC0
01FFE0
01FFE0
03FFE0
03FF80
0FFC00
3FF000
FFF000
7FE000
7FE000
77E000
47E000
0FC000
0FC000
0FC000
0FC000
1FC000
1FFFF8
1FFFF0
1FFFF0
3FFFF0
3FFFF0
ENDCHAR
STARTCHAR 0142
ENCODING 322
SWIDTH 500 0
DWIDTH 25 0
BBX 17 35 6 -1
BITMAP
3FFE00
3FFE00
3FFC00
3FFC00
7FFC00
00FC00
01F800
01F800
01F800
01F800
03FF00
03FF80
03FF80
03FF80
0FFE00
3FF000
FFE000
7FE000
7FE000
6FC000
0FC000
0FC000
1FC000
1F8000
1F8000
1F8000
1F8000
1F8000
1F8100
1FFF00
1FFF80
1FFF80
0FFF80
07FF00
004000
ENDCHAR
STARTCHAR 0143
ENCODING 323
SWIDTH 500 0
DWIDTH 25 0
BBX 28 42 1 0
BITMAP
00000200
00000600
00000F00
00003F00
00007F80
0000FF80
0001FE00
0001F800
0000E000
00000000
00000000
00F801F0
01F803F0
01FC03F0
01FC03E0
01FC03E0
03FE07E0
03FE07E0
03FE07C0
03FE07C0
07FF07C0
07FF0FC0
07CF0FC0
07CF0F80
0FCF8F80
0FCF9F80
0F879F80
0F879F00
0F87DF00
1F87FF00
1F83FF00
1F03FE00
1F03FE00
3F03FE00
3F03FE00
3E01FC00
3E01FC00
7E01FC00
7E01FC00
7C01F800
7C00F800
FC00F800
ENDCHAR
STARTCHAR 0144
ENCODING 324
SWIDTH 500 0
DWIDTH 25 0
BBX 23 34 2 1
BITMAP
000030
000078
0000FC
0003FC
0007FC
000FF0
0007C0
000700
000000
000000
003FE0
03FFF8
07FFFC
07FFFC
07FFFE
07F1FE
0FE0FE
0FC0FE
0FC07E
0FC0FE
1FC0FC
1F80FC
1F80FC
1F80FC
3F81F8
3F01F8
3F01F8
3F01F8
3F03F0
7E03F0
7E03F0
7E03F0
7E07E0
FC07E0
ENDCHAR
STARTCHAR 0145
ENCODING 325
SWIDTH 500 0
DWIDTH 25 0
BBX 28 40 1 -9
BITMAP
00F801F0
01F803F0
01FC03F0
01FC03E0
01FC03E0
03FE07E0
03FE07E0
03FE07C0
03FE07C0
07FF07C0
07FF0FC0
07CF0FC0
07CF0F80
0FCF8F80
0FCF9F80
0F879F80
0F879F00
0F87DF00
1F87FF00
1F83FF00
1F03FE00
1F03FE00
3F03FE00
3F03FE00
3E01FC00
3E01FC00
7E01FC00
7E01FC00
7C01F800
7C00F800
FC00F800
00000000
00000000
00F80000
00F80000
01F00000
0FF00000
1FE00000
1FC00000
04000000
ENDCHAR
STARTCHAR 0146
ENCODING 326
SWIDTH 500 0
DWIDTH 25 0
BBX 23 33 2 -9
BITMAP
003FE0
03FFF8
07FFFC
07FFFC
07FFFE
07F1FE
0FE0FE
0FC0FE
0FC07E
0FC0FE
1FC0FC
1F80FC
1F80FC
1F80FC
3F81F8
3F01F8
3F01F8
3F01F8
3F03F0
7E03F0
7E03F0
7E03F0
7E07E0
FC07E0
000000
000000
01F000
01F000
03E000
1FE000
3FC000
3F8000
080000
ENDCHAR
STARTCHAR 0147
ENCODING 327
SWIDTH 500 0
DWIDTH 25 0
BBX 28 41 1 1
BITMAP
00018180
0007C3C0
0003EFC0
0001FF80
0001FF00
0000FE00
00007800
00003000
00000000
00000000
00F801F0
01F803F0
01FC03F0
01FC03E0
01FC03E0
03FE07E0
03FE07E0
03FE07C0
03FE07C0
07FF07C0
07FF0FC0
07CF0FC0
07CF0F80
0FCF8F80
0FCF9F80
0F879F80
0F879F00
0F87DF00
1F87FF00
1F83FF00
1F03FE00
1F03FE00
3F03FE00
3F03FE00
3E01FC00
3E01FC00
7E01FC00
7E01FC00
7C01F800
7C00F800
FC00F800
ENDCHAR
STARTCHAR 0148
ENCODING 328
SWIDTH 500 0
DWIDTH 25 0
BBX 23 34 2 1
BITMAP
000C0E
001E1E
001F7E
000FFC
0007F8
0007F0
0003C0
000180
000000
000000
003FE0
03FFF8
07FFFC
07FFFC
07FFFE
07F1FE
0FE0FE
0FC0FE
0FC07E
0FC0FE
1FC0FC
1F80FC
1F80FC
1F80FC
3F81F8
3F01F8
3F01F8
3F01F8
3F03F0
7E03F0
7E03F0
7E03F0
7E07E0
FC07E0
ENDCHAR
STARTCHAR 0149
ENCODING 329
SWIDTH 500 0
DWIDTH 25 0
BBX 22 35 3 0
BITMAP
03E000
03E000
07E000
07E000
07C000
0FC000
0F8000
1F8000
1F0000
0E0000
000000
007FC0
07FFF0
07FFF8
07FFFC
07FFFC
0FF1FC
0FC0FC
0FC0FC
0FC0FC
1FC0FC
1F80FC
1F80FC
1F81FC
3F81F8
3F01F8
3F01F8
3F03F8
7F03F0
7E03F0
7E03F0
7E07F0
FE07E0
FC07E0
FC07E0
ENDCHAR
STARTCHAR 014A
ENCODING 330
SWIDTH 500 0
DWIDTH 25 0
BBX 28 39 1 -8
BITMAP
00F801F0
01F803F0
01FC03F0
01FC03E0
01FC03E0
03FE07E0
03FE07E0
03FE07C0
03FE07C0
07FF07C0
07FF0FC0
07CF0FC0
07CF0F80
0FCF8F80
0FCF9F80
0F879F80
0F879F00
0F87DF00
1F87FF00
1F03FF00
1F03FE00
1F03FE00
3F03FE00
3F03FE00
3E01FC00
3E01FC00
7E01FC00
7E01FC00
7C01F800
7C00F800
FC00F800
0001F800
0001F000
0003F000
007FF000
007FE000
00FFC000
00FFC000
00FF0000
ENDCHAR
STARTCHAR 014B
ENCODING 331
SWIDTH 500 0
DWIDTH 25 0
BBX 23 32 2 -8
BITMAP
007FC0
03FFF0
07FFF8
07FFFC
07FFFE
07E1FE
0FE0FE
0FC0FE
0FC07E
0FC0FE
1FC0FC
1F80FC
1F80FC
1F80FC
3F81F8
3F01F8
3F01F8
3F01F8
3F03F8
7E03F0
7E03F0
7E03F0
7E07F0
FC07E0
0007E0
000FE0
000FC0
00FFC0
01FFC0
01FF80
01FF00
03FE00
ENDCHAR
STARTCHAR 014C
ENCODING 332
SWIDTH 500 0
DWIDTH 25 0
BBX 25 40 3 -1
BITMAP
001FFF80
001FFF80
003FFF80
003FFF80
00000000
00000000
00000000
00038000
003FF000
00FFF800
01FFFC00
03FFFE00
07FFFE00
07F07F00
0FE07F00
0FC03F00
1FC03F00
1F803F00
3F803F00
3F003F00
3F003F00
7F003F00
7E007F00
7E007E00
7E007E00
7E007E00
7E00FE00
FE00FC00
FE00FC00
FE01FC00
FE01F800
FE03F800
7E07F000
7F0FF000
7FFFE000
3FFFC000
3FFF8000
1FFF0000
0FFC0000
01E00000
ENDCHAR
STARTCHAR 014D
ENCODING 333
SWIDTH 500 0
DWIDTH 25 0
BBX 23 33 3 -1
BITMAP
007FFE
00FFFE
00FFFC
00FFFC
000000
000000
000000
000000
003FC0
00FFE0
03FFF0
07FFF8
0FFFFC
1FE3FC
1FC1FC
3F80FC
3F00FC
7E00FC
7E00FC
7E00FC
7E00FC
FC00FC
FC01F8
FC01F8
FE03F8
FE07F0
7E0FF0
7FFFE0
7FFFC0
3FFF80
3FFF00
0FFC00
03C000
ENDCHAR
STARTCHAR 014E
ENCODING 334
SWIDTH 500 0
DWIDTH 25 0
BBX 25 42 3 -1
BITMAP
001F0780
001F0F80
001F0F80
000FFF00
000FFF00
0007FE00
0003F800
00000000
00000000
00038000
003FF000
00FFF800
01FFFC00
03FFFE00
07FFFE00
07F07F00
0FE07F00
0FC03F00
1FC03F00
1F803F00
3F803F00
3F003F00
3F003F00
7F003F00
7E007F00
7E007E00
7E007E00
7E007E00
7E00FE00
FE00FC00
FE00FC00
FE01FC00
FE01F800
FE03F800
7E07F000
7F0FF000
7FFFE000
3FFFC000
3FFF8000
1FFF0000
0FFC0000
01E00000
ENDCHAR
STARTCHAR 014F
ENCODING 335
SWIDTH 500 0
DWIDTH 25 0
BBX 23 35 3 -1
BITMAP
007C1E
007C3E
007C7E
007FFC
003FFC
001FF8
000FE0
000000
000000
000000
003FC0
00FFE0
03FFF0
07FFF8
0FFFFC
1FE3FC
1FC1FC
3F80FC
3F00FC
7E00FC
7E00FC
7E00FC
7E00FC
FC00FC
FC01F8
FC01F8
FE03F8
FE07F0
7E0FF0
7FFFE0
7FFFC0
3FFF80
3FFF00
0FFC00
03C000
ENDCHAR
STARTCHAR 0150
ENCODING 336
SWIDTH 500 0
DWIDTH 25 0
BBX 29 42 3 0
BITMAP
00018060
000380E0
000FC3F0
001FE7F8
003F8FE0
007F1FC0
007C1F00
00380E00
00000000
00038000
003FF000
00FFF800
01FFFC00
03FFFE00
07FFFE00
07F07F00
0FE07F00
0FC03F00
1FC03F00
1F803F00
3F803F00
3F003F00
3F003F00
7F003F00
7E007F00
7E007E00
7E007E00
7E007E00
7E00FE00
FE00FC00
FE00FC00
FE01FC00
FE01F800
FE03F800
7E07F000
7F0FF000
7FFFE000
3FFFC000
3FFF8000
1FFF0000
0FFC0000
01E00000
ENDCHAR
STARTCHAR 0151
ENCODING 337
SWIDTH 500 0
DWIDTH 25 0
BBX 26 35 3 0
BITMAP
000C0300
001E0780
003F0FC0
007F1FC0
00FE3F80
01F87E00
01F07C00
00C03000
00000000
00000000
003FC000
00FFE000
03FFF000
07FFF800
0FFFFC00
1FE3FC00
1FC1FC00
3F80FC00
3F00FC00
7E00FC00
7E00FC00
7E00FC00
7E00FC00
FC00FC00
FC01F800
FC01F800
FE03F800
FE07F000
7E0FF000
7FFFE000
7FFFC000
3FFF8000
3FFF0000
0FFC0000
03C00000
ENDCHAR
STARTCHAR 0152
ENCODING 338
SWIDTH 500 0
DWIDTH 25 0
BBX 27 31 3 0
BITMAP
003FFFE0
00FFFFE0
01FFFFE0
03FFFFE0
07FFFFC0
0FF1F800
0FC1F000
1FC3F000
1F83F000
3F03F000
3F03E000
7F03E000
7E07FE00
7E07FE00
7E07FE00
FC07FE00
FC0FFC00
FC0FC000
FC0F8000
FC0F8000
FC1F8000
F81F8000
F81F0000
FC1F0000
FC3F0000
FE3F0000
FFFFFC00
7FFFFC00
7FFFF800
3FFFF800
0FFFF800
ENDCHAR
STARTCHAR 0153
ENCODING 339
SWIDTH 500 0
DWIDTH 25 0
BBX 26 25 2 -1
BITMAP
00F81F00
03FE7F80
07FEFF80
0FFFFFC0
1FFFE7C0
1F9FC7C0
3E1F87C0
3E0F87C0
7C0F0780
7C1F0F80
781F1F00
F81FFF00
F81FFE00
F81FFC00
F83FF000
F83F0000
F83E0000
F87E0000
F8FE0000
FFFF0400
FFFFFC00
7FEFFC00
7FC7FE00
3F83FC00
0E00E000
ENDCHAR
STARTCHAR 0154
ENCODING 340
SWIDTH 500 0
DWIDTH 25 0
BBX 25 41 2 1
BITMAP
00001800
00003C00
00007E00
0001FE00
0003FE00
0007F800
0007E000
00038000
00000000
00000000
01FFF000
01FFFC00
03FFFE00
03FFFF00
03FFFF00
03F07F00
03F03F80
07E03F80
07E03F80
07E03F80
07E03F00
0FC03F00
0FC07F00
0FC0FE00
0FFFFE00
1FFFFC00
1FFFF800
1FFFE000
1FFF8000
3FFFC000
3F0FC000
3F07E000
3F07E000
7F07E000
7E03F000
7E03F000
7E03F000
7E01F800
FC01F800
FC01F800
FC01F800
ENDCHAR
STARTCHAR 0155
ENCODING 341
SWIDTH 500 0
DWIDTH 25 0
BBX 23 34 4 1
BITMAP
000060
0000F0
0001F8
0007F8
000FF8
001FE0
000F80
000E00
000000
000000
003FF8
03FFFE
07FFFC
0FFFFC
0FFFF8
0FFFF8
0FC000
1FC000
1F8000
1F8000
1F8000
3F8000
3F0000
3F0000
3F0000
7F0000
7E0000
7E0000
7E0000
7E0000
FC0000
FC0000
FC0000
FC0000
ENDCHAR
STARTCHAR 0156
ENCODING 342
SWIDTH 500 0
DWIDTH 25 0
BBX 25 40 2 -9
BITMAP
01FFF000
01FFFC00
03FFFE00
03FFFF00
03FFFF00
03F07F00
03F03F80
07E03F80
07E03F80
07E03F80
07E03F00
0FC03F00
0FC07F00
0FC0FE00
0FFFFE00
1FFFFC00
1FFFF800
1FFFE000
1FFF8000
3FFFC000
3F0FC000
3F07E000
3F07E000
7F07E000
7E03F000
7E03F000
7E03F000
7E01F800
FC01F800
FC01F800
FC01F800
00000000
00000000
01F00000
01F00000
03E00000
1FE00000
3FC00000
3F800000
08000000
ENDCHAR
STARTCHAR 0157
ENCODING 343
SWIDTH 500 0
DWIDTH 25 0
BBX 29 33 -2 -9
BITMAP
0000FFE0
000FFFF8
001FFFF0
003FFFF0
003FFFE0
003FFFE0
003F0000
007F0000
007E0000
007E0000
007E0000
00FE0000
00FC0000
00FC0000
00FC0000
01FC0000
01F80000
01F80000
01F80000
01F80000
03F00000
03F00000
03F00000
03F00000
00000000
00000000
07C00000
07C00000
0FC00000
7F800000
7F000000
FE000000
20000000
ENDCHAR
STARTCHAR 0158
ENCODING 344
SWIDTH 500 0
DWIDTH 25 0
BBX 25 41 2 1
BITMAP
000C0E00
001E1E00
001F7F00
000FFC00
0007F800
0007F000
0003C000
00018000
00000000
00000000
01FFF000
01FFFC00
03FFFE00
03FFFF00
03FFFF00
03F07F00
03F03F80
07E03F80
07E03F80
07E03F80
07E03F00
0FC03F00
0FC07F00
0FC0FE00
0FFFFE00
1FFFFC00
1FFFF800
1FFFE000
1FFF8000
3FFFC000
3F0FC000
3F07E000
3F07E000
7F07E000
7E03F000
7E03F000
7E03F000
7E01F800
FC01F800
FC01F800
FC01F800
ENDCHAR
STARTCHAR 0159
ENCODING 345
SWIDTH 500 0
DWIDTH 25 0
BBX 23 35 4 0
BITMAP
000800
001C0C
003E3E
003F7E
001FFC
000FF0
0007E0
0003C0
000180
000000
000000
003FF8
03FFFE
07FFFC
0FFFFC
0FFFF8
0FFFF8
0FC000
1FC000
1F8000
1F8000
1F8000
3F8000
3F0000
3F0000
3F0000
7F0000
7E0000
7E0000
7E0000
7E0000
FC0000
FC0000
FC0000
FC0000
ENDCHAR
STARTCHAR 015A
ENCODING 346
SWIDTH 500 0
DWIDTH 25 0
BBX 25 42 2 0
BITMAP
00001800
00003C00
00007E00
0001FE00
0003FE00
0007F800
0007E000
00038000
00000000
0003C000
003FFE00
007FFF80
01FFFF80
01FFFF00
03FFFF00
07F00600
07E00000
07E00000
07E00000
07E00000
07F00000
07F80000
07FE0000
03FF8000
01FFC000
00FFF000
007FF000
001FF800
0007F800
0003FC00
0001FC00
0001FC00
0000FC00
0001FC00
2001F800
7803F800
7FFFF800
FFFFF000
FFFFE000
FFFFC000
3FFF0000
01F00000
ENDCHAR
STARTCHAR 015B
ENCODING 347
SWIDTH 500 0
DWIDTH 25 0
BBX 22 35 3 0
BITMAP
000060
0000F0
0001F8
0007F8
000FF8
001FE0
000F80
000E00
000000
000000
003FF0
01FFFC
03FFFC
07FFF8
07FFF8
0FE030
0FC000
0FC000
0FE000
0FF000
0FFE00
07FF80
03FFC0
00FFE0
003FE0
000FF0
0007F0
0007F0
7007E0
7FFFE0
FFFFE0
FFFFC0
FFFF80
3FFE00
01E000
ENDCHAR
STARTCHAR 015C
ENCODING 348
SWIDTH 500 0
DWIDTH 25 0
BBX 25 42 2 0
BITMAP
00003000
00007800
0000FC00
0003FE00
0007FE00
000FDF00
000F0F80
00060600
00000000
0003C000
003FFE00
007FFF80
01FFFF80
01FFFF00
03FFFF00
07F00600
07E00000
07E00000
07E00000
07E00000
07F00000
07F80000
07FE0000
03FF8000
01FFC000
00FFF000
007FF000
001FF800
0007F800
0003FC00
0001FC00
0001FC00
0000FC00
0001FC00
2001F800
7803F800
7FFFF800
FFFFF000
FFFFE000
FFFFC000
3FFF0000
01F00000
ENDCHAR
STARTCHAR 015D
ENCODING 349
SWIDTH 500 0
DWIDTH 25 0
BBX 22 35 3 0
BITMAP
0000C0
0003E0
0007F0
000FF0
001FF8
007F7C
003C3C
003818
000000
000000
003FF0
01FFFC
03FFFC
07FFF8
07FFF8
0FE030
0FC000
0FC000
0FE000
0FF000
0FFE00
07FF80
03FFC0
00FFE0
003FE0
000FF0
0007F0
0007F0
7007E0
7FFFE0
FFFFE0
FFFFC0
FFFF80
3FFE00
01E000
ENDCHAR
STARTCHAR 015E
ENCODING 350
SWIDTH 500 0
DWIDTH 25 0
BBX 25 41 2 -9
BITMAP
0003C000
003FFE00
007FFF80
01FFFF80
01FFFF00
03FFFF00
07F00600
07E00000
07E00000
07E00000
07E00000
07F00000
07F80000
07FE0000
03FF8000
01FFC000
00FFF000
007FF000
001FF800
0007F800
0003FC00
0001FC00
0001FC00
0000FC00
0001FC00
2001F800
7803F800
7FFFF000
FFFFF000
FFFFE000
FFFFC000
3FFF0000
01F00000
03E00000
01F00000
00F00000
00F00000
1FF00000
3FF00000
3FE00000
02000000
ENDCHAR
STARTCHAR 015F
ENCODING 351
SWIDTH 500 0
DWIDTH 25 0
BBX 22 33 3 -9
BITMAP
003FF0
01FFFC
03FFFC
07FFF8
07FFF8
0FE030
0FC000
0FC000
0FE000
0FF000
0FFE00
07FF80
03FFC0
00FFE0
003FE0
000FF0
0007F0
0007F0
7007E0
7FFFE0
FFFFE0
FFFFC0
FFFF80
3FFE00
03E000
03C000
03E000
01F000
01F000
3FF000
3FE000
7FC000
040000
ENDCHAR
STARTCHAR 0160
ENCODING 352
SWIDTH 500 0
DWIDTH 25 0
BBX 25 42 2 0
BITMAP
00030300
000F8780
0007DF80
0007FF00
0003FE00
0001F800
0000F000
00006000
00004000
0003C000
003FFE00
007FFF80
01FFFF80
01FFFF00
03FFFF00
07F00600
07E00000
07E00000
07E00000
07E00000
07F00000
07F80000
07FE0000
03FF8000
01FFC000
00FFF000
007FF000
001FF800
0007F800
0003FC00
0001FC00
0001FC00
0000FC00
0001FC00
2001F800
7803F800
7FFFF800
FFFFF000
FFFFE000
FFFFC000
3FFF0000
01F00000
ENDCHAR
STARTCHAR 0161
ENCODING 353
SWIDTH 500 0
DWIDTH 25 0
BBX 23 36 3 -1
BITMAP
000800
001C0C
003E3E
003F7E
001FFC
000FF0
0007E0
0003C0
000380
000000
000000
003FF0
01FFFC
03FFFC
07FFF8
07FFF8
0FE030
0FC000
0FC000
0FE000
0FF000
0FFE00
07FF80
03FFC0
00FFE0
003FE0
000FF0
0007F0
0007F0
7007E0
7FFFE0
FFFFE0
FFFFC0
FFFF80
3FFE00
01E000
ENDCHAR
STARTCHAR 0162
ENCODING 354
SWIDTH 500 0
DWIDTH 25 0
BBX 26 40 4 -9
BITMAP
0FFFFFC0
1FFFFFC0
1FFFFFC0
1FFFFF80
1FFFFF80
001F8000
003F0000
003F0000
003F0000
003F0000
007E0000
007E0000
007E0000
007E0000
00FE0000
00FC0000
00FC0000
00FC0000
01FC0000
01F80000
01F80000
01F80000
03F80000
03F00000
03F00000
03F00000
07F00000
07E00000
07E00000
07E00000
07E00000
07800000
07800000
07C00000
03E00000
03E00000
7FE00000
7FC00000
FF800000
08000000
ENDCHAR
STARTCHAR 0163
ENCODING 355
SWIDTH 500 0
DWIDTH 25 0
BBX 21 39 5 -9
BITMAP
00F800
01F800
01F800
03F800
03F000
03F000
7FFFF8
7FFFF8
7FFFF0
FFFFF0
FFFFF0
FFFFF0
0FC000
0FC000
0FC000
0FC000
1FC000
1F8000
1F8000
1F8000
3F8000
3F0000
3F0000
3F0000
3F8080
3FFF80
3FFF80
1FFF80
0FFF80
07FF00
01F000
01F000
01F800
00F800
00F800
0FF800
1FF000
1FE000
020000
ENDCHAR
STARTCHAR 0164
ENCODING 356
SWIDTH 500 0
DWIDTH 25 0
BBX 23 41 7 1
BITMAP
006060
01F0F0
00FBF0
007FE0
007FC0
003F80
001E00
000C00
000000
000000
7FFFFE
FFFFFE
FFFFFE
FFFFFC
FFFFFC
00FC00
01F800
01F800
01F800
01F800
03F000
03F000
03F000
03F000
07F000
07E000
07E000
07E000
0FE000
0FC000
0FC000
0FC000
1FC000
1F8000
1F8000
1F8000
3F8000
3F0000
3F0000
3F0000
3F0000
ENDCHAR
STARTCHAR 0165
ENCODING 357
SWIDTH 500 0
DWIDTH 25 0
BBX 23 36 6 -1
BITMAP
00007E
00007C
00007C
0000F8
0000F8
01F8F8
01F8F0
03F8F0
03F1E0
03F000
03F000
7FFFF8
FFFFF0
FFFFF0
FFFFF0
FFFFF0
FFFFE0
0FC000
0FC000
1FC000
1F8000
1F8000
1F8000
1F8000
3F0000
3F0000
3F0000
3F0000
3F0000
3F8180
3FFF80
3FFF80
1FFF80
1FFF80
07FF00
004000
ENDCHAR
STARTCHAR 0166
ENCODING 358
SWIDTH 500 0
DWIDTH 25 0
BBX 24 31 6 0
BITMAP
3FFFFF
7FFFFF
7FFFFF
7FFFFE
7FFFFE
00FE00
00FC00
00FC00
00FC00
00FC00
01F800
01F800
01F800
01F800
7FFFC0
7FFFC0
7FFF80
FFFF80
FFFF80
07E000
07E000
07E000
0FE000
0FC000
0FC000
0FC000
1FC000
1F8000
1F8000
1F8000
1F8000
ENDCHAR
STARTCHAR 0167
ENCODING 359
SWIDTH 500 0
DWIDTH 25 0
BBX 23 31 4 -1
BITMAP
007E00
007E00
00FE00
00FC00
00FC00
00FC00
1FFFFE
3FFFFC
3FFFFC
3FFFFC
3FFFFC
3FFFF8
03F000
03F000
07F000
07E000
FFFFF8
FFFFF0
FFFFF0
FFFFF0
0FC000
0FC000
0FC000
0FC000
0FE060
0FFFE0
0FFFE0
07FFE0
07FFE0
01FFC0
001000
ENDCHAR
STARTCHAR 0168
ENCODING 360
SWIDTH 500 0
DWIDTH 25 0
BBX 26 41 3 0
BITMAP
000FC700
001FFF80
003FFF00
007FFF00
007DFE00
00107800
00000000
00000000
00000000
07F00FC0
07E01FC0
07E01F80
07E01F80
0FE01F80
0FC03F80
0FC03F00
0FC03F00
1FC03F00
1F807F00
1F807E00
1F807E00
1F807E00
3F00FE00
3F00FC00
3F00FC00
3F00FC00
7F00FC00
7E01F800
7E01F800
7E01F800
FE01F800
FE03F000
FE03F000
FE07F000
FE0FE000
7FFFE000
7FFFC000
3FFF8000
3FFF0000
0FFE0000
03E00000
ENDCHAR
STARTCHAR 0169
ENCODING 361
SWIDTH 500 0
DWIDTH 25 0
BBX 22 34 4 -1
BITMAP
000010
007E38
00FFFC
01FFFC
03FFF8
03EFF0
00C3E0
000000
000000
000000
1F80FC
1F80FC
1F80FC
1F81FC
3F81F8
3F01F8
3F01F8
3F03F8
7F03F0
7E03F0
7E03F0
7E07F0
FE07E0
FC07E0
FC07E0
FC0FE0
FC0FE0
FC0FC0
FE1FC0
FFFFE0
FFFFE0
7FFFE0
7FFFE0
3FE3F0
ENDCHAR
STARTCHAR 016A
ENCODING 362
SWIDTH 500 0
DWIDTH 25 0
BBX 26 40 3 -1
BITMAP
003FFF80
003FFF80
003FFF00
003FFF00
00000000
00000000
00000000
00000000
07F00FC0
07E01FC0
07E01F80
07E01F80
0FE01F80
0FC03F80
0FC03F00
0FC03F00
1FC03F00
1F807F00
1F807E00
1F807E00
1F807E00
3F00FE00
3F00FC00
3F00FC00
3F00FC00
7F00FC00
7E01F800
7E01F800
7E01F800
FE01F800
FE03F000
FE03F000
FE07F000
FE0FE000
7FFFE000
7FFFC000
3FFF8000
3FFF0000
0FFE0000
03E00000
ENDCHAR
STARTCHAR 016B
ENCODING 363
SWIDTH 500 0
DWIDTH 25 0
BBX 22 32 4 -1
BITMAP
00FFFC
01FFFC
01FFF8
01FFF8
000000
000000
000000
000000
1F80FC
1F80FC
1F80FC
1F81FC
3F81F8
3F01F8
3F01F8
3F03F8
7F03F0
7E03F0
7E03F0
7E07F0
FE07E0
FC07E0
FC07E0
FC0FE0
FC0FE0
FC0FC0
FE1FC0
FFFFE0
FFFFE0
7FFFE0
7FFFE0
3FE3F0
ENDCHAR
STARTCHAR 016C
ENCODING 364
SWIDTH 500 0
DWIDTH 25 0
BBX 26 42 3 -1
BITMAP
001F0F80
001F0F80
001F1F80
001FFF00
000FFE00
000FFC00
0003F800
00000000
00000000
00000000
07F00FC0
07E01FC0
07E01F80
07E01F80
0FE01F80
0FC03F80
0FC03F00
0FC03F00
1FC03F00
1F807F00
1F807E00
1F807E00
1F807E00
3F00FE00
3F00FC00
3F00FC00
3F00FC00
7F00FC00
7E01F800
7E01F800
7E01F800
FE01F800
FE03F000
FE03F000
FE07F000
FE0FE000
7FFFE000
7FFFC000
3FFF8000
3FFF0000
0FFE0000
03E00000
ENDCHAR
STARTCHAR 016D
ENCODING 365
SWIDTH 500 0
DWIDTH 25 0
BBX 22 34 4 -1
BITMAP
00F07C
00F07C
00F8F8
00FFF8
00FFF0
007FE0
003FC0
000000
000000
000000
1F80FC
1F80FC
1F80FC
1F81FC
3F81F8
3F01F8
3F01F8
3F03F8
7F03F0
7E03F0
7E03F0
7E07F0
FE07E0
FC07E0
FC07E0
FC0FE0
FC0FE0
FC0FC0
FE1FC0
FFFFE0
FFFFE0
7FFFE0
7FFFE0
3FE3F0
ENDCHAR
STARTCHAR 016E
ENCODING 366
SWIDTH 500 0
DWIDTH 25 0
BBX 26 42 3 -1
BITMAP
0007E000
000FF000
001FF800
001C3800
001C3800
001C3800
001E7800
001FF800
000FF000
0003C000
00000000
07E01FC0
07E01F80
07E01F80
0FE01F80
0FC03F80
0FC03F00
0FC03F00
1FC03F00
1F807F00
1F807E00
1F807E00
1F807E00
3F00FE00
3F00FC00
3F00FC00
3F00FC00
7F00FC00
7E01F800
7E01F800
7E01F800
FE01F800
FE03F000
FE03F000
FE07F000
FE0FE000
7FFFE000
7FFFC000
3FFF8000
3FFF0000
0FFE0000
03E00000
ENDCHAR
STARTCHAR 016F
ENCODING 367
SWIDTH 500 0
DWIDTH 25 0
BBX 22 36 4 -1
BITMAP
000FC0
001FE0
003FF0
0038F0
007870
003870
003CF0
003FE0
001FE0
000780
000000
000000
1F80FC
1F80FC
1F80FC
1F81FC
3F81F8
3F01F8
3F01F8
3F03F8
7F03F0
7E03F0
7E03F0
7E07F0
FE07E0
FC07E0
FC07E0
FC0FE0
FC0FE0
FC0FC0
FE1FC0
FFFFE0
FFFFE0
7FFFE0
7FFFE0
3FE3F0
ENDCHAR
STARTCHAR 0170
ENCODING 368
SWIDTH 500 0
DWIDTH 25 0
BBX 27 43 3 -1
BITMAP
00020080
00060180
000F03C0
001F87E0
003F8FE0
007F1FC0
01FC7F00
00F83E00
00601800
00000000
00000000
07F00FC0
07E01FC0
07E01F80
07E01F80
0FE01F80
0FC03F80
0FC03F00
0FC03F00
1FC03F00
1F807F00
1F807E00
1F807E00
1F807E00
3F00FE00
3F00FC00
3F00FC00
3F00FC00
7F00FC00
7E01F800
7E01F800
7E01F800
FE01F800
FE03F000
FE03F000
FE07F000
FE0FE000
7FFFE000
7FFFC000
3FFF8000
3FFF0000
0FFE0000
03E00000
ENDCHAR
STARTCHAR 0171
ENCODING 369
SWIDTH 500 0
DWIDTH 25 0
BBX 25 34 4 0
BITMAP
00180600
003C0F00
007C1F00
01FE7F80
03F8FE00
07F1FC00
03C0F000
01806000
00000000
00000000
1F80FC00
1F80FC00
1F80FC00
1F81FC00
3F81F800
3F01F800
3F01F800
3F03F800
7F03F000
7E03F000
7E03F000
7E07F000
FE07E000
FC07E000
FC07E000
FC0FE000
FC0FE000
FC0FC000
FE1FC000
FFFFE000
FFFFE000
7FFFE000
7FFFE000
3FE3F000
ENDCHAR
STARTCHAR 0172
ENCODING 370
SWIDTH 500 0
DWIDTH 25 0
BBX 26 40 3 -9
BITMAP
07F00FC0
07E01FC0
07E01F80
07E01F80
0FE01F80
0FC03F80
0FC03F00
0FC03F00
1FC03F00
1F807F00
1F807E00
1F807E00
1F807E00
3F00FE00
3F00FC00
3F00FC00
3F00FC00
7F00FC00
7E01F800
7E01F800
7E01F800
FE01F800
FE03F000
FE03F000
FE07F000
FE0FE000
7FFFE000
7FFFC000
3FFF8000
3FFF0000
0FFE0000
01F80000
03F00000
07E00000
0FC00000
0FC00000
0FF80000
0FF80000
07F80000
00800000
ENDCHAR
STARTCHAR 0173
ENCODING 371
SWIDTH 500 0
DWIDTH 25 0
BBX 22 33 4 -9
BITMAP
1F80FC
1F80FC
1F80FC
1F81FC
3F81F8
3F01F8
3F01F8
3F03F8
7F03F0
7E03F0
7E03F0
7E07F0
FE07E0
FC07E0
FC07E0
FC0FE0
FC0FE0
FC0FC0
FE1FC0
FFFFE0
FFFFE0
7FFFE0
7FFFE0
3FE3F0
000FC0
001F80
003F00
007E00
007E00
00FFC0
007FC0
007FC0
000C00
ENDCHAR
STARTCHAR 0174
ENCODING 372
SWIDTH 500 0
DWIDTH 25 0
BBX 28 41 2 1
BITMAP
00003000
00007800
0000FC00
0003FE00
0007FE00
000FDF00
000F0F80
00060600
00000000
00000000
03E001F0
07E003F0
07E003F0
07E003F0
07C003E0
07C003E0
0FC007E0
0FC007C0
0F8007C0
0F8007C0
0F800FC0
1F8F0F80
1F1F0F80
1F1F8F80
1F3F9F80
1F3F9F00
3E7F9F00
3E7F9F00
3EF79E00
3CF7BE00
3DE7BE00
7DE7BC00
7FC7BC00
7BC3FC00
7F83FC00
7F83F800
7F03F800
FE03F800
FE03F000
FC03F000
FC03F000
ENDCHAR
STARTCHAR 0175
ENCODING 373
SWIDTH 500 0
DWIDTH 25 0
BBX 26 35 3 0
BITMAP
00008000
00018000
0003C000
0007E000
001FF000
003FF800
007EF800
007C7C00
00303800
00000000
00000000
3E000FC0
3E000FC0
3E000F80
3E000F80
7E001F80
7C1E1F00
7C3E1F00
7C3E1F00
7C7E3E00
7C7E3E00
7CFE3E00
78FE3C00
79FE7C00
79EE7800
7BEE7800
FBCEF800
FFCEF000
FF8FF000
FF0FF000
FF0FE000
FE0FE000
FE0FC000
FC0FC000
F80F8000
ENDCHAR
STARTCHAR 0176
ENCODING 374
SWIDTH 500 0
DWIDTH 25 0
BBX 24 41 7 1
BITMAP
000300
000F00
001F80
003FC0
00FFE0
01FBF0
01F1F0
00C0E0
000000
000000
FC007F
FC00FE
FC00FC
7E01FC
7E01F8
7E03F8
7E07F0
7E07E0
3E0FE0
3F0FC0
3F1F80
3F3F00
3F3F00
1F7E00
1FFC00
1FFC00
1FF800
0FF000
0FE000
0FC000
0FC000
0FC000
0FC000
1FC000
1F8000
1F8000
1F8000
3F8000
3F0000
3F0000
3F0000
ENDCHAR
STARTCHAR 0177
ENCODING 375
SWIDTH 500 0
DWIDTH 25 0
BBX 29 43 -2 -8
BITMAP
00000400
00000C00
00001E00
00003F00
0000FF80
0001FFC0
0003F7C0
0003E3E0
000181C0
00000000
00000000
00FC01F8
00FC01F8
00FC03F8
00FC03F0
00FC03F0
00FC07F0
00FC07E0
00FC0FE0
00FE0FC0
00FE0FC0
007E1F80
007E1F80
007E3F00
007E3F00
007E7E00
007E7E00
003FFC00
003FFC00
003FF800
003FF000
003FF000
001FE000
001FC000
001FC000
003F8000
007F0000
00FE0000
7FFC0000
7FF80000
7FF00000
FFE00000
FF800000
ENDCHAR
STARTCHAR 0178
ENCODING 376
SWIDTH 500 0
DWIDTH 25 0
BBX 24 41 7 0
BITMAP
008060
03E0F8
07E1F8
07E1F8
07E1F8
07E1F8
03C0F0
000000
000000
000000
FC007F
FC00FE
FC00FC
7E01FC
7E01F8
7E03F8
7E07F0
7E07E0
3E0FE0
3F0FC0
3F1F80
3F3F00
3F3F00
1F7E00
1FFC00
1FFC00
1FF800
0FF000
0FE000
0FC000
0FC000
0FC000
0FC000
1FC000
1F8000
1F8000
1F8000
3F8000
3F0000
3F0000
3F0000
ENDCHAR
STARTCHAR 0179
ENCODING 377
SWIDTH 500 0
DWIDTH 25 0
BBX 26 42 2 0
BITMAP
00000400
00000C00
00001E00
00007E00
0000FF00
0001FF00
0003FC00
0003F000
0001C000
00000000
00000000
01FFFFC0
01FFFFC0
01FFFFC0
03FFFFC0
03FFFF80
00003F80
00007F00
0000FE00
0001FC00
0001F800
0003F800
0007F000
000FE000
001FC000
003F8000
007F0000
007E0000
00FC0000
01FC0000
03F80000
07F00000
07E00000
0FC00000
1FC00000
3F800000
7F000000
7FFFF800
FFFFF800
FFFFF000
FFFFF000
FFFFF000
ENDCHAR
STARTCHAR 017A
ENCODING 378
SWIDTH 500 0
DWIDTH 25 0
BBX 24 34 3 1
BITMAP
000060
0000F0
0001F8
0007F8
000FF8
001FE0
000F80
000E00
000000
000000
07FFFF
07FFFE
07FFFE
07FFFE
0FFFFE
0FFFFC
0007F8
000FF0
001FE0
003FC0
007F80
00FE00
01FE00
03F800
07F000
0FE000
0FC000
1F8000
3F8000
7FFFE0
FFFFE0
FFFFE0
FFFFE0
FFFFC0
ENDCHAR
STARTCHAR 017B
ENCODING 379
SWIDTH 500 0
DWIDTH 25 0
BBX 26 41 2 0
BITMAP
00007000
0000F800
0001FC00
0001FC00
0001F800
0001F800
0000F000
00000000
00000000
00000000
01FFFFC0
01FFFFC0
01FFFFC0
03FFFFC0
03FFFF80
00003F80
00007F00
0000FE00
0001FC00
0001F800
0003F800
0007F000
000FE000
001FC000
003F8000
007F0000
007E0000
00FC0000
01FC0000
03F80000
07F00000
07E00000
0FC00000
1FC00000
3F800000
7F000000
7FFFF800
FFFFF800
FFFFF000
FFFFF000
FFFFF000
ENDCHAR
STARTCHAR 017C
ENCODING 380
SWIDTH 500 0
DWIDTH 25 0
BBX 24 34 3 0
BITMAP
0001C0
0003E0
0007F0
0007F0
0007F0
0007E0
0003C0
000000
000000
000000
07FFFF
07FFFE
07FFFE
07FFFE
0FFFFE
0FFFFC
0007F8
000FF0
001FE0
003FC0
007F80
00FE00
01FE00
03F800
07F000
0FE000
0FC000
1F8000
3F8000
7FFFE0
FFFFE0
FFFFE0
FFFFE0
FFFFC0
ENDCHAR
STARTCHAR 017D
ENCODING 381
SWIDTH 500 0
DWIDTH 25 0
BBX 26 41 2 1
BITMAP
00060700
000F0F00
000FBF80
0007FE00
0003FC00
0003F800
0001E000
0000C000
00000000
00000000
01FFFFC0
01FFFFC0
01FFFFC0
03FFFFC0
03FFFF80
00003F80
00007F00
0000FE00
0001FC00
0001F800
0003F800
0007F000
000FE000
001FC000
003F8000
007F0000
007E0000
00FC0000
01FC0000
03F80000
07F00000
07E00000
0FC00000
1FC00000
3F800000
7F000000
7FFFF800
FFFFF800
FFFFF000
FFFFF000
FFFFF000
ENDCHAR
STARTCHAR 017E
ENCODING 382
SWIDTH 500 0
DWIDTH 25 0
BBX 24 34 3 1
BITMAP
00181C
003C3C
003EFC
001FF8
000FF0
000FE0
000780
000300
000000
000000
07FFFF
07FFFE
07FFFE
07FFFE
0FFFFE
0FFFFC
0007F8
000FF0
001FE0
003FC0
007F80
00FE00
01FE00
03F800
07F000
0FE000
0FC000
1F8000
3F8000
7FFFE0
FFFFE0
FFFFE0
FFFFE0
FFFFC0
ENDCHAR
STARTCHAR 017F
ENCODING 383
SWIDTH 500 0
DWIDTH 25 0
BBX 32 43 -2 -8
BITMAP
000000E0
00000FFF
00001FFF
00007FFF
00007FFE
0000FFFE
0000FC00
0001F800
0001F800
0001F800
0003F000
0003F000
0003F000
0003F000
0003F000
0007F000
0007E000
0007E000
0007E000
0007E000
000FE000
000FC000
000FC000
000FC000
000FC000
001FC000
001F8000
001F8000
001F8000
003F8000
003F8000
003F0000
003F0000
003F0000
007F0000
007E0000
00FE0000
21FE0000
3FFC0000
7FFC0000
7FF80000
7FF00000
FFC00000
ENDCHAR
STARTCHAR 0180
ENCODING 384
SWIDTH 500 0
DWIDTH 25 0
BBX 23 36 3 -1
BITMAP
000400
00FC00
01F800
01F800
0FFFE0
0FFFE0
0FFFE0
1FFFE0
03F000
03F000
07E000
07E380
07FFF0
07FFF8
0FFFF8
0FFFFC
0FFBFC
0FC0FC
0FC0FC
1F80FC
1F80FE
1F80FC
1F80FC
3F00FC
3F00FC
3F00FC
3F01F8
7E03F8
7E03F8
7E0FF0
7FFFE0
FFFFC0
FFFF80
FFFF00
7FFC00
05C000
ENDCHAR
STARTCHAR 0181
ENCODING 385
SWIDTH 500 0
DWIDTH 25 0
BBX 23 31 4 0
BITMAP
01FFE0
0FFFF8
1FFFFC
3FFFFE
7FFCFE
7CFC3E
7CFC3E
78F83E
F8F83E
F8F83E
01F87E
01F0FC
01FFF8
01FFF0
03FFC0
03FFF0
03FFF8
03E1F8
07E0F8
07E0FC
07C0FC
07C0FC
0FC0FC
0FC0F8
0F81F8
0F83F8
1FDFF0
1FFFE0
1FFFC0
1FFF80
3FFE00
ENDCHAR
STARTCHAR 0182
ENCODING 386
SWIDTH 500 0
DWIDTH 25 0
BBX 24 31 2 0
BITMAP
01FFFF
01FFFF
03FFFF
03FFFF
03FFFE
03F000
07F000
07E000
07E000
07E000
0FE000
0FFF80
0FFFE0
0FFFF8
1FFFF8
1FFFFC
1F87FC
1F80FE
1F80FE
3F007E
3F007E
3F00FE
3F00FC
7E00FC
7E01FC
7E07F8
7FFFF0
FFFFF0
FFFFC0
FFFF80
FFFC00
ENDCHAR
STARTCHAR 0183
ENCODING 387
SWIDTH 500 0
DWIDTH 25 0
BBX 25 35 2 -1
BITMAP
00FFFF80
00FFFF80
01FFFF80
01FFFF00
01FFFF00
01F80000
03F80000
03F00000
03F00000
03F00000
07F7E000
07FFF000
07FFF800
07FFFC00
0FFFFC00
0FF1FE00
0FC0FE00
0FC07E00
0FC07E00
1F807E00
1F807E00
1F807E00
1F807E00
3F80FE00
3F00FC00
3F00FC00
3F01FC00
7F03F800
7E07F800
7FFFF000
7FFFE000
FFFFC000
FFFF8000
7FFE0000
01C00000
ENDCHAR
STARTCHAR 0184
ENCODING 388
SWIDTH 500 0
DWIDTH 25 0
BBX 23 36 3 -1
BITMAP
000400
003800
01F800
07F800
1FF800
1FF000
0FF000
07F000
03F000
07F000
07E000
07E7C0
07FFF0
0FFFF8
0FFFF8
0FFFFC
0FE1FC
1FC0FC
1F80FC
1F80FC
1F80FE
3F80FC
3F00FC
3F00FC
3F00FC
7F01FC
7E01F8
7E03F8
7E07F8
7E0FF0
FFFFE0
FFFFC0
FFFF80
FFFF00
FFFC00
03C000
ENDCHAR
STARTCHAR 0185
ENCODING 389
SWIDTH 500 0
DWIDTH 25 0
BBX 22 31 3 0
BITMAP
003800
00F800
07F800
1FF800
1FF000
0FF000
07F000
07F000
07E000
07E000
07E000
07FF80
07FFE0
0FFFF0
0FFFF8
0FFFFC
0FC1FC
1F80FC
1F80FC
1F80FC
1F80FC
3F00FC
3F00FC
3F01F8
3F03F8
7E0FF0
7FFFF0
7FFFE0
7FFFC0
FFFF00
FFFC00
ENDCHAR
STARTCHAR 0186
ENCODING 390
SWIDTH 500 0
DWIDTH 25 0
BBX 24 33 2 -1
BITMAP
001E00
01FFC0
07FFF0
03FFF8
03FFFC
03FFFC
0301FE
0000FE
00007E
00007E
00007E
00007F
00007F
00007F
00007E
00007E
00007E
00007E
00007E
0000FE
0000FC
0000FC
0001FC
0001F8
0003F8
0007F0
601FF0
7FFFE0
FFFFC0
FFFF80
FFFF00
7FFC00
038000
ENDCHAR
STARTCHAR 0187
ENCODING 391
SWIDTH 500 0
DWIDTH 25 0
BBX 28 36 4 -1
BITMAP
000003F0
000007F0
00000FF0
0001CFF0
003FFFE0
007FFE20
01FFFE00
03FFFC00
07FFFC00
0FF01800
0FE00000
1FC00000
1F800000
3F800000
3F000000
7F000000
7E000000
7E000000
7E000000
FE000000
FC000000
FC000000
FC000000
FC000000
FC000000
FC000000
FC000000
FE000000
FE000000
7F018000
7FFF8000
7FFF8000
3FFFC000
1FFFC000
0FFF0000
01F00000
ENDCHAR
STARTCHAR 0188
ENCODING 392
SWIDTH 500 0
DWIDTH 25 0
BBX 26 29 4 -1
BITMAP
00001FC0
00003FC0
00007F80
0000FF80
003FFF00
01FFF000
07FFE000
0FFFE000
1FFFE000
3FF0C000
3F800000
7F000000
7E000000
FE000000
FC000000
FC000000
FC000000
FC000000
FC000000
FC000000
FC000000
FE000000
FF010000
FFFF0000
7FFF0000
3FFF0000
1FFF0000
0FFF0000
00E00000
ENDCHAR
STARTCHAR 0189
ENCODING 393
SWIDTH 500 0
DWIDTH 25 0
BBX 23 31 3 0
BITMAP
01FFC0
03FFE0
03FFF8
03FFF8
03FFFC
03F1FE
07E0FE
07E07E
07E07E
07E07E
0FC07E
0FC07E
7FF87E
7FF87E
FFF87E
FFF07E
FFF07E
FFF0FE
3F00FC
3F00FC
3F01FC
3F01F8
7F03F8
7E07F0
7E0FF0
7E1FE0
FFFFC0
FFFF80
FFFF00
FFFE00
FFF000
ENDCHAR
STARTCHAR 018A
ENCODING 394
SWIDTH 500 0
DWIDTH 25 0
BBX 23 31 4 0
BITMAP
01FFC0
0FFFF0
1FFFF8
3FFFFC
7FFCFE
7CFC7E
7CFC3E
78F83E
F8F83E
F8F83E
01F83E
01F83E
01F03E
01F03E
03F03E
03F03E
03E07E
03E07E
07E07C
07E07C
07C0FC
07C0F8
0FC1F8
0FC1F0
0F83F0
0F87E0
1F9FE0
1FFFC0
1FFF80
1FFE00
1FFC00
ENDCHAR
STARTCHAR 018B
ENCODING 395
SWIDTH 500 0
DWIDTH 25 0
BBX 26 31 3 0
BITMAP
00FFFFC0
01FFFFC0
01FFFF80
01FFFF80
01FFFF80
00001F80
00003F00
00003F00
00003F00
00003F00
00007E00
003FFE00
01FFFE00
07FFFE00
1FFFFE00
3FFFFC00
3FF0FC00
7F80FC00
7F01FC00
FE01F800
FC01F800
FC01F800
FC03F800
FC03F000
FE03F000
7F03F000
7FFFF000
3FFFE000
3FFFE000
0FFFE000
03FFC000
ENDCHAR
STARTCHAR 018C
ENCODING 396
SWIDTH 500 0
DWIDTH 25 0
BBX 26 35 3 -1
BITMAP
007FFFC0
00FFFFC0
00FFFF80
00FFFF80
00FFFF80
00001F80
00003F00
00003F00
00003F00
00003F00
000FFF00
007FFE00
01FFFE00
07FFFE00
0FFFFE00
1FF0FC00
1FC0FC00
3F80FC00
3F01FC00
7F01F800
7E01F800
7E01F800
FE03F800
FC03F000
FC03F000
FC03F000
FC03F000
FE07F000
FE0FF000
7FFFF000
7FFFF000
3FFFF000
3FFDF000
0FF1F800
01800000
ENDCHAR
STARTCHAR 018D
ENCODING 397
SWIDTH 500 0
DWIDTH 25 0
BBX 25 32 1 -8
BITMAP
001FF000
007FFC00
00FFFE00
01FFFE00
03FFFF00
07F87F00
0FE03F80
0FC03F80
0FC01F80
1F803F80
1F803F00
1F803F00
1F803F00
1F807E00
1FC0FE00
1FC1FC00
0FE3FC00
0FFFF800
07FFF000
03FFC000
01FF0000
00FF8000
003F8000
001FC000
000FC000
000FC000
200FC000
3F7FC000
7FFF8000
7FFF8000
FFFE0000
3FFC0000
ENDCHAR
STARTCHAR 018E
ENCODING 398
SWIDTH 500 0
DWIDTH 25 0
BBX 26 31 2 0
BITMAP
01FFFFC0
01FFFFC0
01FFFFC0
01FFFF80
03FFFF80
00001F80
00001F80
00003F00
00003F00
00003F00
00003F00
00007F00
03FFFE00
03FFFE00
03FFFE00
07FFFE00
07FFFC00
0000FC00
0000FC00
0001FC00
0001F800
0001F800
0001F800
0003F800
0003F000
0003F000
7FFFF000
FFFFF000
FFFFE000
FFFFE000
FFFFE000
ENDCHAR
STARTCHAR 018F
ENCODING 399
SWIDTH 500 0
DWIDTH 25 0
BBX 24 33 3 -1
BITMAP
001E00
03FFE0
07FFF0
07FFF8
07FFFC
07FFFE
0400FE
00007E
00007F
00003F
00003F
00003F
00003F
00003F
00003F
7FFFFF
7FFFFE
7FFFFE
FFFFFE
FFFFFE
FC007E
FC00FC
FC00FC
FC01FC
FC01F8
FC03F8
7E07F0
7F9FE0
7FFFC0
3FFF80
1FFF00
0FFC00
01E000
ENDCHAR
STARTCHAR 0190
ENCODING 400
SWIDTH 500 0
DWIDTH 25 0
BBX 26 33 3 -1
BITMAP
0001F000
001FFF00
007FFFC0
00FFFF80
01FFFF80
03FFFF00
03F80300
07F00000
07E00000
07E00000
07E00000
07E00000
03F00000
03FFF000
01FFF000
01FFF000
03FFE000
0FFFE000
1FFC0000
3F800000
7F000000
7E000000
7E000000
7E000000
FE000000
7E000000
7F003000
7FFFF800
7FFFF800
3FFFF800
1FFFF800
07FFE000
00780000
ENDCHAR
STARTCHAR 0191
ENCODING 401
SWIDTH 500 0
DWIDTH 25 0
BBX 33 39 -4 -8
BITMAP
0003FFFF80
0003FFFF80
0003FFFF80
0007FFFF00
0007FFFF00
0007E00000
0007E00000
000FE00000
000FC00000
000FC00000
000FC00000
001FC00000
001F800000
001FFFF000
001FFFF000
001FFFF000
003FFFF000
003FFFE000
003F000000
003F000000
007F000000
007E000000
007E000000
007E000000
00FE000000
00FC000000
00FC000000
00FC000000
01FC000000
01F8000000
01F8000000
01F8000000
03F8000000
03F0000000
7FF0000000
7FE0000000
7FE0000000
FFC0000000
FF00000000
ENDCHAR
STARTCHAR 0192
ENCODING 402
SWIDTH 500 0
DWIDTH 25 0
BBX 32 43 -2 -8
BITMAP
000000F0
00000FFF
00001FFE
00007FFE
00007FFC
0000FFFC
0000FC00
0001F800
0001F800
0001F800
0003F000
007FFFF8
007FFFF8
007FFFF0
007FFFF0
00FFFFF0
00FFFFF0
0007E000
0007E000
000FE000
000FE000
000FC000
000FC000
000FC000
001FC000
001FC000
001F8000
001F8000
001F8000
003F8000
003F8000
003F0000
003F0000
003F0000
007F0000
007E0000
00FE0000
21FE0000
3FFC0000
7FFC0000
7FF80000
7FF00000
FFC00000
ENDCHAR
STARTCHAR 0193
ENCODING 403
SWIDTH 500 0
DWIDTH 25 0
BBX 28 36 4 -1
BITMAP
000003F0
000007F0
00000FF0
0001DFE0
003FFFE0
00FFFE00
01FFFE00
03FFFC00
07FFFC00
0FF01800
0FE00000
1FC00000
1F800000
3F800000
3F000000
7F000000
7E000000
7E000000
7E000000
FC01FC00
FC01F800
FC01F800
FC01F800
FC03F800
FC03F000
FC03F000
FC03F000
FE03F000
FE07E000
FF07E000
7FFFE000
7FFFE000
3FFFC000
1FFFC000
0FFF8000
01F00000
ENDCHAR
STARTCHAR 0194
ENCODING 404
SWIDTH 500 0
DWIDTH 25 0
BBX 26 39 5 -8
BITMAP
3F000FC0
3F001F80
3F001F80
3F003F00
1F003E00
1F007E00
1F80FC00
1F80FC00
1F81F800
0F83F000
0F83F000
0F87E000
0FCFC000
0FCFC000
07DF8000
07FF0000
07FF0000
07FE0000
03FC0000
03FC0000
03F80000
03F00000
07F00000
07F00000
0FF00000
1FF80000
1FF80000
3EF80000
7E780000
7C7C0000
F87C0000
F87C0000
F87C0000
F8FC0000
FFFC0000
FFF80000
7FF00000
7FE00000
1FC00000
ENDCHAR
STARTCHAR 0195
ENCODING 405
SWIDTH 500 0
DWIDTH 25 0
BBX 28 36 1 -1
BITMAP
00080000
00F80000
01F00000
01F00000
01F00000
01F00000
03E00000
03E00000
03E00000
03E00000
03C00000
07DE01F0
07FF83E0
07FF83E0
07FF83E0
0FFFC3E0
0F8FC3C0
0F8787C0
0F0F87C0
1F0F87C0
1F0F8780
1F0F8F80
1F1F0F80
3E1F0F80
3E1F0F00
3E1F1F00
3E3E1F00
7C3E1F00
7C3E1E00
7C3E3E00
7C3E3E00
F83FFC00
F83FFC00
F81FF800
F80FF000
00018000
ENDCHAR
STARTCHAR 0196
ENCODING 406
SWIDTH 500 0
DWIDTH 25 0
BBX 19 32 8 -1
BITMAP
FFFFE0
FFFFE0
FFFFE0
FFFFE0
FFFFC0
07E000
07E000
07E000
0FE000
0FC000
0FC000
0FC000
1FC000
1F8000
1F8000
1F8000
3F8000
3F0000
3F0000
3F0000
3F0000
7E0000
7E0000
7E0000
7E0000
7F0200
7FFE00
7FFE00
7FFE00
3FFE00
1FFE00
01C000
ENDCHAR
STARTCHAR 0197
ENCODING 407
SWIDTH 500 0
DWIDTH 25 0
BBX 27 31 2 0
BITMAP
01FFFFE0
01FFFFC0
01FFFFC0
03FFFFC0
03FFFFC0
0007E000
000FE000
000FC000
000FC000
000FC000
001FC000
001F8000
03FFFC00
03FFF800
03FFF800
03FFF800
07FFF800
003F0000
007F0000
007E0000
007E0000
007E0000
007E0000
00FC0000
00FC0000
00FC0000
7FFFF000
7FFFF000
FFFFF000
FFFFF000
FFFFF000
ENDCHAR
STARTCHAR 0198
ENCODING 408
SWIDTH 500 0
DWIDTH 25 0
BBX 29 31 2 1
BITMAP
01F807F0
01F80FF8
03F81FF8
03F03FF8
03F07FF0
03F0FE20
07F0FC00
07E1F800
07E3F000
07E7E000
0FEFE000
0FDFC000
0FFF8000
0FFF0000
1FFE0000
1FFE0000
1FFF0000
1FBF8000
3FBF8000
3F1FC000
3F0FC000
3F0FE000
3F07E000
7E07F000
7E07F000
7E03F000
7E03F800
FE01F800
FC01F800
FC01FC00
FC01FC00
ENDCHAR
STARTCHAR 0199
ENCODING 409
SWIDTH 500 0
DWIDTH 25 0
BBX 25 35 3 0
BITMAP
00038000
003FE000
007FC000
00FFC000
00FFC000
01FE4000
01F80000
03F80000
03F00000
03F00000
03F00000
07F03F80
07E07F00
07E07F00
07E0FE00
0FE1FC00
0FC3F800
0FC7F000
0FCFE000
1FFFC000
1FFF0000
1FFE0000
1FFC0000
3FFE0000
3F7F0000
3F3F0000
3F3F8000
3F1F8000
7E1FC000
7E0FC000
7E0FE000
7E07E000
FE07F000
FC03F000
FC03F800
ENDCHAR
STARTCHAR 019A
ENCODING 410
SWIDTH 500 0
DWIDTH 25 0
BBX 20 36 5 -1
BITMAP
0FFF80
0FFF00
0FFF00
1FFF00
1FFF00
007F00
007E00
007E00
007E00
00FE00
00FC00
00FC00
00FC00
01FC00
01F800
7FFFF0
FFFFF0
FFFFE0
FFFFE0
03F000
03F000
03F000
07E000
07E000
07E000
07E000
0FE000
0FC000
0FE000
0FE040
0FFFC0
07FFC0
07FFC0
03FFC0
01FF80
001000
ENDCHAR
STARTCHAR 019B
ENCODING 411
SWIDTH 500 0
DWIDTH 25 0
BBX 25 35 7 0
BITMAP
003C0000
00FF0000
00FF8000
00FFC180
00FFCF80
009FFF80
0007FF80
001FFE00
00FFF000
00FFF000
00FFF000
00E3F000
0007F000
000FF000
000FF800
001FF800
003FF800
003FF800
007FF800
00FDF800
00FDF800
01F9F800
03F9FC00
03F1FC00
07F0FC00
07E0FC00
0FC0FC00
0FC0FC00
1F80FC00
3F80FC00
3F00FC00
7F00FC00
7F00FC00
7E00FC00
FE00FC00
ENDCHAR
STARTCHAR 019C
ENCODING 412
SWIDTH 500 0
DWIDTH 25 0
BBX 28 32 2 -1
BITMAP
07C001F0
07C001F0
07C001F0
07C003E0
07C003E0
0F8003E0
0F8003E0
0F8007C0
0F8007C0
1F0007C0
1F0007C0
1F000F80
1F1F0F80
3E1F0F80
3E1F0F80
3E1F1F00
3E1E1F00
7C3E1F00
7C3E1F00
7C3E3F00
7C3C3E00
F87C3E00
F87C3E00
F87C3E00
F87C7C00
F87C7C00
FDFEFC00
FFFFFC00
FFFFF800
7FFFF800
7FBFF000
04030000
ENDCHAR
STARTCHAR 019D
ENCODING 413
SWIDTH 500 0
DWIDTH 25 0
BBX 34 39 -5 -8
BITMAP
0003E007C0
0003F00FC0
0007F00FC0
0007F00F80
0007F80F80
0007F80F80
000FF81F80
000FF81F00
000FFC1F00
000FBC1F00
000FBC3F00
001FBC3F00
001F3E3E00
001F3E3E00
001F1E7E00
003F1E7E00
003F1E7C00
003E1F7C00
003E0FFC00
007E0FFC00
007E0FF800
007C0FF800
007C0FF800
00FC07F800
00FC07F000
00F807F000
00F807F000
01F807F000
01F807E000
01F003E000
01F003E000
03F0000000
03F0000000
07E0000000
7FE0000000
7FC0000000
7FC0000000
FF80000000
FE00000000
ENDCHAR
STARTCHAR 019E
ENCODING 414
SWIDTH 500 0
DWIDTH 25 0
BBX 23 32 2 -8
BITMAP
007FC0
03FFF0
07FFF8
07FFFC
07FFFE
07E1FE
0FE0FE
0FC0FE
0FC07E
0FC0FE
1FC0FC
1F80FC
1F80FC
1F80FC
3F81F8
3F01F8
3F01F8
3F01F8
3F03F0
7E03F0
7E03F0
7E03F0
7E07F0
FC07E0
0007E0
0007E0
000FE0
000FC0
000FC0
000FC0
001FC0
001F80
ENDCHAR
STARTCHAR 019F
ENCODING 415
SWIDTH 500 0
DWIDTH 25 0
BBX 24 33 3 -1
BITMAP
000780
003FF0
007FF8
01FFFC
03FFFE
03FFFE
07F07F
0FE07F
0FC03F
1FC03F
1F803F
3F803F
3F003F
3F003F
7FFFFF
7FFFFF
7FFFFE
7FFFFE
7FFFFE
7E00FE
FE00FC
FE00FC
FE01FC
FE01F8
FE03F8
7E07F0
7F0FF0
7FFFE0
3FFFC0
3FFF80
1FFF00
0FFC00
01E000
ENDCHAR
STARTCHAR 01A0
ENCODING 416
SWIDTH 500 0
DWIDTH 25 0
BBX 27 37 3 -1
BITMAP
000007E0
000007E0
000007E0
000007C0
00078FC0
003FEFC0
00FFFF80
01FFFF00
03FFFE00
07FFFC00
07F0FE00
0FE07E00
1FC07E00
1F807E00
1F807E00
3F007E00
3F007E00
3F007E00
7F007E00
7E00FE00
7E00FC00
7E00FC00
7E00FC00
7E00FC00
FE01F800
FE01F800
FE01F800
FE03F000
FE07F000
7E07E000
7E0FE000
7FFFC000
7FFF8000
3FFF0000
1FFE0000
0FFC0000
01E00000
ENDCHAR
STARTCHAR 01A1
ENCODING 417
SWIDTH 500 0
DWIDTH 25 0
BBX 26 29 3 -1
BITMAP
00000FC0
00000FC0
00000FC0
00000F80
003F9F80
01FFFF00
03FFFF00
07FFFE00
0FFFFC00
1FE3F800
1F81F800
3F01F800
3F01F800
7E01F800
7E01F800
7E01F800
7E01F800
FC01F800
FC03F800
FC03F000
FE07F000
FE07E000
FE0FE000
7FFFC000
7FFF8000
3FFF0000
3FFE0000
0FF80000
03800000
ENDCHAR
STARTCHAR 01A2
ENCODING 418
SWIDTH 500 0
DWIDTH 25 0
BBX 25 33 3 -1
BITMAP
00100C00
00FE7F00
01FFFF00
03FFFF80
07FFFF80
0FCFCF80
0F8F8F80
1F0F8F80
1F0F8F80
1E0F8F80
3E0F8F80
3E0F8F00
3C0F1F00
7C0F1F00
7C1F1F00
7C1F1E00
781F1E00
781F3E00
F81E3E00
F83E3C00
F83E3C00
F83C7C00
F07C7C00
F07C7C00
F0787800
F0F8F800
F0F8F800
F9F0F800
FFE0F000
FFE1F000
7FC1F000
7F81F000
0C000000
ENDCHAR
STARTCHAR 01A3
ENCODING 419
SWIDTH 500 0
DWIDTH 25 0
BBX 24 32 3 -8
BITMAP
01F8FC
03FFFE
0FFFFE
0FFFFF
1FFFFF
3E1F1F
3E1F1F
7C1F1F
7C1E1E
781E1E
F81E3E
F81E3E
F83E3E
F03E3C
F03C7C
F03C7C
F07C7C
F07878
F0F8F8
F9F8F8
FFF0F8
FFE0F0
7FC1F0
3F81F0
0801F0
0001E0
0001E0
0003E0
0003E0
0003C0
0003C0
0007C0
ENDCHAR
STARTCHAR 01A4
ENCODING 420
SWIDTH 500 0
DWIDTH 25 0
BBX 23 31 5 0
BITMAP
03FFE0
0FFFF0
3FFFFC
7FFFFC
7FFDFE
FCF87E
F8F87E
F9F83E
F1F83E
F1F03E
01F07E
03F07E
03F07C
03E0FC
03E1FC
07E7F8
07FFF0
07FFE0
07FFC0
07FF00
0FC000
0FC000
0F8000
0F8000
1F8000
1F8000
1F0000
1F0000
3F0000
3F0000
3E0000
ENDCHAR
STARTCHAR 01A5
ENCODING 421
SWIDTH 500 0
DWIDTH 25 0
BBX 25 43 0 -8
BITMAP
0001E000
000FF800
001FF800
003FF000
003FF000
007F9000
007E0000
007E0000
00FC0000
00FC0000
00FC0000
00FFF000
01FFFC00
01FFFE00
01FFFF00
01FFFF80
03F87F80
03F01F80
03F01F80
03F01F80
07F01F80
07E01F80
07E01F80
07E01F80
0FE03F80
0FC03F00
0FC07F00
0FC07F00
1FC0FE00
1F83FE00
1FFFFC00
1FFFF800
3FFFF000
3FFFC000
3FFF0000
3F600000
3F000000
7E000000
7E000000
7E000000
7E000000
FC000000
FC000000
ENDCHAR
STARTCHAR 01A6
ENCODING 422
SWIDTH 500 0
DWIDTH 25 0
BBX 25 40 2 -5
BITMAP
00FC0000
00FC0000
01FC0000
01F80000
01FFF000
01FFFC00
01FFFE00
03FFFF00
03FFFF00
03F07F00
03F03F80
07E03F80
07E03F80
07E03F80
07E03F00
0FC03F00
0FC07F00
0FC0FE00
0FFFFE00
1FFFFC00
1FFFF800
1FFFE000
1FFF8000
3FFFC000
3F0FC000
3F0FC000
3F07E000
7F07E000
7E03F000
7E03F000
7E03F000
7E01F800
FC01F800
FC01F800
FC01F800
0000FC00
0000FC00
0000FC00
0000FC00
00007E00
ENDCHAR
STARTCHAR 01A7
ENCODING 423
SWIDTH 500 0
DWIDTH 25 0
BBX 24 33 3 -1
BITMAP
000380
00FFF8
03FFFC
03FFFE
03FFFF
01FFFF
01003F
00003F
00003F
00003F
00007F
0000FF
0003FE
000FFC
007FF8
03FFF0
07FFC0
1FFF00
3FF800
3FE000
7F8000
7F0000
FE0000
FC0000
FC0000
FE0000
FE0030
7FFFF0
7FFFF0
3FFFF0
1FFFF0
0FFFC0
017400
ENDCHAR
STARTCHAR 01A8
ENCODING 424
SWIDTH 500 0
DWIDTH 25 0
BBX 21 25 4 -1
BITMAP
01FF80
0FFFE0
0FFFF0
0FFFF0
0FFFF0
0C03F8
0003F8
0003F0
0007F0
001FF0
00FFE0
07FFC0
1FFF80
3FFE00
7FF000
FF8000
FC0000
FC0000
FC0000
FF9F80
FFFF80
FFFF80
7FFF80
1FFF80
03C000
ENDCHAR
STARTCHAR 01A9
ENCODING 425
SWIDTH 500 0
DWIDTH 25 0
BBX 29 31 1 0
BITMAP
00FFFFF8
01FFFFF8
01FFFFF0
01FFFFF0
01FFFFF0
00FC0000
00FE0000
007E0000
003F0000
003F0000
001F8000
001F8000
000FC000
000FE000
0007E000
0007F000
000FE000
001FC000
003F8000
007F0000
00FE0000
01FC0000
07F80000
0FF00000
1FC00000
3F800000
7FFFFE00
7FFFFC00
7FFFFC00
FFFFFC00
FFFFFC00
ENDCHAR
STARTCHAR 01AA
ENCODING 426
SWIDTH 500 0
DWIDTH 25 0
BBX 16 43 7 -8
BITMAP
01F0
0FFC
1FFE
3FFF
7FFF
7C3F
FC1F
F83F
F83F
F83F
FFFF
FFFF
7FFE
3FFE
1F7E
00FE
00FC
00FC
00FC
00FC
01FC
01F8
01F8
01F8
03F8
03F0
03F0
03F0
07F0
07E0
07E0
07E0
0FE0
0FC0
0FC0
0FC0
0FC0
0FE0
0FFE
0FFE
07FE
07FE
01FC
ENDCHAR
STARTCHAR 01AB
ENCODING 427
SWIDTH 500 0
DWIDTH 25 0
BBX 22 38 5 -8
BITMAP
00FC00
00FC00
01FC00
01F800
01F800
01F800
7FFFFC
7FFFFC
7FFFFC
FFFFF8
FFFFF8
FFFFF8
07E000
07E000
0FE000
0FC000
0FC000
0FC000
0FC000
1F8000
1F8000
1F8000
1F8000
1F8000
1FC000
1FFFC0
1FFFC0
0FFFC0
0FFFC0
03FFC0
000FC0
000F80
000F80
021F80
03FF00
03FF00
03FE00
07F800
ENDCHAR
STARTCHAR 01AC
ENCODING 428
SWIDTH 500 0
DWIDTH 25 0
BBX 25 31 5 0
BITMAP
03FFFF80
1FFFFF80
3FFFFF80
7FFFFF80
7FFFFF00
FC3F0000
F83F0000
F83F0000
F83F0000
F87E0000
007E0000
007E0000
007E0000
00FE0000
00FC0000
00FC0000
00FC0000
01FC0000
01F80000
01F80000
01F80000
03F80000
03F00000
03F00000
03F00000
07F00000
07E00000
07E00000
07E00000
07E00000
0FC00000
ENDCHAR
STARTCHAR 01AD
ENCODING 429
SWIDTH 500 0
DWIDTH 25 0
BBX 24 36 5 -1
BITMAP
000060
000FFF
001FFF
003FFF
007FFE
00FFFE
00FE00
01FC00
01F800
01F800
01F800
7FFFFC
7FFFFC
7FFFFC
FFFFF8
FFFFF8
FFFFF8
07E000
07E000
0FE000
0FC000
0FC000
0FC000
0FC000
1F8000
1F8000
1F8000
1F8000
1F8000
1FC0C0
1FFFC0
1FFFC0
0FFFC0
0FFFC0
03FF80
002000
ENDCHAR
STARTCHAR 01AE
ENCODING 430
SWIDTH 500 0
DWIDTH 25 0
BBX 23 39 7 -8
BITMAP
7FFFFE
FFFFFE
FFFFFE
FFFFFC
FFFFFC
00FC00
01F800
01F800
01F800
01F800
03F000
03F000
03F000
03F000
07F000
07E000
07E000
07E000
0FE000
0FC000
0FC000
0FC000
1FC000
1F8000
1F8000
1F8000
3F8000
3F0000
3F0000
3F0000
7F0000
7E0000
7E0000
7F0000
7FF000
7FF000
3FF000
3FF000
0FF000
ENDCHAR
STARTCHAR 01AF
ENCODING 431
SWIDTH 500 0
DWIDTH 25 0
BBX 30 37 3 -1
BITMAP
0000007C
0000007C
0000007C
000000FC
000001F8
07E03FF0
07E03FF0
07E03FC0
07E07E00
0FC07E00
0FC07E00
0FC07C00
0FC0FC00
0F80FC00
1F80FC00
1F80F800
1F81F800
1F01F800
3F01F800
3F01F800
3F01F000
3E03F000
7E03F000
7E03F000
7E03E000
7C07E000
FC07E000
FC07E000
FC0FC000
FC0FC000
FC1FC000
FE3F8000
7FFF8000
7FFF0000
3FFE0000
1FF80000
03C00000
ENDCHAR
STARTCHAR 01B0
ENCODING 432
SWIDTH 500 0
DWIDTH 25 0
BBX 27 29 3 -1
BITMAP
000003E0
000003E0
000007E0
000007C0
1F81FFC0
1F81FF80
1F81FF00
1F81FC00
1F03F000
3F03F000
3F03F000
3F03E000
3E07E000
7E07E000
7E07E000
7E07C000
7C0FC000
FC0FC000
FC0FC000
FC0FC000
FC0F8000
FC1F8000
FC3F8000
FFFF8000
FFFFC000
7FFFC000
7FFFC000
3FC7C000
02000000
ENDCHAR
STARTCHAR 01B1
ENCODING 433
SWIDTH 500 0
DWIDTH 25 0
BBX 28 32 3 -1
BITMAP
0FFE7FF0
0FFC7FE0
0FFC7FE0
1FFCFFE0
1FFCFFE0
01F87C00
03F07C00
07E07E00
0FC03E00
0FC03E00
1F803F00
1F003F00
3F003F00
3F003F00
7E003F00
7E003F00
7E003E00
FE003E00
FC007E00
FC007E00
FC007E00
FC00FC00
FC00FC00
FC01FC00
FE03F800
FE07F000
7FFFF000
7FFFE000
3FFFC000
1FFF8000
0FFE0000
01E00000
ENDCHAR
STARTCHAR 01B2
ENCODING 434
SWIDTH 500 0
DWIDTH 25 0
BBX 24 32 3 -1
BITMAP
03F1F8
07F3FC
07E3FE
07E3FE
07E3FF
0FE07F
0FC03F
0FC03F
0FC03F
1FC03F
1F803F
1F803F
1F803F
3F803F
3F007F
3F007E
3F007E
3F007E
7E00FE
7E00FC
7E00FC
7E01FC
7E03F8
FE03F8
FE07F0
FE0FE0
7FFFC0
7FFFC0
7FFF80
3FFE00
1FFC00
03C000
ENDCHAR
STARTCHAR 01B3
ENCODING 435
SWIDTH 500 0
DWIDTH 25 0
BBX 24 31 7 1
BITMAP
FC007E
FC01FF
FC01FF
FC03FF
FC07FE
FC07E4
7C0FC0
7C0F80
7E1F00
7E3F00
7E3E00
3E7E00
3E7C00
3FF800
3FF800
1FF000
1FF000
1FE000
1FC000
0FC000
1F8000
1F8000
1F8000
1F8000
3F8000
3F0000
3F0000
3F0000
7F0000
7E0000
7E0000
ENDCHAR
STARTCHAR 01B4
ENCODING 436
SWIDTH 500 0
DWIDTH 25 0
BBX 31 32 -2 -8
BITMAP
00FC007C
00FC01FE
00FC03FC
00FC07FC
00FC0FFC
00FC0FF8
00FC0F80
00FC1F80
00FC1F00
00FC3F00
00FC3E00
007C7E00
007E7E00
007EFC00
007EFC00
007EF800
007FF800
007FF000
003FF000
003FE000
003FE000
003FC000
003FC000
001F8000
003F8000
007F0000
00FE0000
3FFC0000
7FF80000
7FF00000
FFE00000
FF800000
ENDCHAR
STARTCHAR 01B5
ENCODING 437
SWIDTH 500 0
DWIDTH 25 0
BBX 26 31 2 0
BITMAP
01FFFFC0
01FFFFC0
01FFFFC0
03FFFFC0
03FFFF80
00003F80
00007F00
0000FE00
0000FC00
0001F800
0003F000
0007F000
000FE000
0FFFFE00
0FFFFE00
1FFFFE00
1FFFFE00
1FFFFC00
01FC0000
03F80000
07F00000
07E00000
0FC00000
1F800000
3F800000
7F000000
7FFFF800
FFFFF800
FFFFF000
FFFFF000
FFFFF000
ENDCHAR
STARTCHAR 01B6
ENCODING 438
SWIDTH 500 0
DWIDTH 25 0
BBX 24 24 3 0
BITMAP
07FFFF
07FFFE
07FFFE
07FFFE
0FFFFE
0FFFFC
0003F8
000FF0
001FC0
003F80
0FFFF8
0FFFF0
1FFFF0
1FFFF0
03F000
07E000
0FC000
1F8000
3F0000
7FFFE0
FFFFE0
FFFFE0
FFFFE0
FFFFC0
ENDCHAR
STARTCHAR 01B7
ENCODING 439
SWIDTH 500 0
DWIDTH 25 0
BBX 26 32 2 -1
BITMAP
01FFFFC0
01FFFFC0
01FFFFC0
01FFFFC0
01FFFF80
00003F00
00007E00
0000FC00
0001F800
0003F000
0007E000
000FC000
001F8000
003FC000
007FF000
007FF800
007FFC00
0003FC00
0001FC00
0000FC00
0000FC00
0000FC00
0000FC00
0001FC00
0001FC00
3803F800
7FBFF800
FFFFF000
FFFFE000
FFFFC000
3FFF0000
03F80000
ENDCHAR
STARTCHAR 01B8
ENCODING 440
SWIDTH 500 0
DWIDTH 25 0
BBX 25 32 4 -1
BITMAP
03FFFF80
03FFFF80
03FFFF80
03FFFF00
03FFFF00
01F80000
01F80000
00FC0000
00FC0000
007E0000
003F0000
003F0000
001F8000
00FF8000
03FF8000
0FFF8000
1FFF8000
3FC00000
7F000000
7E000000
FE000000
FC000000
FC000000
FC000000
FE000000
FF002000
7FEFE000
7FFFE000
3FFFE000
1FFFF000
0FFFC000
00FC0000
ENDCHAR
STARTCHAR 01B9
ENCODING 441
SWIDTH 500 0
DWIDTH 25 0
BBX 24 32 3 -8
BITMAP
03FFFF
03FFFF
03FFFF
03FFFF
03FFFE
03FFFE
01F800
01F800
00FC00
00FC00
007E00
003F00
003F00
003F80
03FF80
0FFF80
1FFF00
3FF000
7F8000
7E0000
FE0000
FC0000
FC0000
FC0000
FC0000
FE0020
FF00E0
7FFFE0
7FFFE0
3FFFE0
1FFFE0
07FF00
ENDCHAR
STARTCHAR 01BA
ENCODING 442
SWIDTH 500 0
DWIDTH 25 0
BBX 26 32 0 -9
BITMAP
00FFFFC0
00FFFFC0
00FFFFC0
01FFFF80
01FFFF80
01FFFF00
0000FE00
0001FC00
0003F000
000FE000
001FC000
003F0000
003FE000
007FF800
007FF800
0001FC00
0000FC00
0000FC00
0000FC00
0000FC00
0003FC00
001FF800
01FFF800
0FFFF000
3FFFC000
7FFF0000
FFF00000
FF000000
FC000000
F8000000
F8000000
F8000000
ENDCHAR
STARTCHAR 01BB
ENCODING 443
SWIDTH 500 0
DWIDTH 25 0
BBX 25 32 2 0
BITMAP
0001C000
003FF800
00FFFE00
01FFFF00
01FFFF00
01FFFF00
00E03F80
00C03F80
00003F80
00003F00
00003F00
00007E00
0000FE00
0001FC00
0003F800
07FFFF00
07FFFF00
07FFFF00
07FFFE00
00FF0000
01FE0000
03F80000
07F00000
0FE00000
1FC00000
1F800000
3F000000
7FFFF800
7FFFF800
7FFFF800
7FFFF800
FFFFF000
ENDCHAR
STARTCHAR 01BC
ENCODING 444
SWIDTH 500 0
DWIDTH 25 0
BBX 25 32 3 -1
BITMAP
07FFFF80
07FFFF80
07FFFF80
07FFFF80
0FFFFF00
00FC0000
00F80000
01F80000
01F80000
01F00000
03F00000
03F00000
03FF0000
07FFC000
07FFE000
07FFF000
000FF800
0003F800
0001FC00
0001FC00
0001FC00
0001FC00
0001FC00
0001F800
0003F800
6007F800
7F7FF000
FFFFE000
FFFFE000
FFFF8000
7FFF0000
07F00000
ENDCHAR
STARTCHAR 01BD
ENCODING 445
SWIDTH 500 0
DWIDTH 25 0
BBX 23 25 3 -1
BITMAP
07FFFE
07FFFE
07FFFC
0FFFFC
0FFFFC
0FFFFC
01F000
03F000
03E000
03FC00
07FF80
07FFE0
07FFE0
001FF0
0007F0
0003F0
0003F0
0003F0
2007F0
3F7FE0
7FFFE0
7FFFC0
FFFF80
7FFE00
07E000
ENDCHAR
STARTCHAR 01BE
ENCODING 446
SWIDTH 500 0
DWIDTH 25 0
BBX 23 31 4 -1
BITMAP
007E00
007E00
00FE00
00FC00
00FC00
00FC00
1FFFFE
3FFFFC
3FFFFC
3FFFFC
3FFFFC
3FFFF8
03F000
03F000
03F000
03F800
03FE00
03FF80
01FFC0
00FFE0
001FF0
0007F0
0003F0
0003F0
3007F0
7FFFE0
7FFFE0
FFFFC0
FFFF80
3FFE00
01E000
ENDCHAR
STARTCHAR 01BF
ENCODING 447
SWIDTH 500 0
DWIDTH 25 0
BBX 25 32 0 -8
BITMAP
000FF000
00FFFC00
01FFFF00
01FFFF00
03FFFF80
03FFFF80
03F83F80
03F03F80
07F03F80
07F01F80
07F03F80
07E03F80
0FE03F80
0FE03F00
0FE07F00
0FC0FF00
0FC1FE00
1FC3FC00
1FC7FC00
1F9FF800
1FFFF000
3FFFE000
3FFF8000
3FFF0000
3FFC0000
7FE00000
7F000000
7F000000
7E000000
FE000000
FE000000
FE000000
ENDCHAR
STARTCHAR 01C0
ENCODING 448
SWIDTH 500 0
DWIDTH 25 0
BBX 17 43 6 -8
BITMAP
001F80
003F00
003F00
003F00
003F00
007F00
007E00
007E00
007E00
00FE00
00FC00
00FC00
00FC00
01FC00
01F800
01F800
01F800
03F800
03F000
03F000
03F000
07F000
07E000
07E000
07E000
07E000
0FC000
0FC000
0FC000
0FC000
1FC000
1F8000
1F8000
1F8000
3F8000
3F0000
3F0000
3F0000
7F0000
7E0000
7E0000
7E0000
FE0000
ENDCHAR
STARTCHAR 01C1
ENCODING 449
SWIDTH 500 0
DWIDTH 25 0
BBX 26 43 2 -8
BITMAP
003F0FC0
003F1FC0
007F1F80
007E1F80
007E1F80
007E3F80
00FE3F00
00FC3F00
00FC3F00
00FC3F00
01FC7E00
01F87E00
01F87E00
01F87E00
03F8FE00
03F0FC00
03F0FC00
03F0FC00
03F1FC00
07E1F800
07E1F800
07E1F800
07E3F800
0FE3F000
0FC3F000
0FC3F000
0FC7F000
1FC7E000
1F87E000
1F87E000
1F8FE000
3F8FC000
3F0FC000
3F0FC000
3F0FC000
7F1F8000
7E1F8000
7E1F8000
7E1F8000
FE3F8000
FC3F0000
FC3F0000
FC3F0000
ENDCHAR
STARTCHAR 01C2
ENCODING 450
SWIDTH 500 0
DWIDTH 25 0
BBX 25 43 2 -8
BITMAP
0001F800
0003F800
0003F000
0003F000
0003F000
0003F000
0007E000
0007E000
0007E000
0007E000
000FE000
000FC000
000FC000
000FC000
001FC000
1FFFFF80
1FFFFF80
3FFFFF80
3FFFFF80
003F0000
003F0000
003F0000
007F0000
7FFFFF00
7FFFFE00
7FFFFE00
FFFFFE00
FFFFFE00
00FC0000
00FC0000
00FC0000
01F80000
01F80000
01F80000
01F80000
03F80000
03F00000
03F00000
03F00000
07F00000
07E00000
07E00000
07E00000
ENDCHAR
STARTCHAR 01C3
ENCODING 451
SWIDTH 500 0
DWIDTH 25 0
BBX 14 32 8 -1
BITMAP
01FC
01FC
01FC
03F8
03F8
03F8
03F8
07F0
07F0
07F0
07F0
0FE0
0FE0
0FE0
0FE0
0FC0
0FC0
0F80
1F80
1F80
0000
0000
0000
1C00
3F00
7F00
FF00
FF00
FF00
7F00
7E00
1000
ENDCHAR
STARTCHAR 01C4
ENCODING 452
SWIDTH 500 0
DWIDTH 25 0
BBX 34 40 0 1
BITMAP
00000181C0
000001C3C0
000001EF80
000000FF00
0000007C00
0000003800
0000001000
0000000000
0000000000
00FF03FE00
01FF83FE00
01FFC3FE00
01FFC7FE00
01E7C7FC00
03E3C03C00
03E3C07800
03C3E07800
03C3E0F000
07C3E0F000
07C3C1E000
0783C1E000
0783C3C000
0783C3C000
0F83C78000
0F07CF8000
0F078F0000
0F079F0000
1F079E0000
1E0F9E0000
1E0F3C0000
1E1F3C0000
3E1E780000
3E3E780000
3C3CF00000
3C7CF00000
7DF9FF8000
7FF1FF8000
7FE3FF8000
7FC3FF0000
FF03FF0000
ENDCHAR
STARTCHAR 01C5
ENCODING 453
SWIDTH 500 0
DWIDTH 25 0
BBX 32 33 0 0
BITMAP
00000102
0000038E
00FF03DF
01FF81FC
01FFC0F8
01FFC060
01E7C040
03E3C000
03E3C000
03C3E7FC
03C3EFFC
07C3EFFC
07C3CFF8
0783CFF8
0783C0F0
0783C1F0
0F83C1E0
0F07C3E0
0F0783C0
0F078780
1F078F80
1E0F8F00
1E0F1F00
1E1F1E00
3E1E3C00
3E3E3C00
3C3C7800
3C7C7800
7DF8FF80
7FF1FF80
7FE1FF80
7FC1FF80
FF01FF00
ENDCHAR
STARTCHAR 01C6
ENCODING 454
SWIDTH 500 0
DWIDTH 25 0
BBX 31 35 1 0
BITMAP
0001E000
0001E104
0003E30E
0003E3BE
0003C3FC
0003C1F0
0007C0E0
0007C000
00078000
00078000
00FF8FF8
03FF9FF8
07FF1FF8
07FF1FF0
0FFF1FF0
1F1F01E0
1E1E03E0
3E1E03C0
3E1E07C0
3C3E0780
7C3C0F00
7C3C1F00
783C1E00
787C3E00
78783C00
78787800
F8787800
F8F8F000
F8F8F000
78F1FF00
7FF3FF00
7FF3FF00
3FF3FF00
3FE3FE00
06000000
ENDCHAR
STARTCHAR 01C7
ENCODING 455
SWIDTH 500 0
DWIDTH 25 0
BBX 30 32 0 -1
BITMAP
01E0003C
01E0003C
01E0007C
03E0007C
03E00078
03C00078
03C000F8
07C000F8
07C000F0
078000F0
078000F0
0F8001F0
0F8001E0
0F0001E0
0F0001E0
0F0003E0
1F0003C0
1E0003C0
1E0003C0
1E0007C0
3E0007C0
3C000780
3C000780
3C000F80
7C000F00
7C001F00
78003F00
7FF1FE00
FFF3FE00
FFF3FC00
FFF3F000
00020000
ENDCHAR
STARTCHAR 01C8
ENCODING 456
SWIDTH 500 0
DWIDTH 25 0
BBX 29 41 1 -8
BITMAP
000000F0
000001F8
01E003F8
01E003F8
03E003F0
03E003E0
03C00180
03C00000
03C00000
07C003C0
078003C0
078007C0
07800780
0F800780
0F000780
0F000F80
0F000F80
1F000F00
1F000F00
1E001F00
1E001F00
3E001E00
3E001E00
3C003E00
3C003E00
7C003C00
7C003C00
78007C00
78007C00
FFFC7800
FFF87800
FFF8F800
FFF8F800
0000F000
0000F000
0001F000
0043E000
00FFE000
00FFC000
00FF8000
00FF0000
ENDCHAR
STARTCHAR 01C9
ENCODING 457
SWIDTH 500 0
DWIDTH 25 0
BBX 26 43 4 -8
BITMAP
00200000
01E00000
03E003C0
03E00FC0
03C00FC0
03C01FC0
07C01FC0
07C00F80
07800600
07800000
0F800000
0F801F00
0F001F00
0F001E00
0F001E00
1F003E00
1E003E00
1E003C00
1E003C00
3E007C00
3E007C00
3C007800
3C007800
7C007800
7C00F800
7800F000
7800F000
F800F000
F801F000
F801E000
FC01E000
FF81E000
7F83E000
7F03C000
1F03C000
0003C000
0007C000
00078000
020F8000
03FF0000
03FF0000
07FE0000
07F80000
ENDCHAR
STARTCHAR 01CA
ENCODING 458
SWIDTH 500 0
DWIDTH 25 0
BBX 30 32 0 -1
BITMAP
01E0F03C
01E1F03C
01E1E07C
03E1E07C
03E1E078
03E3E078
03E3E0F8
07E3C0F8
07E3C0F0
07E7C0F0
07E7C0F0
0FE781F0
0FE781E0
0F6F81E0
0F6F81E0
0F6F03E0
1F6F03C0
1E6F03C0
1E7F03C0
1E7E07C0
3E7E07C0
3E7E0780
3C7E0780
3C7C0F80
7C7C0F80
7C7C1F00
787C1F00
787DFE00
F879FE00
F879FC00
F07BF000
00038000
ENDCHAR
STARTCHAR 01CB
ENCODING 459
SWIDTH 500 0
DWIDTH 25 0
BBX 30 41 0 -8
BITMAP
00000078
000000FC
00E0F1FC
01E0F1FC
01F0F1F8
01F1F1F8
01F1E0E0
03F1E000
03F1E000
03F3E1E0
03F3C1E0
07F3C3E0
07F3C3E0
07F7C3C0
07F7C3C0
0FF787C0
0FF787C0
0F7F8780
0F7F8780
0F7F0780
1F7F0F80
1E7F0F00
1E7F0F00
1E7E0F00
3E7E1F00
3C7E1E00
3C7E1E00
3C7C1E00
7C7C3E00
7C7C3E00
787C3C00
78783C00
F8787C00
00007800
00007800
0000F800
0021F000
007FF000
007FE000
007FC000
007F8000
ENDCHAR
STARTCHAR 01CC
ENCODING 460
SWIDTH 500 0
DWIDTH 25 0
BBX 31 41 0 -8
BITMAP
0000003C
0000007E
000000FE
000000FE
000000FC
000000F8
00000070
00000000
00000000
007F00F0
03FF80F0
07FFC1F0
07FFC1F0
07C7E1E0
0783E1E0
0F83E3E0
0F83E3E0
0F03C3C0
0F03C3C0
1F03C7C0
1F07C7C0
1E078780
1E078780
3E078780
3E0F8F80
3C0F8F00
3C0F0F00
3C0F0F00
7C1F1F00
781F1E00
781E1E00
781E1E00
F83E3E00
00003C00
00003C00
00007C00
0010F800
003FF800
003FF000
003FE000
003FC000
ENDCHAR
STARTCHAR 01CD
ENCODING 461
SWIDTH 500 0
DWIDTH 25 0
BBX 27 41 0 1
BITMAP
000181C0
0003C3C0
0003EFE0
0001FF80
0000FF00
0000FE00
00007C00
00003000
00000000
00000000
0001FC00
0001FC00
0003FC00
0003FE00
0007FE00
000FFE00
000FBE00
001FBE00
001F3E00
003F3E00
003E3E00
007E3E00
007C3E00
00FC3E00
00F83E00
01F83E00
01F03E00
03F03F00
03E03F00
07FFFF00
07FFFF00
0FFFFF00
0FFFFF00
1FFFFF00
1F803F00
3F003F00
3F003F00
7E003F00
7E003F00
FE003F00
FC003F00
ENDCHAR
STARTCHAR 01CE
ENCODING 462
SWIDTH 500 0
DWIDTH 25 0
BBX 23 35 3 0
BITMAP
000C0E
001E1E
001F7E
000FFC
0007F8
0007F0
0003C0
000180
000000
000000
001FE0
00FFFE
01FFFE
07FFFE
0FFFFE
1FF0FC
1FC0FC
3F80FC
3F01FC
7F01F8
7E01F8
7E01F8
FE03F8
FC03F0
FC03F0
FC03F0
FC03F0
FE07F0
FE0FF0
7FFFF0
7FFFF0
3FFFF0
3FFDF0
0FF1F8
018000
ENDCHAR
STARTCHAR 01CF
ENCODING 463
SWIDTH 500 0
DWIDTH 25 0
BBX 27 41 2 1
BITMAP
00060300
000F8F80
000FDF80
0007FF00
0003FC00
0001F800
0000F000
0000E000
00000000
00000000
01FFFFE0
01FFFFC0
01FFFFC0
03FFFFC0
03FFFFC0
0007E000
000FE000
000FC000
000FC000
000FC000
001FC000
001F8000
001F8000
001F8000
003F8000
003F0000
003F0000
003F0000
003F0000
007E0000
007E0000
007E0000
007E0000
00FE0000
00FC0000
00FC0000
7FFFF000
7FFFF000
FFFFF000
FFFFF000
FFFFF000
ENDCHAR
STARTCHAR 01D0
ENCODING 464
SWIDTH 500 0
DWIDTH 25 0
BBX 18 35 6 0
BITMAP
030180
07C7C0
07EFC0
03FF80
01FE00
00FC00
00F800
006000
000000
000000
7FF800
7FF800
FFF800
FFF800
FFF800
FFF000
03F000
03F000
07F000
07E000
07E000
07E000
0FE000
0FC000
0FC000
0FC000
0FC000
1FC000
0FC080
0FFF80
0FFF80
0FFF80
07FF80
03FF80
002000
ENDCHAR
STARTCHAR 01D1
ENCODING 465
SWIDTH 500 0
DWIDTH 25 0
BBX 24 42 3 0
BITMAP
000606
001F0F
000FBF
0007FE
0007FC
0003F8
0001E0
0000C0
000000
000380
003FF0
00FFF8
01FFFC
03FFFE
07FFFE
07F07F
0FE07F
0FC03F
1FC03F
1F803F
3F803F
3F003F
3F003F
7F003F
7E007F
7E007E
7E007E
7E007E
7E00FE
FE00FC
FE00FC
FE01FC
FE01F8
FE03F8
7E07F0
7F0FF0
7FFFE0
3FFFC0
3FFF80
1FFF00
0FFC00
01E000
ENDCHAR
STARTCHAR 01D2
ENCODING 466
SWIDTH 500 0
DWIDTH 25 0
BBX 22 35 3 0
BITMAP
00181C
003C3C
003EFC
001FF8
000FF0
000FE0
000780
000300
000000
000000
003FC0
00FFE0
03FFF0
07FFF8
0FFFFC
1FE3FC
1FC1FC
3F80FC
3F00FC
7E00FC
7E00FC
7E00FC
7E00FC
FC00FC
FC01F8
FC01F8
FE03F8
FE07F0
7E0FF0
7FFFE0
7FFFC0
3FFF80
3FFF00
0FFC00
03C000
ENDCHAR
STARTCHAR 01D3
ENCODING 467
SWIDTH 500 0
DWIDTH 25 0
BBX 26 42 3 0
BITMAP
000E0600
001F1F00
001FBF00
000FFE00
0007F800
0003F000
0001E000
0001C000
00000000
00000000
07F00FC0
07E01FC0
07E01F80
07E01F80
0FE01F80
0FC03F80
0FC03F00
0FC03F00
1FC03F00
1F807F00
1F807E00
1F807E00
1F807E00
3F00FE00
3F00FC00
3F00FC00
3F00FC00
7F00FC00
7E01F800
7E01F800
7E01F800
FE01F800
FE03F000
FE03F000
FE07F000
FE0FE000
7FFFE000
7FFFC000
3FFF8000
3FFF0000
0FFE0000
03E00000
ENDCHAR
STARTCHAR 01D4
ENCODING 468
SWIDTH 500 0
DWIDTH 25 0
BBX 22 34 4 0
BITMAP
007030
00F8F8
007DF8
007FF0
003FE0
001F80
000F00
000600
000000
000000
1F80FC
1F80FC
1F80FC
1F81FC
3F81F8
3F01F8
3F01F8
3F03F8
7F03F0
7E03F0
7E03F0
7E07F0
FE07E0
FC07E0
FC07E0
FC0FE0
FC0FE0
FC0FC0
FE1FC0
FFFFE0
FFFFE0
7FFFE0
7FFFE0
3FE3F0
ENDCHAR
STARTCHAR 01D5
ENCODING 469
SWIDTH 500 0
DWIDTH 25 0
BBX 25 43 3 -1
BITMAP
000FFF00
000FFF00
000FFE00
000FFE00
00000000
000C0C00
003E3E00
003E3E00
003E3E00
003E3E00
001C1C00
00000000
00000000
07E01F80
07E01F80
0FE01F80
0FC03F80
0FC03F00
0FC03F00
0FC03F00
1F807F00
1F807E00
1F807E00
1F807E00
3F807E00
3F00FC00
3F00FC00
3F00FC00
7F00FC00
7E01F800
7E01F800
7E01F800
FE01F800
FE03F000
FE03F000
FE07F000
FE0FE000
7FFFE000
7FFFC000
3FFF8000
3FFF0000
0FFE0000
03E00000
ENDCHAR
STARTCHAR 01D6
ENCODING 470
SWIDTH 500 0
DWIDTH 25 0
BBX 22 37 4 -1
BITMAP
003FF8
007FF8
007FF8
007FF8
000000
006060
00F0F0
01F1F8
01F1F8
01F1F0
00E0E0
000000
000000
1F80FC
1F80FC
1F80FC
1F81FC
3F81F8
3F01F8
3F01F8
3F03F8
7F03F0
7E03F0
7E03F0
7E07F0
FE07E0
FC07E0
FC07E0
FC0FE0
FC0FE0
FC0FC0
FE1FC0
FFFFE0
FFFFE0
7FFFE0
7FFFE0
3FE3F0
ENDCHAR
STARTCHAR 01D7
ENCODING 471
SWIDTH 500 0
DWIDTH 25 0
BBX 26 42 3 0
BITMAP
00006000
0000F000
0000F000
0071F700
00FBEF80
00F9CF80
00F80F80
00F80F80
00600600
00000000
00000000
07E01FC0
07E01F80
07E01F80
0FE01F80
0FC03F80
0FC03F00
0FC03F00
1FC03F00
1F807F00
1F807E00
1F807E00
1F807E00
3F00FE00
3F00FC00
3F00FC00
3F00FC00
7F00FC00
7E01F800
7E01F800
7E01F800
FE01F800
FE03F000
FE03F000
FE07F000
FE0FE000
7FFFE000
7FFFC000
3FFF8000
3FFF0000
0FFE0000
03E00000
ENDCHAR
STARTCHAR 01D8
ENCODING 472
SWIDTH 500 0
DWIDTH 25 0
BBX 23 40 4 -1
BITMAP
000040
0000E0
0001F0
0001F8
0003F0
0007E0
0007C0
000F80
01C71C
03E23E
03E03E
03E03E
03E03E
018018
000000
000000
1F80FC
1F80FC
1F80FC
1F81FC
3F81F8
3F01F8
3F01F8
3F03F8
7F03F0
7E03F0
7E03F0
7E07F0
FE07E0
FC07E0
FC07E0
FC0FE0
FC0FE0
FC0FC0
FE1FC0
FFFFE0
FFFFE0
7FFFE0
7FFFE0
3FE3F0
ENDCHAR
STARTCHAR 01D9
ENCODING 473
SWIDTH 500 0
DWIDTH 25 0
BBX 26 42 3 0
BITMAP
00033800
0007F800
0007F800
0033F300
0079C780
00FC8FC0
00FC0F80
00F80F80
00700700
00000000
00000000
07E01FC0
07E01F80
07E01F80
0FE01F80
0FC03F80
0FC03F00
0FC03F00
1FC03F00
1F807F00
1F807E00
1F807E00
1F807E00
3F00FE00
3F00FC00
3F00FC00
3F00FC00
7F00FC00
7E01F800
7E01F800
7E01F800
FE01F800
FE03F000
FE03F000
FE07F000
FE0FE000
7FFFE000
7FFFC000
3FFF8000
3FFF0000
0FFE0000
03E00000
ENDCHAR
STARTCHAR 01DA
ENCODING 474
SWIDTH 500 0
DWIDTH 25 0
BBX 23 38 4 -1
BITMAP
001030
003C78
007FF8
003FF0
001FE0
000F80
01C71C
03E23E
03E03E
03E03E
03E03E
018018
000000
000000
1F80FC
1F80FC
1F80FC
1F81FC
3F81F8
3F01F8
3F01F8
3F03F8
7F03F0
7E03F0
7E03F0
7E07F0
FE07E0
FC07E0
FC07E0
FC0FE0
FC0FE0
FC0FC0
FE1FC0
FFFFE0
FFFFE0
7FFFE0
7FFFE0
3FE3F0
ENDCHAR
STARTCHAR 01DB
ENCODING 475
SWIDTH 500 0
DWIDTH 25 0
BBX 26 42 3 0
BITMAP
00018000
00078000
0007C000
0033E300
0079EF80
00FCCF80
00FC0F80
00F80F80
00700700
00000000
00000000
07E01FC0
07E01F80
07E01F80
0FE01F80
0FC03F80
0FC03F00
0FC03F00
1FC03F00
1F807F00
1F807E00
1F807E00
1F807E00
3F00FE00
3F00FC00
3F00FC00
3F00FC00
7F00FC00
7E01F800
7E01F800
7E01F800
FE01F800
FE03F000
FE03F000
FE07F000
FE0FE000
7FFFE000
7FFFC000
3FFF8000
3FFF0000
0FFE0000
03E00000
ENDCHAR
STARTCHAR 01DC
ENCODING 476
SWIDTH 500 0
DWIDTH 25 0
BBX 22 39 4 0
BITMAP
001C00
007C00
007C00
003E00
001E00
001E00
000F00
038F38
07C47C
07C07C
07C07C
07C07C
030030
000000
000000
1F80FC
1F80FC
1F80FC
1F81FC
3F81F8
3F01F8
3F01F8
3F03F8
7F03F0
7E03F0
7E03F0
7E07F0
FE07E0
FC07E0
FC07E0
FC0FE0
FC0FE0
FC0FC0
FE1FC0
FFFFE0
FFFFE0
7FFFE0
7FFFE0
3FE3F0
ENDCHAR
STARTCHAR 01DD
ENCODING 477
SWIDTH 500 0
DWIDTH 25 0
BBX 22 25 3 -1
BITMAP
03FF00
1FFFC0
1FFFE0
1FFFF0
1FFFF8
0C07F8
0001FC
0000FC
0000FC
007FFC
07FFFC
1FFFFC
3FFFFC
7FE0F8
FE01F8
FC01F8
FC03F8
F803F0
FC0FE0
FF7FE0
FFFFC0
7FFF80
7FFE00
1FF800
010000
ENDCHAR
STARTCHAR 01DE
ENCODING 478
SWIDTH 500 0
DWIDTH 25 0
BBX 27 42 0 0
BITMAP
0001FFE0
0001FFC0
0001FFC0
0003FFC0
00000000
00030380
000787C0
000FC7C0
000FC7C0
000787C0
00070380
00000000
00000000
0001FC00
0003FC00
0003FC00
0007FC00
000FFC00
000FFC00
001FFE00
001F7E00
003F7E00
003E3E00
007E3E00
00FC3E00
00FC3E00
01F83E00
01F83E00
03F03E00
03F03F00
07E03F00
07FFFF00
0FFFFF00
0FFFFF00
1FFFFF00
1FFFFF00
3F803F00
3F003F00
7F003F00
7E003F00
FE003F00
FC003F00
ENDCHAR
STARTCHAR 01DF
ENCODING 479
SWIDTH 500 0
DWIDTH 25 0
BBX 24 38 3 -1
BITMAP
000FFF
000FFE
000FFE
001FFE
000000
00181C
003E3E
007E3E
007E7E
003C3E
003818
000000
000000
001FE0
00FFFE
01FFFE
07FFFE
0FFFFE
1FF0FC
1FC0FC
3F80FC
3F01FC
7F01F8
7E01F8
7E01F8
FE03F8
FC03F0
FC03F0
FC03F0
FC03F0
FE07F0
FE0FF0
7FFFF0
7FFFF0
3FFFF0
3FFDF0
0FF1F8
018000
ENDCHAR
STARTCHAR 01E0
ENCODING 480
SWIDTH 500 0
DWIDTH 25 0
BBX 27 42 0 0
BITMAP
0001FFE0
0001FFE0
0001FFC0
0001FFC0
00000000
00003000
00007C00
00007C00
0000FC00
00007C00
00007000
00000000
00000000
0001FC00
0003FC00
0003FC00
0007FC00
000FFC00
000FFC00
001FFE00
001F7E00
003F7E00
003E3E00
007E3E00
00FC3E00
00FC3E00
01F83E00
01F83E00
03F03E00
03F03F00
07E03F00
07FFFF00
0FFFFF00
0FFFFF00
1FFFFF00
1FFFFF00
3F803F00
3F003F00
7F003F00
7E003F00
FE003F00
FC003F00
ENDCHAR
STARTCHAR 01E1
ENCODING 481
SWIDTH 500 0
DWIDTH 25 0
BBX 24 38 3 -1
BITMAP
000FFF
000FFF
000FFE
001FFE
000000
0001C0
0003E0
0007E0
0007E0
0003C0
000380
000000
000000
001FE0
00FFFE
01FFFE
07FFFE
0FFFFE
1FF0FC
1FC0FC
3F80FC
3F01FC
7F01F8
7E01F8
7E01F8
FE03F8
FC03F0
FC03F0
FC03F0
FC03F0
FE07F0
FE0FF0
7FFFF0
7FFFF0
3FFFF0
3FFDF0
0FF1F8
018000
ENDCHAR
STARTCHAR 01E2
ENCODING 482
SWIDTH 500 0
DWIDTH 25 0
BBX 32 39 0 0
BITMAP
00003FFF
00003FFF
00007FFF
00007FFF
00000000
00000000
00000000
00000000
0000FFFC
0001FFFC
0003FFFC
0003FFF8
0007FFF8
0007FE00
000FBE00
001F7E00
001F7E00
003E7C00
003E7C00
007CFC00
007CFFC0
00F8FFC0
00F8FFC0
01F0FF80
03F1FF80
03E1F000
07E1F000
07FFF000
0FFFF000
0FFFF000
1FFFE000
1FFFE000
3F07E000
3F07E000
3E07FF80
7E07FF00
7E0FFF00
FC0FFF00
FC0FFF00
ENDCHAR
STARTCHAR 01E3
ENCODING 483
SWIDTH 500 0
DWIDTH 25 0
BBX 26 33 1 -1
BITMAP
001FFF80
001FFF80
001FFF80
003FFF80
00000000
00000000
00000000
00000000
07F01F00
0FF87F80
0FFCFFC0
0FFEFFC0
0FFFF7C0
081FC3C0
001FC3C0
001F83C0
001F87C0
00FF0780
03FF1F80
0FFFFF00
1FFFFE00
3F1FFC00
3E1FF000
7C3F0000
783E0000
787F0000
F87F0000
F8FF8600
7FEFFE00
7FEFFE00
7FC7FE00
3F83FC00
0C006000
ENDCHAR
STARTCHAR 01E4
ENCODING 484
SWIDTH 500 0
DWIDTH 25 0
BBX 23 33 4 -1
BITMAP
0001C0
001FFC
007FFE
00FFFE
03FFFE
07FFFC
07F80C
0FE000
1FC000
1F8000
3F8000
3F0000
7F0000
7E0000
7E0000
7E01F8
FE01F8
FC01F8
FC1FFE
FC1FFC
FC3FFC
FC3FFC
FC3FFC
FC07E0
FC07E0
FE07E0
FF07E0
7FFFC0
7FFFC0
3FFFC0
1FFFC0
0FFF80
01F000
ENDCHAR
STARTCHAR 01E5
ENCODING 485
SWIDTH 500 0
DWIDTH 25 0
BBX 27 32 0 -8
BITMAP
0003FE00
001FFFC0
003FFFC0
00FFFF80
01FFFF80
01FC1F80
03F83F80
07F03F00
07E03F00
0FE1FFE0
0FC3FFE0
0FC3FFE0
0FC3FFC0
0FC07E00
0FC0FE00
0FC0FC00
0FC0FC00
0FFFFC00
07FFFC00
07FFF800
03FFF800
01FDF800
0001F800
0003F000
0003F000
0007F000
300FE000
7FFFE000
7FFFC000
FFFF8000
FFFF0000
3FFC0000
ENDCHAR
STARTCHAR 01E6
ENCODING 486
SWIDTH 500 0
DWIDTH 25 0
BBX 25 42 4 0
BITMAP
00060700
000F0F00
000F9F80
0007FE00
0003FC00
0001F800
0001F000
0000C000
00000000
0000C000
001FFC00
007FFF00
00FFFF00
01FFFF00
03FFFE00
07F80E00
0FE00000
1FC00000
1FC00000
3F800000
3F000000
7F000000
7E000000
7E000000
7E000000
FE01FC00
FC01F800
FC01F800
FC01F800
FC03F800
FC03F000
FC03F000
FC03F000
FE03F000
FE07E000
FF07E000
7FFFE000
7FFFE000
3FFFC000
1FFFC000
0FFF8000
01F00000
ENDCHAR
STARTCHAR 01E7
ENCODING 487
SWIDTH 500 0
DWIDTH 25 0
BBX 28 42 0 -7
BITMAP
0000C060
0001F1F0
0001FBF0
0000FFC0
00007F80
00003F00
00003E00
00001800
00000000
00000000
0003FF00
000FFFE0
003FFFC0
007FFFC0
01FFFFC0
01FE0FC0
03F81F80
07F01F80
07E01F80
0FE01F80
0FC03F00
0FC03F00
0FC03F00
0FC03F00
0FC07F00
0FC07E00
0FE07E00
0FFFFE00
07FFFE00
07FFFC00
03FFFC00
01FEFC00
0001FC00
0001F800
0001F800
0003F800
380FF000
7FFFE000
7FFFE000
FFFFC000
FFFF0000
3FFC0000
ENDCHAR
STARTCHAR 01E8
ENCODING 488
SWIDTH 500 0
DWIDTH 25 0
BBX 28 41 2 1
BITMAP
00060700
000F0F00
000FBF00
0007FE00
0003FC00
0003F800
0001E000
0000C000
00000000
00000000
01F807F0
01F80FE0
03F81FC0
03F01FC0
03F03F80
03F07F00
07F0FE00
07E1FC00
07E3F800
07E7F000
0FE7E000
0FCFE000
0FFF8000
0FFF0000
1FFE0000
1FFE0000
1FFF0000
1FBF8000
1FBF8000
3F1FC000
3F0FC000
3F0FE000
3F07E000
7F07F000
7E03F000
7E03F000
7E03F800
FE01F800
FC01F800
FC01FC00
FC01FC00
ENDCHAR
STARTCHAR 01E9
ENCODING 489
SWIDTH 500 0
DWIDTH 25 0
BBX 25 41 3 0
BITMAP
00307000
0078F000
007FF000
003FE000
001F8000
000F0000
00060000
00000000
00000000
00080000
01F80000
01F80000
01F80000
03F00000
03F00000
03F00000
03F00000
07F03F80
07E07F00
07E07F00
07E0FE00
0FE1FC00
0FC3F800
0FC7F000
0FCFE000
1FFFC000
1FFF0000
1FFE0000
1FFC0000
3FFE0000
3F7F0000
3F3F0000
3F3F8000
7F1F8000
7E1FC000
7E0FC000
7E0FE000
7E07E000
FE07F000
FC03F000
FC03F800
ENDCHAR
STARTCHAR 01EA
ENCODING 490
SWIDTH 500 0
DWIDTH 25 0
BBX 24 41 3 -9
BITMAP
000380
003FF0
00FFF8
01FFFC
03FFFE
07FFFE
07F07F
0FE07F
0FC03F
1FC03F
1F803F
3F803F
3F003F
3F003F
7F003F
7E007F
7E007E
7E007E
7E007E
7E00FE
FE00FC
FE00FC
FE01FC
FE01F8
FE03F8
7E07F0
7F0FE0
7FFFE0
3FFFC0
3FFF80
1FFF00
0FFC00
01F000
07E000
0FC000
1F8000
1F8000
1FF000
1FF000
0FF000
010000
ENDCHAR
STARTCHAR 01EB
ENCODING 491
SWIDTH 500 0
DWIDTH 25 0
BBX 22 33 3 -9
BITMAP
003FC0
00FFE0
03FFF0
07FFF8
0FFFFC
1FE3FC
1FC1FC
3F80FC
3F00FC
7E00FC
7E00FC
7E00FC
7E00FC
FC00FC
FC01F8
FC01F8
FE03F8
FE07F0
FE0FF0
7FFFE0
7FFFC0
3FFF80
1FFF00
0FFC00
01F800
03E000
07C000
0F8000
1F8000
1FF800
1FF800
0FF000
018000
ENDCHAR
STARTCHAR 01EC
ENCODING 492
SWIDTH 500 0
DWIDTH 25 0
BBX 25 48 3 -9
BITMAP
003FFF80
003FFF80
003FFF00
003FFF00
00000000
00000000
00000000
00038000
003FF000
00FFF800
01FFFC00
03FFFE00
07FFFE00
07F07F00
0FE07F00
0FC03F00
1FC03F00
1F803F00
3F803F00
3F003F00
3F003F00
7F003F00
7E007F00
7E007E00
7E007E00
7E007E00
7E00FE00
FE00FC00
FE00FC00
FE01FC00
FE01F800
FE03F800
7E07F000
7F0FE000
7FFFE000
3FFFC000
3FFF8000
1FFF0000
0FFC0000
01F00000
07E00000
0FC00000
1F800000
1F800000
1FF00000
1FF00000
0FF00000
01000000
ENDCHAR
STARTCHAR 01ED
ENCODING 493
SWIDTH 500 0
DWIDTH 25 0
BBX 24 41 3 -9
BITMAP
007FFF
007FFF
007FFE
007FFE
000000
000000
000000
000000
003FC0
00FFE0
03FFF0
07FFF8
0FFFFC
1FE3FC
1FC1FC
3F80FC
3F00FC
7E00FC
7E00FC
7E00FC
7E00FC
FC00FC
FC01F8
FC01F8
FE03F8
FE07F0
FE0FF0
7FFFE0
7FFFC0
3FFF80
1FFF00
0FFC00
01F800
03E000
07C000
0F8000
1F8000
1FF800
1FF800
0FF000
018000
ENDCHAR
STARTCHAR 01EE
ENCODING 494
SWIDTH 500 0
DWIDTH 25 0
BBX 26 42 2 0
BITMAP
00070300
000F8F80
000FDF80
0007FF00
0003FC00
0001F800
0000F000
0000E000
00000000
00000000
01FFFFC0
01FFFFC0
01FFFFC0
01FFFFC0
01FFFF80
00003F00
00007E00
0000FC00
0001F800
0003F000
0007E000
000FC000
001F8000
003FC000
007FF000
007FF800
007FFC00
0003FC00
0001FC00
0000FC00
0000FC00
0000FC00
0000FC00
0001FC00
0001FC00
3803F800
7FBFF800
FFFFF000
FFFFE000
FFFFC000
3FFF0000
03F80000
ENDCHAR
STARTCHAR 01EF
ENCODING 495
SWIDTH 500 0
DWIDTH 25 0
BBX 26 42 0 -7
BITMAP
00030380
00078780
0007DF80
0003FF00
0001FE00
0001FC00
0000F000
00006000
00000000
00000000
01FFFFC0
01FFFFC0
01FFFF80
01FFFF80
03FFFF80
03FFFF00
00007E00
0000FC00
0001F800
0003F000
000FE000
001FC000
003F8000
007E0000
007FC000
007FE000
00FFF000
000FF800
0003F800
0001FC00
0001FC00
0001FC00
0001FC00
0001F800
0003F800
0003F800
380FF000
7FFFF000
7FFFE000
7FFFC000
FFFF0000
1FFC0000
ENDCHAR
STARTCHAR 01F0
ENCODING 496
SWIDTH 500 0
DWIDTH 25 0
BBX 25 43 0 -8
BITMAP
00070300
000F8F80
000FDF80
0007FF00
0003FC00
0001F800
0000F000
0000C000
00000000
00000000
00FFFF00
00FFFE00
00FFFE00
01FFFE00
01FFFE00
01FFFE00
0000FC00
0000FC00
0000FC00
0001FC00
0001F800
0001F800
0001F800
0003F800
0003F000
0003F000
0003F000
0007F000
0007E000
0007E000
0007E000
000FE000
000FC000
000FC000
000FC000
001FC000
703F8000
7FFF8000
7FFF0000
FFFE0000
FFFC0000
3FF80000
01800000
ENDCHAR
STARTCHAR 01F1
ENCODING 497
SWIDTH 500 0
DWIDTH 25 0
BBX 31 31 0 0
BITMAP
00FF03FE
01FF83FE
01FFC3FE
01FFC7FE
01E7C7FC
03E3C03C
03E3C078
03C3E078
03C3E0F0
07C3E0F0
07C3C1E0
0783C1E0
0783C3C0
0783C3C0
0F83C780
0F07CF80
0F078F00
0F079F00
1F079E00
1E0F9E00
1E0F3C00
1E1F3C00
3E1E7800
3E3E7800
3C3CF000
3C7CF000
7DF9FF80
7FF1FF80
7FE3FF80
7FC3FF00
FF03FF00
ENDCHAR
STARTCHAR 01F2
ENCODING 498
SWIDTH 500 0
DWIDTH 25 0
BBX 30 31 0 0
BITMAP
00FF0000
01FF8000
01FFC000
01FFC000
01E7C000
03E3C000
03E3C000
03C3E7FC
03C3EFFC
07C3EFFC
07C3CFF8
0783CFF8
0783C0F0
0783C1F0
0F83C1E0
0F07C3E0
0F0783C0
0F078780
1F078F80
1E0F8F00
1E0F1F00
1E1F1E00
3E1E3C00
3E3E3C00
3C3C7800
3C7C7800
7DF8FF80
7FF1FF80
7FE1FF80
7FC1FF80
FF01FF00
ENDCHAR
STARTCHAR 01F3
ENCODING 499
SWIDTH 500 0
DWIDTH 25 0
BBX 29 35 1 0
BITMAP
0001E000
0001E000
0003E000
0003E000
0003C000
0003C000
0007C000
0007C000
00078000
00078000
00FF8FF8
03FF9FF8
07FF1FF8
07FF1FF0
0FFF1FF0
1F1F01E0
1E1E03E0
3E1E03C0
3E1E07C0
3C3E0780
7C3C0F00
7C3C1F00
783C1E00
787C3E00
78783C00
78787800
F8787800
F8F8F000
F8F8F000
78F1FF00
7FF3FF00
7FF3FF00
3FF3FF00
3FE3FE00
06000000
ENDCHAR
STARTCHAR 01F4
ENCODING 500
SWIDTH 500 0
DWIDTH 25 0
BBX 24 42 4 0
BITMAP
000060
0000F0
0001F8
0007F8
000FF8
001FE0
001F80
000E00
000000
0000C0
001FFC
007FFF
00FFFF
01FFFF
03FFFE
07F80E
0FE000
1FC000
1FC000
3F8000
3F0000
7F0000
7E0000
7E0000
7E0000
FE01FC
FC01F8
FC01F8
FC01F8
FC03F8
FC03F0
FC03F0
FC03F0
FE03F0
FE07E0
FF07E0
7FFFE0
7FFFE0
3FFFC0
1FFFC0
0FFF80
01F000
ENDCHAR
STARTCHAR 01F5
ENCODING 501
SWIDTH 500 0
DWIDTH 25 0
BBX 27 42 0 -7
BITMAP
00000600
00000F00
00003F80
00007F80
0000FF80
0001FE00
0001F800
0000E000
00000000
00000000
0003FF00
000FFFE0
003FFFC0
007FFFC0
01FFFFC0
01FE0FC0
03F81F80
07F01F80
07E01F80
0FE01F80
0FC03F00
0FC03F00
0FC03F00
0FC03F00
0FC07F00
0FC07E00
0FE07E00
0FFFFE00
07FFFE00
07FFFC00
03FFFC00
01FEFC00
0001FC00
0001F800
0001F800
0003F800
380FF000
7FFFE000
7FFFE000
FFFFC000
FFFF0000
3FFC0000
ENDCHAR
STARTCHAR 01F6
ENCODING 502
SWIDTH 500 0
DWIDTH 25 0
BBX 29 32 0 -1
BITMAP
00F07800
01F0F800
01F0F800
01F0F800
01F0F800
03E1F000
03E1F000
03E1F0F8
03E1F1F0
07C3E1F0
07C3E1F0
07C3E1F0
07FFE1E0
0FFFC3E0
0FFFC3E0
0FFFC3E0
0FFFC3C0
1F0F87C0
1F0F87C0
1F0F87C0
1F0F8780
1E0F8F80
3E1F0F80
3E1F0F80
3E1F0F00
3E1F1F00
7C1F1F00
7C1FFE00
7C1FFE00
7C0FFC00
F807F800
0001C000
ENDCHAR
STARTCHAR 01F7
ENCODING 503
SWIDTH 500 0
DWIDTH 25 0
BBX 27 39 1 -8
BITMAP
000FFC00
007FFF00
00FFFF80
00FFFF80
00FFFFC0
00FC1FC0
01FC0FE0
01F80FE0
01F80FE0
01F807E0
03F80FE0
03F00FE0
03F00FC0
03F00FC0
07F00FC0
07E01FC0
07E01F80
07E03F80
07E03F00
0FE07F00
0FC0FE00
0FC1FC00
0FC3F800
1FCFF000
1FBFE000
1FFFC000
1FFF8000
3FFE0000
3FFC0000
3FF00000
3F800000
7F000000
7E000000
7E000000
7E000000
FE000000
FC000000
FC000000
FC000000
ENDCHAR
STARTCHAR 01F8
ENCODING 504
SWIDTH 500 0
DWIDTH 25 0
BBX 28 41 1 1
BITMAP
00030000
0003C000
0007E000
000FF000
000FFC00
0003FE00
0000FC00
00003800
00000800
00000000
00F801F0
01F803F0
01FC03F0
01FC03E0
01FC03E0
03FE07E0
03FE07E0
03FE07C0
03FE07C0
07FF07C0
07FF0FC0
07CF0FC0
07CF0F80
0FCF8F80
0FCF9F80
0F879F80
0F879F00
0F87DF00
1F87FF00
1F83FF00
1F03FE00
1F03FE00
3F03FE00
3F03FE00
3E01FC00
3E01FC00
7E01FC00
7E01FC00
7C01F800
7C00F800
FC00F800
ENDCHAR
STARTCHAR 01F9
ENCODING 505
SWIDTH 500 0
DWIDTH 25 0
BBX 23 34 2 1
BITMAP
000C00
000F00
001F80
003FC0
001FF0
000FF8
0003F0
0000E0
000020
000000
003FE0
03FFF8
07FFFC
07FFFC
07FFFE
07F1FE
0FE0FE
0FC0FE
0FC07E
0FC0FE
1FC0FC
1F80FC
1F80FC
1F80FC
3F81F8
3F01F8
3F01F8
3F01F8
3F03F0
7E03F0
7E03F0
7E03F0
7E07E0
FC07E0
ENDCHAR
STARTCHAR 01FA
ENCODING 506
SWIDTH 500 0
DWIDTH 25 0
BBX 24 41 0 1
BITMAP
000007
00001F
00007F
0000FE
0000F0
000000
000038
0000FC
0001FE
0001C7
000187
0001C7
0001FE
0003FE
0003FC
0007FC
0007FE
000FFE
001FBE
001F3E
003F3E
003E3E
007E3E
007C3E
00FC3E
00F83E
01F83E
03F03E
03F03F
07FFFF
07FFFF
0FFFFF
0FFFFF
1FFFFF
1F803F
3F003F
3F003F
7F003F
7E003F
FE003F
FC003F
ENDCHAR
STARTCHAR 01FB
ENCODING 507
SWIDTH 500 0
DWIDTH 25 0
BBX 23 42 3 0
BITMAP
00001C
00007C
0001FC
0003F0
0003C0
000000
0001E0
0003F0
0007F8
000738
000E1C
000618
0007F8
0007F8
0001E0
000000
000000
001FE0
00FFFE
01FFFE
07FFFE
0FFFFE
1FF0FC
1FC0FC
3F80FC
3F01FC
7F01F8
7E01F8
7E01F8
FE03F8
FC03F0
FC03F0
FC03F0
FC03F0
FE07F0
FE0FF0
7FFFF0
7FFFF0
3FFFF0
3FFDF0
0FF1F8
018000
ENDCHAR
STARTCHAR 01FC
ENCODING 508
SWIDTH 500 0
DWIDTH 25 0
BBX 30 41 0 1
BITMAP
00000060
000000F0
000003F0
000007F8
00000FF8
00001FE0
00001F80
00000E00
00000000
00000000
0000FFFC
0001FFFC
0003FFFC
0003FFF8
0007FFF8
0007FE00
000FBE00
001F7E00
001F7E00
003E7C00
003E7C00
007CFC00
007CFFC0
00F8FFC0
00F8FFC0
01F0FF80
03F1FF80
03E1F000
07E1F000
07FFF000
0FFFF000
0FFFF000
1FFFE000
1FFFE000
3F07E000
3F07E000
3E07FF80
7E07FF00
7E0FFF00
FC0FFF00
FC0FFF00
ENDCHAR
STARTCHAR 01FD
ENCODING 509
SWIDTH 500 0
DWIDTH 25 0
BBX 26 35 1 0
BITMAP
00001800
00003C00
00007E00
0001FE00
0003FE00
0007F800
0003E000
00038000
00000000
00000000
07F01F00
0FF87F80
0FFCFFC0
0FFEFFC0
0FFFF7C0
081FC3C0
001FC3C0
001F83C0
001F87C0
00FF0780
03FF1F80
0FFFFF00
1FFFFE00
3F1FFC00
3E1FF000
7C3F0000
783E0000
787F0000
F87F0000
F8FF8600
7FEFFE00
7FEFFE00
7FC7FE00
3F83FC00
0C006000
ENDCHAR
STARTCHAR 01FE
ENCODING 510
SWIDTH 500 0
DWIDTH 25 0
BBX 24 43 3 -1
BITMAP
0000C0
0001E0
0007E0
000FF0
001FF0
003FC0
003F00
001C00
000004
00038F
003FFF
00FFFF
01FFFE
03FFFE
07FFFE
07F0FF
0FE0FF
0FC1FF
1F83FF
1F83FF
3F07FF
3F0FBF
3F0FBF
7E1F3F
7E3E3F
7E3E3E
7E7C7E
7CF87E
7CF87E
FDF0FC
FFE0FC
FFE0FC
FFC1F8
FF83F8
7F83F0
7F07F0
7FBFE0
3FFFC0
7FFF80
FFFF00
FFFC00
F0E000
200000
ENDCHAR
STARTCHAR 01FF
ENCODING 511
SWIDTH 500 0
DWIDTH 25 0
BBX 23 36 4 -1
BITMAP
000180
0003C0
000FC0
001FE0
003FE0
007F80
007E00
003800
000008
00000C
003FDE
00FFFE
03FFFC
07FFF8
0FFFFC
0FE1FC
1F83FC
3F07FC
3F0FFC
7E1F7C
7E3FFC
7E3EFC
7C7CFC
7CF8FC
FDF0FC
FFE1F8
FFC1F8
7F83F0
7F07F0
7FFFE0
7FFFC0
3FFF80
7FFF00
FFFC00
F1E000
600000
ENDCHAR
STARTCHAR 0200
ENCODING 512
SWIDTH 500 0
DWIDTH 25 0
BBX 28 41 0 1
BITMAP
00030300
000F0780
001F8F80
000F87C0
0007C7C0
0003E3E0
0001E1F0
0001C0C0
00000000
00000000
0001FC00
0001FC00
0003FC00
0003FE00
0007FE00
000FFE00
000FBE00
001FBE00
001F3E00
003F3E00
003E3E00
007E3E00
007C3E00
00FC3E00
00F83E00
01F83E00
01F03E00
03F03F00
03E03F00
07FFFF00
07FFFF00
0FFFFF00
0FFFFF00
1FFFFF00
1F803F00
3F003F00
3F003F00
7E003F00
7E003F00
FE003F00
FC003F00
ENDCHAR
STARTCHAR 0201
ENCODING 513
SWIDTH 500 0
DWIDTH 25 0
BBX 24 35 3 -1
BITMAP
003010
007078
01F8F8
00F87C
007C7E
003E3E
003E1F
001C0C
000000
000000
001FE0
00FFFE
01FFFE
07FFFE
0FFFFE
1FF0FC
1FC0FC
3F80FC
3F01FC
7F01F8
7E01F8
7E01F8
FE03F8
FC03F0
FC03F0
FC03F0
FC03F0
FE07F0
FE0FF0
7FFFF0
7FFFF0
3FFFF0
3FFDF0
0FF1F8
018000
ENDCHAR
STARTCHAR 0202
ENCODING 514
SWIDTH 500 0
DWIDTH 25 0
BBX 26 41 0 0
BITMAP
00003E00
0000FF00
0003FF80
0003FFC0
0007E7C0
0007C3C0
000F83C0
000F83C0
00000000
00000000
0001FC00
0001FC00
0003FC00
0003FE00
0007FE00
000FFE00
000FBE00
001FBE00
001F3E00
003F3E00
003E3E00
007E3E00
007C3E00
00FC3E00
00F83E00
01F83E00
01F03E00
03F03F00
03E03F00
07FFFF00
07FFFF00
0FFFFF00
0FFFFF00
1FFFFF00
1F803F00
3F003F00
3F003F00
7E003F00
7E003F00
FE003F00
FC003F00
ENDCHAR
STARTCHAR 0203
ENCODING 515
SWIDTH 500 0
DWIDTH 25 0
BBX 23 35 3 -1
BITMAP
0001E0
000FF8
001FFC
003FFC
007FFE
007C3E
00783E
00783E
000000
000000
001FE0
00FFFE
01FFFE
07FFFE
0FFFFE
1FF0FC
1FC0FC
3F80FC
3F01FC
7F01F8
7E01F8
7E01F8
FE03F8
FC03F0
FC03F0
FC03F0
FC03F0
FE07F0
FE0FF0
7FFFF0
7FFFF0
3FFFF0
3FFDF0
0FF1F8
018000
ENDCHAR
STARTCHAR 0204
ENCODING 516
SWIDTH 500 0
DWIDTH 25 0
BBX 25 42 3 0
BITMAP
00000400
000C0C00
003C1E00
007E3E00
003E3F00
001F1F00
000F0F80
000F8780
00060300
00000000
00000000
01FFFF80
01FFFF80
03FFFF80
03FFFF80
03FFFF00
03F00000
07F00000
07E00000
07E00000
07E00000
07E00000
0FC00000
0FFFF800
0FFFF800
0FFFF000
1FFFF000
1FFFF000
1F800000
1F800000
3F800000
3F000000
3F000000
3F000000
7F000000
7E000000
7E000000
7FFFF000
FFFFF000
FFFFF000
FFFFE000
FFFFE000
ENDCHAR
STARTCHAR 0205
ENCODING 517
SWIDTH 500 0
DWIDTH 25 0
BBX 23 35 4 -1
BITMAP
006020
00E0F0
03F1F0
01F0F8
00F8FC
007C7C
007C3E
003818
000000
000000
003FC0
01FFF0
03FFF8
07FFF8
0FFFFC
1FC1FC
3F80FC
7F00FC
7E00FC
7C01F8
FC07F8
FFFFF0
FFFFE0
FFFFC0
FFFE00
FFC000
FC0000
FC0000
FE0000
7FEFC0
7FFFC0
3FFFC0
1FFFE0
07FF80
007000
ENDCHAR
STARTCHAR 0206
ENCODING 518
SWIDTH 500 0
DWIDTH 25 0
BBX 25 41 3 0
BITMAP
0000F800
0003FE00
0007FF00
000FFF00
001F9F00
001F0F80
001E0F80
003E0F00
00000000
00000000
01FFFF80
01FFFF80
03FFFF80
03FFFF80
03FFFF00
03F00000
07F00000
07E00000
07E00000
07E00000
07E00000
0FC00000
0FFFF800
0FFFF800
0FFFF000
1FFFF000
1FFFF000
1F800000
1F800000
3F800000
3F000000
3F000000
3F000000
7F000000
7E000000
7E000000
7FFFF000
FFFFF000
FFFFF000
FFFFE000
FFFFE000
ENDCHAR
STARTCHAR 0207
ENCODING 519
SWIDTH 500 0
DWIDTH 25 0
BBX 22 35 4 -1
BITMAP
000380
001FE0
007FF0
007FF8
00FFF8
00F878
01F078
01F078
000000
000000
003FC0
01FFF0
03FFF8
07FFF8
0FFFFC
1FC1FC
3F80FC
7F00FC
7E00FC
7C01F8
FC07F8
FFFFF0
FFFFE0
FFFFC0
FFFE00
FFC000
FC0000
FC0000
FE0000
7FEFC0
7FFFC0
3FFFC0
1FFFE0
07FF80
007000
ENDCHAR
STARTCHAR 0208
ENCODING 520
SWIDTH 500 0
DWIDTH 25 0
BBX 27 41 2 1
BITMAP
000C0C00
003C1E00
007E3E00
003E1F00
001F1F00
000F8F80
000787C0
00070300
00000000
00000000
01FFFFE0
01FFFFC0
01FFFFC0
03FFFFC0
03FFFFC0
0007E000
000FE000
000FC000
000FC000
000FC000
001FC000
001F8000
001F8000
001F8000
003F8000
003F0000
003F0000
003F0000
003F0000
007E0000
007E0000
007E0000
007E0000
00FE0000
00FC0000
00FC0000
7FFFF000
7FFFF000
FFFFF000
FFFFF000
FFFFF000
ENDCHAR
STARTCHAR 0209
ENCODING 521
SWIDTH 500 0
DWIDTH 25 0
BBX 19 35 6 -1
BITMAP
060200
0E0F00
1F1F80
1F8F80
0F87C0
07C7C0
03C3E0
0181C0
010000
000000
7FF800
7FF800
FFF800
FFF800
FFF800
FFF000
03F000
03F000
07F000
07E000
07E000
07E000
0FE000
0FC000
0FC000
0FC000
0FC000
1FC000
0FC080
0FFF80
0FFF80
0FFF80
07FF80
03FF80
002000
ENDCHAR
STARTCHAR 020A
ENCODING 522
SWIDTH 500 0
DWIDTH 25 0
BBX 27 41 2 0
BITMAP
0000F800
0003FE00
0007FF00
000FFF00
001F9F80
001F0F80
001E0F80
003E0F80
00000000
00000000
01FFFFE0
01FFFFC0
01FFFFC0
03FFFFC0
03FFFFC0
0007E000
000FE000
000FC000
000FC000
000FC000
001FC000
001F8000
001F8000
001F8000
003F8000
003F0000
003F0000
003F0000
003F0000
007E0000
007E0000
007E0000
007E0000
00FE0000
00FC0000
00FC0000
7FFFF000
7FFFF000
FFFFF000
FFFFF000
FFFFF000
ENDCHAR
STARTCHAR 020B
ENCODING 523
SWIDTH 500 0
DWIDTH 25 0
BBX 18 35 6 -1
BITMAP
007800
01FE00
03FF00
07FF80
0FFF80
0F87C0
0F07C0
1F0780
000000
000000
7FF800
7FF800
FFF800
FFF800
FFF800
FFF000
03F000
03F000
07F000
07E000
07E000
07E000
0FE000
0FC000
0FC000
0FC000
0FC000
1FC000
0FC080
0FFF80
0FFF80
0FFF80
07FF80
03FF80
002000
ENDCHAR
STARTCHAR 020C
ENCODING 524
SWIDTH 500 0
DWIDTH 25 0
BBX 24 43 3 -1
BITMAP
001000
003018
007878
00F8FC
00FC7C
007C3E
003E1F
001E0F
000C0E
000000
000380
003FF0
00FFF8
01FFFC
03FFFE
07FFFE
07F07F
0FE07F
0FC03F
1FC03F
1F803F
3F803F
3F003F
3F003F
7F003F
7E007F
7E007E
7E007E
7E007E
7E00FE
FE00FC
FE00FC
FE01FC
FE01F8
FE03F8
7E07F0
7F0FF0
7FFFE0
3FFFC0
3FFF80
1FFF00
0FFC00
01E000
ENDCHAR
STARTCHAR 020D
ENCODING 525
SWIDTH 500 0
DWIDTH 25 0
BBX 23 35 3 -1
BITMAP
002030
00F070
01F1F8
00F8FC
00FC7C
007C3E
003E1E
00180C
000008
000000
003FC0
00FFE0
03FFF0
07FFF8
0FFFFC
1FE3FC
1FC1FC
3F80FC
3F00FC
7E00FC
7E00FC
7E00FC
7E00FC
FC00FC
FC01F8
FC01F8
FE03F8
FE07F0
7E0FF0
7FFFE0
7FFFC0
3FFF80
3FFF00
0FFC00
03C000
ENDCHAR
STARTCHAR 020E
ENCODING 526
SWIDTH 500 0
DWIDTH 25 0
BBX 24 42 3 -1
BITMAP
0001F0
0007FC
000FFE
001FFF
001FBF
003E1F
003E0F
003E1F
000000
000380
003FF0
00FFF8
01FFFC
03FFFE
07FFFE
07F07F
0FE07F
0FC03F
1FC03F
1F803F
3F803F
3F003F
3F003F
7F003F
7E007F
7E007E
7E007E
7E007E
7E00FE
FE00FC
FE00FC
FE01FC
FE01F8
FE03F8
7E07F0
7F0FF0
7FFFE0
3FFFC0
3FFF80
1FFF00
0FFC00
01E000
ENDCHAR
STARTCHAR 020F
ENCODING 527
SWIDTH 500 0
DWIDTH 25 0
BBX 22 35 3 -1
BITMAP
0001C0
000FF0
003FF8
003FFC
007FFC
007C3C
00F83C
00F83C
000000
000000
003FC0
00FFE0
03FFF0
07FFF8
0FFFFC
1FE3FC
1FC1FC
3F80FC
3F00FC
7E00FC
7E00FC
7E00FC
7E00FC
FC00FC
FC01F8
FC01F8
FE03F8
FE07F0
7E0FF0
7FFFE0
7FFFC0
3FFF80
3FFF00
0FFC00
03C000
ENDCHAR
STARTCHAR 0210
ENCODING 528
SWIDTH 500 0
DWIDTH 25 0
BBX 25 41 2 1
BITMAP
00181800
00783C00
00FC7C00
007C3E00
003E1F00
001F1F00
000F0F80
000E0600
00000000
00000000
01FFF000
01FFFC00
03FFFE00
03FFFF00
03FFFF00
03F07F00
03F03F80
07E03F80
07E03F80
07E03F80
07E03F00
0FC03F00
0FC07F00
0FC0FE00
0FFFFE00
1FFFFC00
1FFFF800
1FFFE000
1FFF8000
3FFFC000
3F0FC000
3F07E000
3F07E000
7F07E000
7E03F000
7E03F000
7E03F000
7E01F800
FC01F800
FC01F800
FC01F800
ENDCHAR
STARTCHAR 0211
ENCODING 529
SWIDTH 500 0
DWIDTH 25 0
BBX 23 34 4 0
BITMAP
004060
01E0E0
03E3F0
03F1F0
01F8F8
00F87C
007C3C
003018
000010
000000
003FF8
03FFFE
07FFFC
0FFFFC
0FFFF8
0FFFF8
0FC000
1FC000
1F8000
1F8000
1F8000
3F8000
3F0000
3F0000
3F0000
7F0000
7E0000
7E0000
7E0000
7E0000
FC0000
FC0000
FC0000
FC0000
ENDCHAR
STARTCHAR 0212
ENCODING 530
SWIDTH 500 0
DWIDTH 25 0
BBX 25 41 2 0
BITMAP
0000F800
0003FE00
0007FF00
000FFF00
001F9F80
001F0F80
001E0F80
003E0F80
00000000
00000000
01FFF000
01FFFC00
03FFFE00
03FFFF00
03FFFF00
03F07F00
03F03F80
07E03F80
07E03F80
07E03F80
07E03F00
0FC03F00
0FC07F00
0FC0FE00
0FFFFE00
1FFFFC00
1FFFF800
1FFFE000
1FFF8000
3FFFC000
3F0FC000
3F07E000
3F07E000
7F07E000
7E03F000
7E03F000
7E03F000
7E01F800
FC01F800
FC01F800
FC01F800
ENDCHAR
STARTCHAR 0213
ENCODING 531
SWIDTH 500 0
DWIDTH 25 0
BBX 23 34 4 0
BITMAP
0003C0
001FF0
003FF8
007FF8
00FFFC
00F87C
00F07C
00F07C
000000
000000
003FF8
03FFFE
07FFFC
0FFFFC
0FFFF8
0FFFF8
0FC000
1FC000
1F8000
1F8000
1F8000
3F8000
3F0000
3F0000
3F0000
7F0000
7E0000
7E0000
7E0000
7E0000
FC0000
FC0000
FC0000
FC0000
ENDCHAR
STARTCHAR 0214
ENCODING 532
SWIDTH 500 0
DWIDTH 25 0
BBX 26 42 3 0
BITMAP
00181800
00783C00
00FC7C00
007C3E00
003E3E00
001F1F00
000F0F80
000E0600
00000000
00000000
07F00FC0
07E01FC0
07E01F80
07E01F80
0FE01F80
0FC03F80
0FC03F00
0FC03F00
1FC03F00
1F807F00
1F807E00
1F807E00
1F807E00
3F00FE00
3F00FC00
3F00FC00
3F00FC00
7F00FC00
7E01F800
7E01F800
7E01F800
FE01F800
FE03F000
FE03F000
FE07F000
FE0FE000
7FFFE000
7FFFC000
3FFF8000
3FFF0000
0FFE0000
03E00000
ENDCHAR
STARTCHAR 0215
ENCODING 533
SWIDTH 500 0
DWIDTH 25 0
BBX 22 34 4 -1
BITMAP
004060
01E0E0
03E3F0
01F1F8
01F8F8
00F87C
007C3C
003018
000010
000000
1F80FC
1F80FC
1F80FC
1F81FC
3F81F8
3F01F8
3F01F8
3F03F8
7F03F0
7E03F0
7E03F0
7E07F0
FE07E0
FC07E0
FC07E0
FC0FE0
FC0FE0
FC0FC0
FE1FC0
FFFFE0
FFFFE0
7FFFE0
7FFFE0
3FE3F0
ENDCHAR
STARTCHAR 0216
ENCODING 534
SWIDTH 500 0
DWIDTH 25 0
BBX 26 42 3 -1
BITMAP
0001F000
0007FC00
000FFE00
001FFE00
003F3F00
003E1F00
003C1F00
007C1F00
00000000
00000000
07F00FC0
07E01FC0
07E01F80
07E01F80
0FE01F80
0FC03F80
0FC03F00
0FC03F00
1FC03F00
1F807F00
1F807E00
1F807E00
1F807E00
3F00FE00
3F00FC00
3F00FC00
3F00FC00
7F00FC00
7E01F800
7E01F800
7E01F800
FE01F800
FE03F000
FE03F000
FE07F000
FE0FE000
7FFFE000
7FFFC000
3FFF8000
3FFF0000
0FFE0000
03E00000
ENDCHAR
STARTCHAR 0217
ENCODING 535
SWIDTH 500 0
DWIDTH 25 0
BBX 22 34 4 -1
BITMAP
000380
001FE0
007FF0
007FF8
00FFF8
00F878
01F078
01F078
000000
000000
1F80FC
1F80FC
1F80FC
1F81FC
3F81F8
3F01F8
3F01F8
3F03F8
7F03F0
7E03F0
7E03F0
7E07F0
FE07E0
FC07E0
FC07E0
FC0FE0
FC0FE0
FC0FC0
FE1FC0
FFFFE0
FFFFE0
7FFFE0
7FFFE0
3FE3F0
ENDCHAR
STARTCHAR 0218
ENCODING 536
SWIDTH 500 0
DWIDTH 25 0
BBX 25 41 2 -9
BITMAP
0003C000
003FFE00
007FFF80
01FFFF80
01FFFF00
03FFFF00
07F00600
07E00000
07E00000
07E00000
07E00000
07F00000
07F80000
07FE0000
03FF8000
01FFC000
00FFF000
007FF000
001FF800
0007F800
0003FC00
0001FC00
0001FC00
0000FC00
0001FC00
2001F800
7803F800
7FFFF800
FFFFF000
FFFFE000
FFFFC000
3FFF0000
01F00000
00000000
03E00000
03E00000
07E00000
3FC00000
3F800000
7F000000
10000000
ENDCHAR
STARTCHAR 0219
ENCODING 537
SWIDTH 500 0
DWIDTH 25 0
BBX 22 33 3 -9
BITMAP
003FF0
01FFFC
03FFFC
07FFF8
07FFF8
0FE030
0FC000
0FC000
0FE000
0FF000
0FFE00
07FF80
03FFC0
00FFE0
003FE0
000FF0
0007F0
0007F0
7007E0
7FFFE0
FFFFE0
FFFFC0
FFFF80
3FFE00
01E000
000000
03E000
03E000
07C000
3FC000
7F8000
7F0000
100000
ENDCHAR
STARTCHAR 021A
ENCODING 538
SWIDTH 500 0
DWIDTH 25 0
BBX 26 40 4 -9
BITMAP
0FFFFFC0
1FFFFFC0
1FFFFFC0
1FFFFF80
1FFFFF80
001F8000
003F0000
003F0000
003F0000
003F0000
007E0000
007E0000
007E0000
007E0000
00FE0000
00FC0000
00FC0000
00FC0000
01FC0000
01F80000
01F80000
01F80000
03F80000
03F00000
03F00000
03F00000
07F00000
07E00000
07E00000
07E00000
07E00000
00000000
00000000
0F800000
0F800000
1F800000
FF000000
FF000000
FC000000
40000000
ENDCHAR
STARTCHAR 021B
ENCODING 539
SWIDTH 500 0
DWIDTH 25 0
BBX 21 39 6 -9
BITMAP
01F800
01F800
03F800
03F000
03F000
03F000
7FFFF8
FFFFF0
FFFFF0
FFFFF0
FFFFF0
FFFFE0
0FC000
0FC000
1FC000
1F8000
1F8000
1F8000
1F8000
3F0000
3F0000
3F0000
3F0000
3F0000
3F8180
3FFF80
3FFF80
1FFF80
1FFF80
07FF00
004000
000000
03E000
07C000
07C000
7FC000
7F8000
7F0000
100000
ENDCHAR
STARTCHAR 021C
ENCODING 540
SWIDTH 500 0
DWIDTH 25 0
BBX 28 40 -2 -8
BITMAP
00002000
001FFF00
007FFFC0
007FFFE0
007FFFE0
007FFFF0
00700FF0
000007F0
000003F0
000003F0
000003F0
000003F0
000007E0
00000FE0
00001FC0
0000FF80
003FFF00
003FFE00
003FF800
007FFC00
007FFE00
0003FF00
00007F80
00003F80
00001F80
00001F80
00001F80
00001F80
00001F80
00003F80
00003F80
00007F00
0000FF00
0003FE00
003FFC00
3FFFF800
7FFFF000
7FFFC000
7FFF0000
FFF80000
ENDCHAR
STARTCHAR 021D
ENCODING 541
SWIDTH 500 0
DWIDTH 25 0
BBX 24 32 0 -8
BITMAP
003FE0
01FFFC
01FFFE
01FFFF
01FFFF
01F1FF
00007F
00003F
00003F
00003F
00007E
0001FE
007FFC
007FF8
007FE0
00FFE0
00FFF8
00FFFC
0001FC
0000FC
0000FC
0000FC
0000FC
0001FC
0003F8
000FF8
01FFF0
7FFFE0
7FFFC0
FFFF00
FFFC00
FFC000
ENDCHAR
STARTCHAR 021E
ENCODING 542
SWIDTH 500 0
DWIDTH 25 0
BBX 28 41 1 1
BITMAP
00030180
0007C7C0
0007EFC0
0003FF80
0001FE00
0000FC00
00007800
00007000
00000000
00000000
00FC03F0
01FC03F0
01F803F0
01F807E0
01F807E0
03F807E0
03F007E0
03F00FE0
03F00FC0
07F00FC0
07E00FC0
07E01FC0
07FFFF80
0FFFFF80
0FFFFF80
0FFFFF80
0FFFFF00
0FC03F00
1F803F00
1F807F00
1F807E00
1F807E00
3F807E00
3F00FE00
3F00FC00
3F00FC00
7F00FC00
7E00FC00
7E01F800
7E01F800
FE01F800
ENDCHAR
STARTCHAR 021F
ENCODING 543
SWIDTH 500 0
DWIDTH 25 0
BBX 23 41 2 1
BITMAP
003830
007CF8
003FF8
001FE0
000FC0
000700
000200
000000
000000
000400
01FC00
01F800
01F800
01F800
01F800
03F000
03F000
03FFE0
03FFF8
07FFFC
07FFFC
07FFFE
07F1FE
0FE0FE
0FC0FE
0FC07E
0FC0FE
1FC0FC
1F80FC
1F80FC
1F80FC
3F81F8
3F01F8
3F01F8
3F01F8
3F03F0
7E03F0
7E03F0
7E03F0
7E07F0
FC07E0
ENDCHAR
STARTCHAR 0220
ENCODING 544
SWIDTH 500 0
DWIDTH 25 0
BBX 25 40 2 -8
BITMAP
0001C000
00FFF800
03FFFE00
03FFFE00
03FFFF00
03FFFF00
03F07F80
07E03F80
07E03F80
07E01F80
07E01F80
0FC03F80
0FC03F00
0FC03F00
0FC03F00
1F803F00
1F807E00
1F807E00
1F807E00
3F807E00
3F00FE00
3F00FC00
3F00FC00
7F00FC00
7E01FC00
7E01F800
7E01F800
FE01F800
FC03F800
FC03F000
FC03F000
FC03F000
0007F000
0007E000
0007E000
0007E000
000FE000
000FC000
000FC000
000FC000
ENDCHAR
STARTCHAR 0221
ENCODING 545
SWIDTH 500 0
DWIDTH 25 0
BBX 24 43 2 -8
BITMAP
000001
00003E
00003E
00007E
00007E
00007C
00007C
0000FC
0000FC
0000F8
0000F8
003FF8
00FFF8
03FFF8
07FFF0
0FFFF0
1FC3F0
1F83F0
3F03E0
3E03E0
7E07E0
7C07E0
7C07C0
FC07C0
FC0FC0
F80FC0
F80F80
F80F80
FC1F80
FC1FF8
7F7FFC
7FFFFE
7FFFFE
3FFE3E
1FFE1E
00FE1E
01FE1E
03FE3E
07FE7C
0FBFFC
0F1FF8
0E1FF0
040FE0
ENDCHAR
STARTCHAR 0222
ENCODING 546
SWIDTH 500 0
DWIDTH 25 0
BBX 26 32 2 -1
BITMAP
00FC0FC0
00FC0FC0
01F80FC0
01F80F80
01F81F80
03F01F80
03F01F80
03F01F80
03F03F00
03F03F00
03F07E00
03FDFE00
01FFFC00
00FFF800
03FFF000
0FFFFC00
1FFFFC00
3FC0FE00
3F007E00
7F007E00
7E007F00
FE007E00
FE007E00
FE007E00
FE00FE00
FF01FC00
7FFFFC00
7FFFF800
3FFFF000
1FFFE000
0FFF8000
00F00000
ENDCHAR
STARTCHAR 0223
ENCODING 547
SWIDTH 500 0
DWIDTH 25 0
BBX 26 36 3 -1
BITMAP
00FC0FC0
01F80FC0
01F81FC0
01F81FC0
03F01FC0
03F01F80
03F01F80
07E01F80
07E03F80
07E03F00
07E07F00
07E07F00
07F0FE00
03FFFC00
03FFF800
01FFE000
07FFF000
0FFFF800
1FF7FC00
3F81FC00
3F00FC00
7F00FC00
7E00FC00
FE00FC00
FC00FC00
FC00FC00
FC01FC00
FC03F800
FC03F800
FE0FF000
FFFFF000
7FFFE000
3FFFC000
3FFF0000
0FFC0000
01C00000
ENDCHAR
STARTCHAR 0224
ENCODING 548
SWIDTH 500 0
DWIDTH 25 0
BBX 26 39 2 -8
BITMAP
01FFFFC0
01FFFFC0
01FFFFC0
03FFFFC0
03FFFF80
00003F80
00007F00
0000FE00
0001FC00
0001F800
0003F800
0007F000
000FE000
001FC000
003F8000
007F0000
007E0000
00FC0000
01FC0000
03F80000
07F00000
07E00000
0FC00000
1FC00000
3F800000
7F000000
7FFFF800
FFFFF800
FFFFF000
FFFFF000
FFFFF000
0001F000
0003E000
0003E000
0007E000
00FFC000
00FFC000
00FF8000
01FE0000
ENDCHAR
STARTCHAR 0225
ENCODING 549
SWIDTH 500 0
DWIDTH 25 0
BBX 24 32 0 -8
BITMAP
03FFFF
03FFFF
03FFFF
07FFFF
07FFFE
07FFFE
0003FC
0007F8
000FE0
001FC0
003F80
007F00
00FE00
01FC00
03F800
07F000
0FE000
1FC000
1F8000
3FFFF0
7FFFF0
7FFFF0
7FFFE0
FFFFE0
0003E0
0003E0
0007C0
000FC0
00FFC0
01FF80
01FF00
01FE00
ENDCHAR
STARTCHAR 0226
ENCODING 550
SWIDTH 500 0
DWIDTH 25 0
BBX 24 41 0 0
BITMAP
000018
00007E
00007E
0000FE
0000FE
00007E
00007C
000000
000000
000000
0001FC
0001FC
0003FC
0003FE
0007FE
000FFE
000FBE
001FBE
001F3E
003F3E
003E3E
007E3E
007C3E
00FC3E
00F83E
01F83E
01F03E
03F03F
03E03F
07FFFF
07FFFF
0FFFFF
0FFFFF
1FFFFF
1F803F
3F003F
3F003F
7E003F
7E003F
FE003F
FC003F
ENDCHAR
STARTCHAR 0227
ENCODING 551
SWIDTH 500 0
DWIDTH 25 0
BBX 23 35 3 -1
BITMAP
0000C0
0003F0
0007F0
0007F0
0007F0
0007F0
0003C0
000000
000000
000000
001FE0
00FFFE
01FFFE
07FFFE
0FFFFE
1FF0FC
1FC0FC
3F80FC
3F01FC
7F01F8
7E01F8
7E01F8
FE03F8
FC03F0
FC03F0
FC03F0
FC03F0
FE07F0
FE0FF0
7FFFF0
7FFFF0
3FFFF0
3FFDF0
0FF1F8
018000
ENDCHAR
STARTCHAR 0228
ENCODING 552
SWIDTH 500 0
DWIDTH 25 0
BBX 25 39 3 -9
BITMAP
01FFFF80
01FFFF80
03FFFF80
03FFFF80
03FFFF00
03F00000
07F00000
07E00000
07E00000
07E00000
07E00000
0FC00000
0FFFF800
0FFFF800
0FFFF000
1FFFF000
1FFFF000
1F800000
1F800000
3F800000
3F000000
3F000000
3F000000
7F000000
7E000000
7E000000
7FFFF000
FFFFF000
FFFFF000
FFFFE000
FFFFE000
00F00000
01F00000
01F80000
00780000
00780000
0FF80000
1FF00000
1FE00000
ENDCHAR
STARTCHAR 0229
ENCODING 553
SWIDTH 500 0
DWIDTH 25 0
BBX 22 33 4 -9
BITMAP
003FC0
01FFF0
03FFF8
07FFF8
0FFFFC
1FC1FC
3F80FC
7F00FC
7E00FC
7C01F8
FC07F8
FFFFF0
FFFFE0
FFFFC0
FFFE00
FFC000
FC0000
FC0000
FE0000
7FEFC0
7FFFC0
3FFFC0
1FFFE0
07FF80
01F000
03E000
01F000
00F800
00F800
1FF800
1FF000
3FE000
020000
ENDCHAR
STARTCHAR 022A
ENCODING 554
SWIDTH 500 0
DWIDTH 25 0
BBX 24 43 3 -1
BITMAP
000FFF
000FFF
000FFF
000FFE
000000
000C0C
003E3E
003E3E
003E3E
003E3E
001C1C
000000
000380
003FF0
00FFF8
01FFFC
03FFFE
07FFFE
07F07F
0FE03F
1FC03F
1F803F
1F803F
3F003F
3F003F
3F007F
7E007E
7E007E
7E007E
7E007E
7E00FE
FE00FC
FE01FC
FE01F8
FE03F8
FE07F0
7E0FF0
7FFFE0
7FFFC0
3FFF80
1FFF00
0FFC00
01E000
ENDCHAR
STARTCHAR 022B
ENCODING 555
SWIDTH 500 0
DWIDTH 25 0
BBX 24 38 3 -1
BITMAP
000FFF
000FFF
000FFE
001FFE
000000
001C1C
003E3E
007E3E
007E3E
003C3E
003818
000000
000000
003FC0
00FFE0
03FFF0
07FFF8
0FFFFC
1FE3FC
1FC1FC
3F80FC
3F00FC
7E00FC
7E00FC
7E00FC
7E00FC
FC00FC
FC01F8
FC01F8
FE03F8
FE07F0
7E0FF0
7FFFE0
7FFFC0
3FFF80
3FFF00
0FFC00
03C000
ENDCHAR
STARTCHAR 022C
ENCODING 556
SWIDTH 500 0
DWIDTH 25 0
BBX 24 43 3 -1
BITMAP
000FFF
000FFF
000FFF
001FFE
000000
000208
001F9E
003FFE
003FFC
0079F8
001060
000000
000380
003FF0
00FFF8
01FFFC
03FFFE
07FFFE
07F07F
0FE03F
1FC03F
1F803F
1F803F
3F003F
3F003F
3F007F
7E007E
7E007E
7E007E
7E007E
7E00FE
FE00FC
FE01FC
FE01F8
FE03F8
FE07F0
7E0FF0
7FFFE0
7FFFC0
3FFF80
1FFF00
0FFC00
01E000
ENDCHAR
STARTCHAR 022D
ENCODING 557
SWIDTH 500 0
DWIDTH 25 0
BBX 24 38 3 -1
BITMAP
000FFF
001FFF
001FFE
001FFE
000000
000608
001F9E
003FFC
007FFC
0079F8
001040
000000
000000
003FC0
00FFE0
03FFF0
07FFF8
0FFFFC
1FE3FC
1FC1FC
3F80FC
3F00FC
7E00FC
7E00FC
7E00FC
7E00FC
FC00FC
FC01F8
FC01F8
FE03F8
FE07F0
7E0FF0
7FFFE0
7FFFC0
3FFF80
3FFF00
0FFC00
03C000
ENDCHAR
STARTCHAR 022E
ENCODING 558
SWIDTH 500 0
DWIDTH 25 0
BBX 24 42 3 -1
BITMAP
000070
0001F8
0001F8
0001FC
0003F8
0001F8
0001F0
000000
000000
000380
003FF0
00FFF8
01FFFC
03FFFE
07FFFE
07F07F
0FE07F
0FC03F
1FC03F
1F803F
3F803F
3F003F
3F003F
7F003F
7E007F
7E007E
7E007E
7E007E
7E00FE
FE00FC
FE00FC
FE01FC
FE01F8
FE03F8
7E07F0
7F0FF0
7FFFE0
3FFFC0
3FFF80
1FFF00
0FFC00
01E000
ENDCHAR
STARTCHAR 022F
ENCODING 559
SWIDTH 500 0
DWIDTH 25 0
BBX 22 35 3 -1
BITMAP
0001C0
0003E0
0007F0
0007F0
0007F0
0007E0
0003C0
000000
000000
000000
003FC0
00FFE0
03FFF0
07FFF8
0FFFFC
1FE3FC
1FC1FC
3F80FC
3F00FC
7E00FC
7E00FC
7E00FC
7E00FC
FC00FC
FC01F8
FC01F8
FE03F8
FE07F0
7E0FF0
7FFFE0
7FFFC0
3FFF80
3FFF00
0FFC00
03C000
ENDCHAR
STARTCHAR 0230
ENCODING 560
SWIDTH 500 0
DWIDTH 25 0
BBX 25 43 3 -1
BITMAP
0007FF80
0007FF00
000FFF00
000FFF00
00000000
0000C000
0001E000
0003F000
0003F000
0003E000
0001C000
00000000
00038000
003FF000
00FFF800
01FFFC00
03FFFE00
07FFFE00
07F07F00
0FE03F00
1FC03F00
1F803F00
1F803F00
3F003F00
3F003F00
3F007F00
7E007E00
7E007E00
7E007E00
7E007E00
7E00FE00
FE00FC00
FE01FC00
FE01F800
FE03F800
FE07F000
7E0FF000
7FFFE000
7FFFC000
3FFF8000
1FFF0000
0FFC0000
01E00000
ENDCHAR
STARTCHAR 0231
ENCODING 561
SWIDTH 500 0
DWIDTH 25 0
BBX 23 38 3 -1
BITMAP
000FFE
000FFE
001FFE
001FFE
000000
000180
0003C0
0007E0
0007C0
0007C0
000380
000000
000000
003FC0
00FFE0
03FFF0
07FFF8
0FFFFC
1FE3FC
1FC1FC
3F80FC
3F00FC
7E00FC
7E00FC
7E00FC
7E00FC
FC00FC
FC01F8
FC01F8
FE03F8
FE07F0
7E0FF0
7FFFE0
7FFFC0
3FFF80
3FFF00
0FFC00
03C000
ENDCHAR
STARTCHAR 0232
ENCODING 562
SWIDTH 500 0
DWIDTH 25 0
BBX 24 39 7 0
BITMAP
01FFF8
01FFF8
03FFF8
03FFF8
000000
000000
000000
000000
FC007F
FC00FE
FC00FC
7E01FC
7E01F8
7E03F8
7E07F0
7E07E0
3E0FE0
3F0FC0
3F1F80
3F3F00
3F3F00
1F7E00
1FFC00
1FFC00
1FF800
0FF000
0FE000
0FC000
0FC000
0FC000
0FC000
1FC000
1F8000
1F8000
1F8000
3F8000
3F0000
3F0000
3F0000
ENDCHAR
STARTCHAR 0233
ENCODING 563
SWIDTH 500 0
DWIDTH 25 0
BBX 29 40 -2 -8
BITMAP
0003FFF0
0007FFF0
0007FFE0
0007FFE0
00000000
00000000
00000000
00000000
00FC01F8
00FC01F8
00FC03F8
00FC03F0
00FC03F0
00FC07F0
00FC07E0
00FC0FE0
00FE0FC0
00FE0FC0
007E1F80
007E1F80
007E3F00
007E3F00
007E7E00
007E7E00
003FFC00
003FFC00
003FF800
003FF000
003FF000
001FE000
001FC000
001FC000
003F8000
007F0000
00FE0000
7FFC0000
7FF80000
7FF00000
FFE00000
FF800000
ENDCHAR
STARTCHAR 0234
ENCODING 564
SWIDTH 500 0
DWIDTH 25 0
BBX 22 43 1 -8
BITMAP
01FFF0
01FFF0
01FFF0
01FFF0
01FFE0
0007E0
0007E0
000FE0
000FC0
000FC0
000FC0
001FC0
001F80
001F80
001F80
003F80
003F00
003F00
003F00
003F00
007E00
007E00
007E00
007E00
00FE00
00FC00
00FC00
00FC00
01FDC0
01FFF0
01FFF8
01FFFC
03FFFC
03F8FC
07F07C
0FF07C
1FF07C
3FF0F8
7FF1F8
FDFFF0
F1FFF0
60FFC0
007F80
ENDCHAR
STARTCHAR 0235
ENCODING 565
SWIDTH 500 0
DWIDTH 25 0
BBX 24 32 1 -8
BITMAP
007F80
07FFC0
07FFE0
07FFF0
07FFF0
0FC3F0
0FC3F0
0FC1F0
0F81F0
1F83F0
1F83F0
1F83E0
1F03E0
1F07E0
3F07E0
3F07C0
3E07C0
3E07C0
7E0FFC
7E0FFE
7C0FFF
7C0FFF
FC1F1F
FC3F0F
007F0F
00FF0F
01FF1F
03FF1E
0FDFFE
078FFC
0307F8
0203F0
ENDCHAR
STARTCHAR 0236
ENCODING 566
SWIDTH 500 0
DWIDTH 25 0
BBX 27 38 0 -8
BITMAP
0007E000
0007E000
000FE000
000FC000
000FC000
000FC000
03FFFFE0
03FFFFE0
03FFFFE0
07FFFFC0
07FFFFC0
07FFFFC0
003F0000
003F0000
003F0000
007E0000
007E0000
007E0000
007E0000
00FC0000
00FC0000
00FC0000
00FC0000
01FDC000
01FFF000
01FFF800
01FFF800
01FFFC00
03F8FC00
07F07C00
0FF07C00
1FF07C00
3FF0F800
7FF1F800
FDFFF000
F1FFF000
60FFC000
003F8000
ENDCHAR
STARTCHAR 0237
ENCODING 567
SWIDTH 500 0
DWIDTH 25 0
BBX 24 33 0 -9
BITMAP
00FFFF
00FFFE
00FFFE
01FFFE
01FFFE
01FFFE
0000FC
0000FC
0000FC
0001FC
0001F8
0001F8
0001F8
0003F8
0003F0
0003F0
0003F0
0007F0
0007E0
0007E0
0007E0
000FE0
000FC0
000FC0
000FC0
001FC0
703F80
7FFF80
7FFF00
FFFE00
FFFC00
3FF800
018000
ENDCHAR
STARTCHAR 0238
ENCODING 568
SWIDTH 500 0
DWIDTH 25 0
BBX 24 36 2 -1
BITMAP
000010
0001F0
0001F0
0001E0
0003E0
0003E0
0003E0
0003C0
0007C0
0007C0
0007C0
00F7FC
03FFFE
07FFFF
0FFFFF
0FFFFF
1F1F1F
1F1F1F
3E1F0F
3E1F1F
7C3E1F
7C3E1F
7C3E1F
783E1F
F83C1F
F87C3E
F87C3E
F87C3E
F8787C
F8F8FC
FCF9F8
FFFFF0
7FFFF0
7FFFE0
3FFFC0
040600
ENDCHAR
STARTCHAR 0239
ENCODING 569
SWIDTH 500 0
DWIDTH 25 0
BBX 24 32 2 -8
BITMAP
00F8F8
03FFFE
07FFFE
0FFFFF
0FFFFF
1F9F1F
1F1F1F
3E1F0F
3E1F1F
7C3E1F
7C3E1F
7C3E1F
783E1F
F83C1F
F87C3E
F87C3E
F87C3E
F8787C
F8F87C
F8F8F8
FFFFF8
7FFFF0
7FFFE0
3FFFC0
09F200
01F000
01E000
03E000
03E000
03E000
03C000
07C000
ENDCHAR
STARTCHAR 023A
ENCODING 570
SWIDTH 500 0
DWIDTH 25 0
BBX 29 39 -1 -4
BITMAP
00000078
00000070
000000F0
0000FEE0
0001FFE0
0001FFC0
0003FFC0
0007FF80
0007FF80
000FFF00
000FBF00
001F9F00
001F1F00
003F3F00
003E3F00
007E7F00
00FC7F00
00FCFF00
01F8FF00
01F9FF00
03F1DF00
03F3DF80
07FFFF80
07FFFF80
0FFFFF80
0FFFFF80
1FFFFF80
1F9E1F80
3F9E1F80
3F3C1F80
3F3C1F80
7E781F80
7E781F80
FCF01F80
00F00000
01E00000
01E00000
01C00000
00400000
ENDCHAR
STARTCHAR 023B
ENCODING 571
SWIDTH 500 0
DWIDTH 25 0
BBX 25 39 4 -5
BITMAP
00000600
00000F80
00000F80
0003FF00
001FFF00
007FFF00
01FFFF80
03FFFF80
07FFFF00
0FF8FF00
0FE0F200
1FC1F000
1F83E000
3F83E000
3F07C000
7F07C000
7E0F8000
7E0F8000
7E1F0000
FE1F0000
FC3E0000
FC3E0000
FC7C0000
FC7C0000
FCF80000
FCF80000
FDF00000
FFE00000
FFE00000
7FC0E000
7FFFF000
3FFFF000
3FFFF000
1FFFE000
1FFF8000
3E780000
3E000000
7C000000
1C000000
ENDCHAR
STARTCHAR 023C
ENCODING 572
SWIDTH 500 0
DWIDTH 25 0
BBX 22 31 4 -3
BITMAP
00003C
000038
000078
001FF0
00FFFC
03FFFC
07FFFC
0FFFF8
1FFBF8
3FC380
3F8780
7F0700
7E0F00
FE1E00
FC1E00
FC3C00
FC3C00
FC7800
FC7000
FCF000
FEE000
FFE040
7FFFC0
7FFFE0
3FFFE0
1FFFE0
07FFC0
0F7800
0E0000
1E0000
040000
ENDCHAR
STARTCHAR 023D
ENCODING 573
SWIDTH 500 0
DWIDTH 25 0
BBX 19 31 4 0
BITMAP
01F800
01F800
01F800
03F000
03F000
03F000
03F000
07F000
07E000
07E000
07E000
0FE000
7FFF00
7FFF00
FFFF00
FFFF00
FFFE00
1F8000
1F8000
3F8000
3F0000
3F0000
3F0000
3F0000
7E0000
7E0000
7FFFE0
7FFFC0
FFFFC0
FFFFC0
FFFFC0
ENDCHAR
STARTCHAR 023E
ENCODING 574
SWIDTH 500 0
DWIDTH 25 0
BBX 32 35 0 -1
BITMAP
00000006
0000000F
01FFFFFF
03FFFFFE
03FFFFFC
03FFFFF8
03FFFFF0
0003F3E0
0007F7C0
0007E780
0007EF00
0007FF00
000FFE00
000FFC00
000FF800
000FF000
001FE000
001FC000
001F8000
001F8000
003F8000
003F0000
007F0000
00FF0000
01FF0000
03FE0000
07FE0000
0FFE0000
1F7E0000
3EFE0000
7CFC0000
78FC0000
F8FC0000
70000000
20000000
ENDCHAR
STARTCHAR 023F
ENCODING 575
SWIDTH 500 0
DWIDTH 25 0
BBX 22 32 3 -8
BITMAP
003FF0
01FFFC
03FFFC
07FFF8
07FFF8
0FE030
0FC000
0FC000
0FE000
0FF000
0FFE00
07FF80
03FFC0
00FFE0
003FE0
000FF0
0007F0
0007F0
7007E0
7FFFE0
FFFFE0
FFFFC0
FFFF80
7FFC00
3F0000
1F0000
1FC000
0FFF00
07FF00
07FF00
03FE00
00FE00
ENDCHAR
STARTCHAR 0240
ENCODING 576
SWIDTH 500 0
DWIDTH 25 0
BBX 24 32 3 -8
BITMAP
07FFFF
07FFFE
07FFFE
07FFFE
0FFFFE
0FFFFC
0007F8
000FF0
001FE0
003FC0
007F80
00FF00
01FE00
03F800
07F800
0FF000
0FE000
1FC000
3F8000
7F0000
FE0000
FF8000
FFC000
FFE000
0FF000
03F800
01FC00
00FFE0
00FFE0
007FE0
003FC0
001FC0
ENDCHAR
STARTCHAR 0241
ENCODING 577
SWIDTH 500 0
DWIDTH 25 0
BBX 21 32 6 0
BITMAP
007C00
07FFC0
1FFFE0
3FFFF0
1FFFF0
1FFFF8
1C07F8
0003F8
0001F8
0003F8
0003F0
0007F0
000FE0
001FE0
007FC0
01FF00
03FE00
07FC00
0FF000
1FE000
1FC000
3F8000
3F0000
3F0000
3F0000
7F0000
7E0000
7E0000
7E0000
7E0000
FC0000
FC0000
ENDCHAR
STARTCHAR 0242
ENCODING 578
SWIDTH 500 0
DWIDTH 25 0
BBX 18 24 7 0
BITMAP
03FC00
3FFF00
3FFF80
3FFF80
3FFFC0
3C1FC0
000FC0
000FC0
000FC0
001F80
003F80
00FF00
01FE00
07FC00
0FF000
1FC000
3F8000
3F0000
3F0000
7E0000
7E0000
7E0000
7E0000
FC0000
ENDCHAR
STARTCHAR 0243
ENCODING 579
SWIDTH 500 0
DWIDTH 25 0
BBX 25 31 2 0
BITMAP
007FF800
00FFFC00
00FFFE00
01FFFF00
01FFFF00
01F83F80
01F81F80
03F01F80
03F01F80
03F01F00
03F03F00
07E07E00
07FFFE00
07FFF800
07FFF000
0FFFF800
0FFFFC00
0FC3FC00
0FC0FE00
7FF87E00
FFF07E00
FFF07E00
FFF07E00
3F00FE00
3F00FE00
3F03FC00
3FFFF800
3FFFF800
7FFFE000
7FFFC000
7FFE0000
ENDCHAR
STARTCHAR 0244
ENCODING 580
SWIDTH 500 0
DWIDTH 25 0
BBX 26 32 2 -1
BITMAP
01F80FC0
01F80FC0
03F80FC0
03F01FC0
03F01F80
03F01F80
07F01F80
07E03F80
07E03F00
07E03F00
0FE03F00
7FFFFFC0
7FFFFFC0
7FFFFFC0
7FFFFFC0
FFFFFF80
1F80FC00
1F80FC00
1F80FC00
3F00FC00
3F01F800
3F01F800
3F01F800
3F03F800
3F03F000
3F87F000
3FFFE000
3FFFE000
1FFFC000
0FFF8000
07FF0000
00F00000
ENDCHAR
STARTCHAR 0245
ENCODING 581
SWIDTH 500 0
DWIDTH 25 0
BBX 24 31 0 0
BITMAP
0001FC
0001FC
0003FC
0007FC
0007FE
000FFE
000FFE
001FFE
001F7E
003F7E
003E3E
007E3E
007C3E
00FC3E
01F83E
01F83E
03F03E
03F03F
07E03F
07E03F
07E03F
0FC03F
0FC03F
1F803F
1F803F
3F003F
3F003F
7F003F
7E003F
FE007F
FC007F
ENDCHAR
STARTCHAR 0246
ENCODING 582
SWIDTH 500 0
DWIDTH 25 0
BBX 29 39 2 -5
BITMAP
00000060
00000078
000000F8
01FFFFF0
01FFFFE0
01FFFFE0
01FFFFC0
03FFFF80
03F00F80
03F00F00
03F01F00
07F01E00
07E03C00
07E07C00
07E07800
0FFFFE00
0FFFFE00
0FFFFE00
0FFFFC00
1FFFFC00
1F878000
1F8F8000
1F8F0000
3F9F0000
3F1E0000
3F3C0000
3F7C0000
3F780000
7EF00000
7FFFF800
7FFFF800
7FFFF800
FFFFF000
FFFFF000
0F800000
0F000000
1E000000
1E000000
0C000000
ENDCHAR
STARTCHAR 0247
ENCODING 583
SWIDTH 500 0
DWIDTH 25 0
BBX 22 31 4 -4
BITMAP
0000E0
0001E0
0001C0
003FC0
00FFF0
03FFF8
07FFF8
0FFFFC
1FCF7C
3F8E7C
3F1E7C
7E1E7C
7C1CFC
FC3FF8
FFFFF0
FFFFE0
FFFF80
FFF800
F8F000
F8E000
FDE000
FDC040
7FC7C0
7FFFC0
3FFFC0
1FFFC0
0FFF80
0FE800
0F0000
1E0000
060000
ENDCHAR
STARTCHAR 0248
ENCODING 584
SWIDTH 500 0
DWIDTH 25 0
BBX 26 32 2 -1
BITMAP
003FFF80
007FFF80
007FFF00
007FFF00
007FFF00
00003F00
00007E00
00007E00
00007E00
00007E00
0000FE00
0000FC00
007FFFC0
007FFF80
007FFF80
007FFF80
007FFF80
0001F800
0003F800
0003F000
0003F000
0003F000
0007F000
0007E000
100FE000
381FE000
7FFFC000
FFFF8000
FFFF8000
7FFF0000
1FFC0000
01C00000
ENDCHAR
STARTCHAR 0249
ENCODING 585
SWIDTH 500 0
DWIDTH 25 0
BBX 24 43 0 -9
BITMAP
00003E
00007F
0000FF
0000FF
0000FF
0000FE
00007E
000038
000000
000000
00FFFF
00FFFE
00FFFE
01FFFE
01FFFE
01FFFE
0000FC
0000FC
0000FC
0001FC
03FFFF
07FFFF
07FFFF
07FFFF
0003F0
0003F0
0003F0
0007F0
0007E0
0007E0
0007E0
000FE0
000FC0
000FC0
000FC0
001FC0
703F80
7FFF80
7FFF00
FFFE00
FFFC00
3FF800
018000
ENDCHAR
STARTCHAR 024A
ENCODING 586
SWIDTH 500 0
DWIDTH 25 0
BBX 22 40 4 -8
BITMAP
000700
007FE0
00FFF0
03FFF8
07FFF8
07FFFC
0FE1FC
1FC0FC
1F80FC
3F80FC
3F00FC
3F00FC
7E00FC
7E00FC
7E00FC
FC00F8
FC01F8
FC01F8
FC01F8
FC01F8
FC03F0
FC03F0
FC03F0
FC07F0
FC0FE0
FC0FE0
FC1FE0
FFFFE0
FFFFC0
7FFFC0
3FFFC0
1FEFC0
070FC0
000FC0
000FC0
000FF0
000FF0
000FF0
000FF0
0007F0
ENDCHAR
STARTCHAR 024B
ENCODING 587
SWIDTH 500 0
DWIDTH 25 0
BBX 23 32 3 -8
BITMAP
001FE0
007FFE
01FFFE
03FFFE
07FFFC
0FF0FC
1FC0FC
3F81FC
3F01F8
7F01F8
7E01F8
7E01F8
7E03F0
7E03F0
7E03F0
FE03F0
7E07F0
7E07E0
7E0FE0
7FFFE0
7FFFE0
3FFFC0
1FFFC0
0FEFC0
001FC0
001F80
001FC0
001FF8
001FF8
001FF0
000FF0
0007F0
ENDCHAR
STARTCHAR 024C
ENCODING 588
SWIDTH 500 0
DWIDTH 25 0
BBX 24 31 3 0
BITMAP
00FFE0
01FFF8
01FFFC
01FFFE
01FFFE
03F07E
03F07F
03F03F
03F03F
07E03F
07E07E
07E07E
07E0FE
0FC1FC
7FFFFC
7FFFF8
FFFFF0
FFFFC0
FFFF00
FFFF80
1F9F80
1F0FC0
3F0FC0
3F07E0
3F07E0
3E07E0
7E03F0
7E03F0
7E03F0
7E01F0
FC01F8
ENDCHAR
STARTCHAR 024D
ENCODING 589
SWIDTH 500 0
DWIDTH 25 0
BBX 24 24 3 0
BITMAP
001FFC
00FFFF
03FFFE
03FFFE
03FFFC
07FFFC
07F000
07E000
07E000
0FE000
0FC000
7FFFC0
7FFFC0
FFFF80
FFFF80
1F8000
1F8000
3F8000
3F0000
3F0000
3F0000
7F0000
7E0000
7E0000
ENDCHAR
STARTCHAR 024E
ENCODING 590
SWIDTH 500 0
DWIDTH 25 0
BBX 25 31 5 0
BITMAP
3F001F80
1F003F80
1F003F00
1F007F00
1F807E00
7FFFFF80
FFFFFF80
FFFFFF00
FFFFFF00
FFFFFF00
0FC7E000
0FC7C000
0FCFC000
07DF8000
07DF0000
07FF0000
07FE0000
03FC0000
03F80000
03F00000
03F00000
03F00000
03F00000
07F00000
07E00000
07E00000
07E00000
0FE00000
0FC00000
0FC00000
0FC00000
ENDCHAR
STARTCHAR 024F
ENCODING 591
SWIDTH 500 0
DWIDTH 25 0
BBX 29 32 -2 -8
BITMAP
00FC01F8
00FC03F8
00FC03F0
00FC03F0
00FC07F0
00FC07E0
00FC07E0
00FE0FC0
03FFFFF8
07FFFFF8
07FFFFF8
07FFFFF8
007E3F00
007E3F00
007E7E00
007E7E00
003EFC00
003FFC00
003FF800
003FF000
003FF000
001FE000
001FC000
001FC000
003F8000
007F0000
00FE0000
7FFC0000
7FF80000
7FF00000
FFE00000
FF800000
ENDCHAR
STARTCHAR 0292
ENCODING 658
SWIDTH 500 0
DWIDTH 25 0
BBX 26 32 0 -8
BITMAP
01FFFFC0
01FFFFC0
01FFFF80
01FFFF80
03FFFF80
03FFFF00
00007E00
0000FC00
0001F800
0003F000
000FE000
001FC000
003F8000
007E0000
007FC000
007FE000
00FFF000
000FF800
0003F800
0001FC00
0001FC00
0001FC00
0001FC00
0001F800
0003F800
0003F800
380FF000
7FFFF000
7FFFE000
7FFFC000
FFFF0000
1FFC0000
ENDCHAR
STARTCHAR 02BC
ENCODING 700
SWIDTH 500 0
DWIDTH 25 0
BBX 9 10 13 25
BITMAP
1F80
1F00
1F00
3F00
3E00
3E00
7C00
7C00
F800
7000
ENDCHAR
STARTCHAR 02C6
ENCODING 710
SWIDTH 500 0
DWIDTH 25 0
BBX 13 9 12 25
BITMAP
0100
0300
0780
0FC0
3FE0
7FF0
FDF0
F8F8
6070
ENDCHAR
STARTCHAR 02C7
ENCODING 711
SWIDTH 500 0
DWIDTH 25 0
BBX 12 8 13 26
BITMAP
6070
F0F0
FBF0
7FE0
3FC0
3F80
1E00
0C00
ENDCHAR
STARTCHAR 02C9
ENCODING 713
SWIDTH 500 0
DWIDTH 25 0
BBX 15 4 11 28
BITMAP
7FFE
FFFE
FFFC
FFFC
ENDCHAR
STARTCHAR 02D8
ENCODING 728
SWIDTH 500 0
DWIDTH 25 0
BBX 14 7 12 27
BITMAP
F83C
F87C
F8FC
FFF8
7FF8
3FF0
1FC0
ENDCHAR
STARTCHAR 02D9
ENCODING 729
SWIDTH 500 0
DWIDTH 25 0
BBX 7 7 15 27
BITMAP
38
7C
FE
FE
FE
FC
78
ENDCHAR
STARTCHAR 02DA
ENCODING 730
SWIDTH 500 0
DWIDTH 25 0
BBX 11 10 13 26
BITMAP
1F80
3FC0
7FE0
71E0
F0E0
70E0
79E0
7FC0
3FC0
0F00
ENDCHAR
STARTCHAR 02DB
ENCODING 731
SWIDTH 500 0
DWIDTH 25 0
BBX 11 10 5 -9
BITMAP
03E0
0FC0
3F00
7E00
7C00
FC00
FF80
FF80
7F80
0800
ENDCHAR
STARTCHAR 02DC
ENCODING 732
SWIDTH 500 0
DWIDTH 25 0
BBX 16 7 10 27
BITMAP
0004
1F8E
3FFF
7FFF
FFFE
FBFC
30F8
ENDCHAR
STARTCHAR 02DD
ENCODING 733
SWIDTH 500 0
DWIDTH 25 0
BBX 20 8 9 26
BITMAP
060180
0F03C0
1F87E0
3FCFF0
7F1FC0
FE3F80
F83E00
601800
ENDCHAR
STARTCHAR 0311
ENCODING 785
SWIDTH 500 0
DWIDTH 25 0
BBX 14 8 11 26
BITMAP
0380
1FF0
3FF8
7FF8
7FFC
F87C
F87C
F07C
ENDCHAR
STARTCHAR 0384
ENCODING 900
SWIDTH 500 0
DWIDTH 25 0
BBX 10 10 14 26
BITMAP
0600
0700
0FC0
1F80
3F00
7E00
7C00
F800
F800
7000
ENDCHAR
STARTCHAR 0385
ENCODING 901
SWIDTH 500 0
DWIDTH 25 0
BBX 21 10 8 26
BITMAP
001000
003800
103E00
7C7DF0
FC79F8
FCFBF8
FCF3F8
FDE1F0
79C0E0
00C000
ENDCHAR
STARTCHAR 0386
ENCODING 902
SWIDTH 500 0
DWIDTH 25 0
BBX 24 33 0 0
BITMAP
008000
01F000
01F9FC
03F1FC
03F3FC
03E3FE
07E7FE
07CFFE
0F8FBE
0F9FBE
031F3E
003F3E
003E3E
007E3E
007C3E
00FC3E
00F83E
01F83E
01F03E
03F03F
03E03F
07FFFF
07FFFF
0FFFFF
0FFFFF
1FFFFF
1F803F
3F003F
3F003F
7E003F
7E003F
FE003F
FC003F
ENDCHAR
STARTCHAR 0388
ENCODING 904
SWIDTH 500 0
DWIDTH 25 0
BBX 29 33 -1 0
BITMAP
08000000
1E000000
1F9FFFF8
3F1FFFF8
3F3FFFF8
7E3FFFF8
7C3FFFF0
7C3F0000
F87F0000
F87E0000
307E0000
007E0000
007E0000
00FC0000
00FFFF80
00FFFF80
00FFFF00
01FFFF00
01FFFF00
01F80000
01F80000
03F80000
03F00000
03F00000
03F00000
07F00000
07E00000
07E00000
07FFFF00
0FFFFF00
0FFFFF00
0FFFFE00
0FFFFE00
ENDCHAR
STARTCHAR 0389
ENCODING 905
SWIDTH 500 0
DWIDTH 25 0
BBX 32 33 -3 0
BITMAP
0C000000
0F000000
1F8FC03F
1F9FC03F
1F1F803F
3F1F807E
3E1F807E
7C3F807E
7C3F007E
F83F00FE
183F00FC
007F00FC
007E00FC
007E01FC
007FFFF8
00FFFFF8
00FFFFF8
00FFFFF8
00FFFFF0
00FC03F0
01F803F0
01F807F0
01F807E0
01F807E0
03F807E0
03F00FE0
03F00FC0
03F00FC0
07F00FC0
07E00FC0
07E01F80
07E01F80
0FE01F80
ENDCHAR
STARTCHAR 038A
ENCODING 906
SWIDTH 500 0
DWIDTH 25 0
BBX 31 33 -2 0
BITMAP
08000000
1F000000
1F9FFFFE
3F1FFFFC
3F1FFFFC
3E3FFFFC
7E3FFFFC
7C007E00
F800FE00
F800FC00
3000FC00
0000FC00
0001FC00
0001F800
0001F800
0001F800
0003F800
0003F000
0003F000
0003F000
0003F000
0007E000
0007E000
0007E000
0007E000
000FE000
000FC000
000FC000
07FFFF00
07FFFF00
0FFFFF00
0FFFFF00
0FFFFF00
ENDCHAR
STARTCHAR 038C
ENCODING 908
SWIDTH 500 0
DWIDTH 25 0
BBX 27 34 0 -1
BITMAP
08000000
1E007000
1F87FE00
3F1FFF00
3F3FFF80
7E7FFFC0
7CFFFFC0
7CFE0FE0
F9FC0FE0
F9F807E0
33F807E0
03F007E0
07F007E0
07E007E0
07E007E0
0FE007E0
0FC00FE0
0FC00FC0
0FC00FC0
0FC00FC0
0FC01FC0
1FC01F80
1FC01F80
1FC03F80
1FC03F00
1FC07F00
0FC0FE00
0FE1FE00
0FFFFC00
07FFF800
07FFF000
03FFE000
01FF8000
003C0000
ENDCHAR
STARTCHAR 038E
ENCODING 910
SWIDTH 500 0
DWIDTH 25 0
BBX 35 33 -4 0
BITMAP
0800000000
0F00000000
1F9F800FE0
1F9F801FC0
3F1F801F80
3F0FC03F80
3E0FC03F00
7C0FC07F00
7C0FC0FE00
F80FC0FC00
1807C1FC00
0007E1F800
0007E3F000
0007E7E000
0007E7E000
0003EFC000
0003FF8000
0003FF8000
0003FF0000
0001FE0000
0001FC0000
0001F80000
0001F80000
0001F80000
0001F80000
0003F80000
0003F00000
0003F00000
0003F00000
0007F00000
0007E00000
0007E00000
0007E00000
ENDCHAR
STARTCHAR 038F
ENCODING 911
SWIDTH 500 0
DWIDTH 25 0
BBX 29 33 -1 0
BITMAP
08000000
1F003800
1F83FF00
1F0FFFC0
3F1FFFE0
3E3FFFE0
7E7FFFF0
7CFF07F0
F8FC03F0
F9F803F0
11F803F8
03F003F8
03F003F0
03F003F0
07E003F0
07E003F0
07E003F0
07E003F0
07E007E0
07E007E0
07E007C0
07E00FC0
07E00F80
07E01F80
07E03F00
03E03E00
03E07E00
01F0FC00
3FF1FF80
3FF1FF80
7FF3FF80
7FF3FF80
7FF3FF80
ENDCHAR
STARTCHAR 0390
ENCODING 912
SWIDTH 500 0
DWIDTH 25 0
BBX 23 37 6 -1
BITMAP
000400
000E00
040F80
1F1F7C
3F1E7E
3F3EFE
3F3CFE
3F787C
1E7038
003000
000000
000000
7FF800
7FF800
FFF800
FFF800
FFF800
FFF000
03F000
03F000
07F000
07E000
07E000
07E000
0FE000
0FC000
0FC000
0FC000
0FC000
1FC000
0FC080
0FFF80
0FFF80
0FFF80
07FF80
03FF80
002000
ENDCHAR
STARTCHAR 0391
ENCODING 913
SWIDTH 500 0
DWIDTH 25 0
BBX 24 31 0 0
BITMAP
0001FC
0001FC
0003FC
0003FE
0007FE
000FFE
000FBE
001FBE
001F3E
003F3E
003E3E
007E3E
007C3E
00FC3E
00F83E
01F83E
01F03E
03F03F
03E03F
07FFFF
07FFFF
0FFFFF
0FFFFF
1FFFFF
1F803F
3F003F
3F003F
7E003F
7E003F
FE003F
FC003F
ENDCHAR
STARTCHAR 0392
ENCODING 914
SWIDTH 500 0
DWIDTH 25 0
BBX 25 31 2 0
BITMAP
00FFF000
01FFFC00
01FFFE00
03FFFF00
03FFFF00
03F03F80
03F01F80
07E01F80
07E01F80
07E01F00
07E03F00
0FE07E00
0FFFFE00
0FFFF800
0FFFF000
0FFFF800
1FFFFC00
1F87FC00
1F80FE00
1F807E00
3F007E00
3F007E00
3F007E00
3F00FE00
7E01FC00
7E03FC00
7FFFF800
7FFFF000
FFFFE000
FFFFC000
7FFE0000
ENDCHAR
STARTCHAR 0393
ENCODING 915
SWIDTH 500 0
DWIDTH 25 0
BBX 29 31 1 0
BITMAP
001FFFF8
001FFFF8
001FFFF0
001FFFF0
001FFFF0
003F0000
003F0000
003F0000
003F0000
007F0000
007E0000
007E0000
007E0000
00FE0000
00FC0000
00FC0000
00FC0000
01FC0000
01F80000
01F80000
01F80000
03F80000
03F00000
03F00000
03F00000
07F00000
7FFFC000
7FFFC000
FFFFC000
FFFF8000
FFFF8000
ENDCHAR
STARTCHAR 0394
ENCODING 916
SWIDTH 500 0
DWIDTH 25 0
BBX 24 31 0 0
BITMAP
0001FC
0001FC
0003FC
0007FC
0007FE
000FFE
000FBE
001FBE
001F3E
003F3E
003E3E
007E3E
007C3E
00FC3E
00F83E
01F83E
01F03E
03F03E
03E03E
07E03F
07C03F
0FC03F
0FC03F
1F803F
1F803F
3F003F
3FFFFF
7FFFFF
7FFFFF
FFFFFF
FFFFFF
ENDCHAR
STARTCHAR 0395
ENCODING 917
SWIDTH 500 0
DWIDTH 25 0
BBX 25 31 3 0
BITMAP
01FFFF80
01FFFF80
03FFFF80
03FFFF80
03FFFF00
03F00000
07F00000
07E00000
07E00000
07E00000
07E00000
0FC00000
0FFFF800
0FFFF800
0FFFF000
1FFFF000
1FFFF000
1F800000
1F800000
3F800000
3F000000
3F000000
3F000000
7F000000
7E000000
7E000000
7FFFF000
FFFFF000
FFFFF000
FFFFE000
FFFFE000
ENDCHAR
STARTCHAR 0396
ENCODING 918
SWIDTH 500 0
DWIDTH 25 0
BBX 26 31 2 0
BITMAP
01FFFFC0
01FFFFC0
01FFFFC0
03FFFFC0
03FFFF80
00003F80
00007F00
0000FE00
0001FC00
0001F800
0003F800
0007F000
000FE000
001FC000
003F8000
007F0000
007E0000
00FC0000
01FC0000
03F80000
07F00000
07E00000
0FC00000
1FC00000
3F800000
7F000000
7FFFF800
FFFFF800
FFFFF000
FFFFF000
FFFFF000
ENDCHAR
STARTCHAR 0397
ENCODING 919
SWIDTH 500 0
DWIDTH 25 0
BBX 28 31 1 0
BITMAP
00FC03F0
01FC03F0
01F803F0
01F807E0
01F807E0
03F807E0
03F007E0
03F00FE0
03F00FC0
07F00FC0
07E00FC0
07E01FC0
07FFFF80
0FFFFF80
0FFFFF80
0FFFFF80
0FFFFF00
0FC03F00
1F803F00
1F807F00
1F807E00
1F807E00
3F807E00
3F00FE00
3F00FC00
3F00FC00
7F00FC00
7E00FC00
7E01F800
7E01F800
FE01F800
ENDCHAR
STARTCHAR 0398
ENCODING 920
SWIDTH 500 0
DWIDTH 25 0
BBX 24 33 3 -1
BITMAP
000780
003FF0
007FF8
01FFFC
03FFFE
03FFFE
07F07F
0FE03F
0FC03F
1F803F
1F803F
3F003F
3F003F
3F003F
3E7F3F
7E7F3F
7E7F3E
7EFF7E
7CFE7E
7C007E
7C007C
FC00FC
FC00FC
FC01F8
7C03F8
7E03F0
7F0FF0
7FFFE0
3FFFC0
3FFF80
1FFF00
0FFC00
01E000
ENDCHAR
STARTCHAR 0399
ENCODING 921
SWIDTH 500 0
DWIDTH 25 0
BBX 27 31 2 0
BITMAP
01FFFFE0
01FFFFC0
01FFFFC0
03FFFFC0
03FFFFC0
0007E000
000FE000
000FC000
000FC000
000FC000
001FC000
001F8000
001F8000
001F8000
003F8000
003F0000
003F0000
003F0000
003F0000
007E0000
007E0000
007E0000
007E0000
00FE0000
00FC0000
00FC0000
7FFFF000
7FFFF000
FFFFF000
FFFFF000
FFFFF000
ENDCHAR
STARTCHAR 039A
ENCODING 922
SWIDTH 500 0
DWIDTH 25 0
BBX 28 31 2 0
BITMAP
01F807F0
01F80FE0
03F81FC0
03F01FC0
03F03F80
03F07F00
07F0FE00
07E1FC00
07E3F800
07E7F000
0FE7E000
0FCFE000
0FFF8000
0FFF0000
1FFE0000
1FFE0000
1FFF0000
1FBF8000
1FBF8000
3F1FC000
3F0FC000
3F0FE000
3F07E000
7F07F000
7E03F000
7E03F000
7E03F800
FE01F800
FC01F800
FC01FC00
FC01FC00
ENDCHAR
STARTCHAR 039B
ENCODING 923
SWIDTH 500 0
DWIDTH 25 0
BBX 24 31 0 0
BITMAP
0001FC
0001FC
0003FC
0007FC
0007FE
000FFE
000FFE
001FFE
001F7E
003F7E
003E3E
007E3E
007C3E
00FC3E
01F83E
01F83E
03F03E
03F03F
07E03F
07E03F
07E03F
0FC03F
0FC03F
1F803F
1F803F
3F003F
3F003F
7F003F
7E003F
FE007F
FC007F
ENDCHAR
STARTCHAR 039C
ENCODING 924
SWIDTH 500 0
DWIDTH 25 0
BBX 29 31 0 0
BITMAP
007E01F8
007E03F8
00FE03F0
00FE07F0
00FE07F0
01FE0FF0
01FE0FF0
01EE1FF0
01EE1FF0
03EE3DE0
03EE3DE0
03CE7BE0
07CF7BE0
07CFF3E0
07CFF3C0
07CFE7C0
0F8FE7C0
0F8FC7C0
0F8F87C0
1F8F8F80
1F000F80
1F000F80
1F001F80
3F001F80
3E001F00
3E001F00
3E003F00
7E003F00
7E003F00
7C003E00
FC007E00
ENDCHAR
STARTCHAR 039D
ENCODING 925
SWIDTH 500 0
DWIDTH 25 0
BBX 28 31 1 0
BITMAP
00F801F0
01F803F0
01FC03F0
01FC03E0
01FC03E0
03FE07E0
03FE07E0
03FE07C0
03FE07C0
07FF07C0
07FF0FC0
07CF0FC0
07CF0F80
0FCF8F80
0FCF9F80
0F879F80
0F879F00
0F87DF00
1F87FF00
1F83FF00
1F03FE00
1F03FE00
3F03FE00
3F03FE00
3E01FC00
3E01FC00
7E01FC00
7E01FC00
7C01F800
7C00F800
FC00F800
ENDCHAR
STARTCHAR 039E
ENCODING 926
SWIDTH 500 0
DWIDTH 25 0
BBX 28 31 1 0
BITMAP
01FFFFF0
01FFFFF0
01FFFFF0
01FFFFF0
03FFFFF0
00000000
00000000
00000000
00000000
00000000
00000000
00000000
03FFFF00
03FFFE00
03FFFE00
03FFFE00
07FFFE00
00000000
00000000
00000000
00000000
00000000
00000000
00000000
00000000
00000000
7FFFFC00
7FFFFC00
7FFFFC00
FFFFFC00
FFFFF800
ENDCHAR
STARTCHAR 039F
ENCODING 927
SWIDTH 500 0
DWIDTH 25 0
BBX 24 33 3 -1
BITMAP
000380
003FF0
00FFF8
01FFFC
03FFFE
07FFFE
07F07F
0FE07F
0FC03F
1FC03F
1F803F
3F803F
3F003F
3F003F
7F003F
7E007F
7E007E
7E007E
7E007E
7E00FE
FE00FC
FE00FC
FE01FC
FE01F8
FE03F8
7E07F0
7F0FF0
7FFFE0
3FFFC0
3FFF80
1FFF00
0FFC00
01E000
ENDCHAR
ENDFONT
